<svg version="1.1" id="Layer_1" xmlns="http://www.w3.org/2000/svg" xmlns:xlink="http://www.w3.org/1999/xlink" x="0px" y="0px"
	 width="100%" viewBox="0 0 1024 1024" enable-background="new 0 0 1024 1024" xml:space="preserve">
<path fill="#FCFDFC" opacity="1.000000" stroke="none" 
	d="
M595.000000,1025.000000 
	C396.666656,1025.000000 198.833328,1025.000000 1.000000,1025.000000 
	C1.000000,683.666687 1.000000,342.333344 1.000000,1.000000 
	C342.333344,1.000000 683.666687,1.000000 1025.000000,1.000000 
	C1025.000000,342.333344 1025.000000,683.666687 1025.000000,1025.000000 
	C881.833313,1025.000000 738.666687,1025.000000 595.000000,1025.000000 
M401.062134,128.505325 
	C401.323242,128.720169 401.584320,128.935028 401.847900,129.880646 
	C410.572723,147.112488 419.297577,164.344330 428.022400,181.576157 
	C428.423065,181.467117 428.823730,181.358063 429.224396,181.249023 
	C429.224396,175.922440 429.224396,170.595856 429.224396,164.498657 
	C435.745148,166.853714 441.537781,168.945801 447.330414,171.037888 
	C436.708954,159.971161 425.678101,149.662308 414.540771,139.469833 
	C410.528137,135.797638 406.259583,132.405106 401.934723,128.367813 
	C401.613403,128.254456 401.292114,128.141098 400.940979,127.642006 
	C400.808167,127.442909 400.675354,127.243813 400.542480,127.044716 
	C400.496582,127.160515 400.378784,127.335426 400.417114,127.382027 
	C400.595245,127.598724 400.816620,127.779892 401.062134,128.505325 
M546.223755,696.248840 
	C546.397339,693.481689 546.570984,690.714600 547.387329,688.021179 
	C547.595825,687.966064 547.804321,687.910889 548.816162,687.936035 
	C557.419800,685.382812 566.296082,683.506042 574.582397,680.165649 
	C625.228638,659.749207 658.648438,623.621033 673.530945,570.724182 
	C680.539917,545.812195 677.545410,520.452637 677.439087,495.211182 
	C677.438049,494.962708 677.035339,494.715912 676.852661,494.505676 
	C667.220215,494.505676 657.625732,494.505676 647.951294,494.505676 
	C647.951294,504.241730 647.414124,513.738647 648.038208,523.158691 
	C652.164551,585.441650 612.631348,641.015076 552.258118,657.506226 
	C550.096008,658.096741 548.089233,659.255798 545.193604,660.005127 
	C537.453308,660.676025 529.713074,661.346985 521.309692,661.606567 
	C511.341614,660.794861 511.372742,660.810974 506.825104,669.601624 
	C504.991425,673.146179 503.254547,676.786804 500.997894,680.055298 
	C497.854736,684.607605 497.026703,689.334656 497.099731,694.877197 
	C497.446259,721.172607 497.295685,747.474731 497.301910,773.774414 
	C497.302277,775.374023 497.127960,776.973694 497.020660,778.819519 
	C484.177612,779.538940 471.736664,779.992310 459.340240,780.996155 
	C445.932190,782.081970 432.516205,783.324707 419.197266,785.173157 
	C409.064026,786.579529 403.881287,792.130859 402.306946,802.122681 
	C401.534210,807.027039 401.166077,812.058350 401.247925,817.021790 
	C401.464569,830.156677 407.076813,836.998840 419.812408,839.944336 
	C423.849091,840.877930 427.981140,841.657349 432.106018,841.908508 
	C454.511414,843.272644 476.922150,844.581543 499.344513,845.617310 
	C506.954102,845.968811 514.603027,845.468140 523.060303,845.565491 
	C533.032104,845.354797 543.003967,845.144165 553.901428,845.114075 
	C569.034973,844.341553 584.190430,843.853699 599.293945,842.691406 
	C608.563171,841.978088 617.824646,840.604492 626.957886,838.843994 
	C635.910645,837.118164 641.672119,831.309753 642.167114,822.083801 
	C642.581787,814.355591 642.070007,806.474976 640.986084,798.800598 
	C640.075134,792.351013 635.208374,788.182861 629.185791,786.398438 
	C623.325562,784.662048 617.179626,783.466125 611.086609,783.016846 
	C590.999756,781.535950 570.876892,780.546875 550.778748,779.206360 
	C549.163574,779.098633 547.631226,777.749695 546.184509,776.050293 
	C546.121399,749.698364 546.058289,723.346436 546.223755,696.248840 
M547.752930,302.150757 
	C547.752930,302.150757 547.661438,302.311157 548.000000,302.934357 
	C551.736023,304.003632 555.453674,305.914246 559.211182,305.995941 
	C575.162231,306.342712 591.125122,306.147003 607.083679,306.149353 
	C609.341797,306.149658 611.599976,306.149384 613.821045,306.149384 
	C613.821045,297.039032 613.821045,288.471588 613.821045,279.316925 
	C594.585388,279.316925 575.660095,279.222534 556.738220,279.432739 
	C554.289185,279.459900 551.857666,281.061401 548.788879,282.091248 
	C542.847717,287.443665 541.973755,294.438721 546.749451,301.654938 
	C547.131531,301.859222 547.513672,302.063538 547.752930,302.150757 
M547.036865,368.788910 
	C542.731934,373.618530 542.881958,379.132294 545.084839,384.636200 
	C547.337280,390.263855 552.471680,391.547180 557.835449,391.584534 
	C576.138916,391.711884 594.443665,391.662354 612.747925,391.649841 
	C613.178833,391.649536 613.609497,391.290466 613.911072,391.156250 
	C613.911072,382.255463 613.911072,373.533142 613.911072,364.800415 
	C594.230652,364.800415 574.940857,364.653992 555.658813,364.971466 
	C553.020325,365.014954 550.419922,367.369354 547.845093,368.748810 
	C547.845093,368.748810 547.750244,368.707092 547.036865,368.788910 
M430.317383,262.723022 
	C431.209503,263.006683 432.101349,263.537781 432.993744,263.538635 
	C487.925598,263.592743 542.857483,263.603546 597.789368,263.618011 
	C602.895325,263.619354 608.001221,263.618195 613.634644,263.618195 
	C613.356873,259.910156 613.136902,256.973969 613.047485,253.218811 
	C606.774780,203.858841 559.170471,167.621796 507.758942,175.535294 
	C479.329956,179.911194 457.372559,194.526123 442.592651,219.319458 
	C434.815613,232.365479 430.008820,246.433380 430.317383,262.723022 
M556.951111,349.073608 
	C575.863159,349.073608 594.775208,349.073608 613.823120,349.073608 
	C613.823120,339.835663 613.823120,330.969208 613.823120,321.876617 
	C611.993652,321.963013 610.510437,322.033020 608.104553,321.905243 
	C591.288818,321.876556 574.472473,321.754242 557.657593,321.859711 
	C549.585754,321.910370 544.030151,327.179596 543.708557,334.556671 
	C543.334656,343.134033 547.429199,347.896851 556.951111,349.073608 
M451.594208,724.099731 
	C461.895142,714.515442 472.196106,704.931213 483.126678,694.761108 
	C462.699554,689.077576 445.286438,680.652100 429.288605,669.332458 
	C413.300476,658.019714 399.586975,644.311157 387.761108,628.702576 
	C337.685181,674.310059 268.049957,676.265381 218.358322,640.061218 
	C164.991959,601.179688 146.327682,531.015808 173.115967,470.630768 
	C186.318588,440.869965 207.091095,417.859253 236.210556,402.998840 
	C272.670380,384.392426 309.975708,384.642303 347.622681,399.555176 
	C365.720459,365.049225 383.663727,330.837921 401.618256,296.605103 
	C400.627899,296.008575 400.091980,295.600647 399.492645,295.336853 
	C353.964661,275.299744 306.485596,269.073639 257.410522,276.357941 
	C205.554367,284.055084 160.637299,306.728363 123.822906,343.753998 
	C54.106125,413.870758 29.094587,497.699554 53.199158,594.065369 
	C67.264267,650.295105 99.251945,695.883179 145.829254,730.561707 
	C209.545654,778.000977 280.309265,792.245605 357.418854,772.960754 
	C392.316223,764.233093 423.077820,746.957153 451.594208,724.099731 
M793.500000,402.131226 
	C764.559265,402.131226 735.618530,402.131226 706.420898,402.131226 
	C706.420898,528.696899 706.420898,654.868774 706.420898,781.001770 
	C743.666931,781.001770 780.560608,781.001770 817.600586,781.001770 
	C817.600586,654.626587 817.600586,528.603027 817.600586,402.133087 
	C809.725586,402.133087 802.112793,402.133087 793.500000,402.131226 
M969.413818,299.951202 
	C973.296631,292.105072 977.179382,284.258942 981.270386,275.991943 
	C866.186951,275.991943 751.700684,275.991943 637.174438,275.991943 
	C637.174438,314.513275 637.174438,352.738678 637.174438,391.221680 
	C657.254517,391.221680 677.051331,391.221710 696.848145,391.221649 
	C771.145142,391.221527 845.442078,391.220001 919.739075,391.227722 
	C922.059753,391.227966 923.892151,391.372772 925.311279,388.490295 
	C939.764709,359.133453 954.458313,329.894867 969.413818,299.951202 
M370.058105,596.977966 
	C356.101440,564.345398 354.233582,530.087952 357.348633,494.786957 
	C340.789215,494.786957 325.182800,494.886078 309.579590,494.706055 
	C306.331085,494.668579 304.643250,495.561798 303.118530,498.559753 
	C287.161896,529.934937 271.018097,561.214844 254.933563,592.525024 
	C254.067993,594.209961 253.269379,595.929321 252.228333,598.066284 
	C284.514160,598.066284 315.967194,598.080688 347.420258,598.055725 
	C354.898010,598.049805 362.375641,597.912415 370.058105,596.977966 
M415.796295,601.686462 
	C399.523743,576.213684 393.061981,548.437012 395.714569,518.344910 
	C396.393463,510.643372 395.816467,502.831085 395.816467,495.210754 
	C385.932465,495.210754 376.555450,495.210754 366.412964,495.210754 
	C366.412964,501.693604 366.781647,507.700409 366.348389,513.648804 
	C364.584717,537.862000 366.669922,561.558167 375.200958,584.453552 
	C385.741760,612.742859 402.848450,636.415039 426.292480,655.316528 
	C442.769135,668.600708 461.221069,678.478882 481.689911,684.253723 
	C483.243561,684.692139 486.172089,684.419128 486.763397,683.445496 
	C491.298798,675.977783 495.413452,668.254517 499.994751,660.005859 
	C464.302246,650.847046 435.993652,632.628845 415.796295,601.686462 
M498.183411,470.436707 
	C503.557220,459.041382 497.660858,449.338196 485.110687,449.244934 
	C468.148163,449.118835 451.184021,449.206482 434.220581,449.232391 
	C432.929993,449.234344 431.639801,449.474670 430.103851,449.628845 
	C430.103851,458.601440 430.103851,467.332458 430.103851,476.168488 
	C430.954620,476.383514 431.579102,476.678558 432.204010,476.679352 
	C450.331360,476.702698 468.468475,477.008942 486.578156,476.441803 
	C490.372559,476.322968 494.065643,472.969482 498.183411,470.436707 
M547.742737,453.269836 
	C543.001160,457.822021 542.851257,463.344147 545.006287,468.940735 
	C547.498230,475.412445 553.340576,476.665527 559.387451,476.707001 
	C576.210266,476.822388 593.034424,476.738220 609.858032,476.701447 
	C611.141479,476.698639 612.424316,476.449036 613.759033,476.308746 
	C613.759033,467.244690 613.759033,458.510773 613.759033,449.243195 
	C611.584656,449.243195 609.790466,449.242859 607.996277,449.243286 
	C592.172058,449.246948 576.341614,449.010773 560.527893,449.419159 
	C556.447876,449.524536 552.420227,451.655304 547.742737,453.269836 
M611.211914,407.100983 
	C593.573547,407.099304 575.934692,407.017639 558.296997,407.129181 
	C549.284912,407.186188 544.063660,411.839722 543.830688,419.553040 
	C543.562378,428.436371 548.765198,433.883331 557.909790,433.935791 
	C575.547974,434.036987 593.186951,433.991821 610.825623,433.982666 
	C611.776489,433.982178 612.727173,433.755127 614.080872,433.582062 
	C614.080872,425.242401 614.123352,417.128754 613.997192,409.017761 
	C613.987427,408.392883 612.789978,407.786469 611.211914,407.100983 
M496.051910,345.602966 
	C500.607880,341.079163 501.244354,335.652679 499.092163,329.962280 
	C497.225952,325.027832 493.203583,322.060089 487.991608,322.018127 
	C469.199493,321.866760 450.404633,322.055969 431.610962,322.146240 
	C431.164490,322.148376 430.719727,322.499298 430.292419,322.679840 
	C430.292419,331.446106 430.292419,340.123291 430.292419,349.039825 
	C448.909912,349.039825 467.032623,349.190521 485.148560,348.907532 
	C488.607849,348.853516 492.040405,347.088257 496.051910,345.602966 
M499.944824,417.933777 
	C497.805634,410.373596 493.846924,407.187469 485.922760,407.138855 
	C468.597687,407.032684 451.271759,407.062653 433.946167,407.072571 
	C432.665131,407.073303 431.384247,407.358002 430.163269,407.503540 
	C430.163269,416.406860 430.163269,424.961731 430.163269,433.700256 
	C431.882385,433.818634 433.186615,433.984528 434.491089,433.986755 
	C451.316833,434.015533 468.143036,434.093903 484.968262,434.004730 
	C494.890442,433.952179 499.723267,428.917542 499.944824,417.933777 
M498.592194,371.235870 
	C495.825806,366.739899 491.792358,364.680206 486.527405,364.699493 
	C468.899292,364.764099 451.270874,364.749847 433.642700,364.797699 
	C432.539459,364.800720 431.436951,365.077301 430.133179,365.253845 
	C430.133179,373.925110 430.133179,382.308533 430.133179,390.682465 
	C430.896301,390.911560 431.355652,391.166412 431.817657,391.171265 
	C449.937164,391.362335 468.059174,391.777832 486.175812,391.612305 
	C497.630951,391.507599 502.747284,383.195801 498.592194,371.235870 
M724.558289,222.057190 
	C734.209778,214.945984 743.861267,207.834763 753.512817,200.723557 
	C753.281860,200.297546 753.050903,199.871536 752.819885,199.445541 
	C716.806885,209.459946 680.793884,219.474350 644.780884,229.488770 
	C644.837646,229.834793 644.894348,230.180832 644.951050,230.526855 
	C657.042236,231.624039 669.133423,232.721222 681.763000,233.867264 
	C678.369873,242.963135 675.278870,251.249237 671.762634,260.675354 
	C689.882141,247.415573 706.927734,234.941727 724.558289,222.057190 
M429.452942,529.917786 
	C429.599457,534.898621 429.318054,539.935303 429.960358,544.851379 
	C434.951935,583.057739 456.033813,609.227783 491.558136,622.762756 
	C519.860657,633.546082 547.389221,628.816833 572.623718,612.473938 
	C595.174072,597.869446 609.130066,576.914490 612.785645,550.335083 
	C614.766663,535.931396 613.792725,521.118591 614.103027,506.489319 
	C614.193726,502.212463 614.116882,497.932098 614.116882,493.379333 
	C552.494080,493.379333 491.472321,493.379333 429.599152,493.379333 
	C429.599152,505.472321 429.599152,517.236023 429.452942,529.917786 
M370.024933,255.393402 
	C367.878662,249.803177 365.786224,244.191437 363.564178,238.631500 
	C362.392853,235.700729 363.093597,234.250412 366.372559,234.018219 
	C369.688599,233.783401 372.985657,233.283630 376.292053,232.908768 
	C383.534302,232.087646 390.777222,231.272110 398.019867,230.454300 
	C398.012634,230.252991 398.005402,230.051666 397.998138,229.850357 
	C361.974182,219.493576 325.950195,209.136780 289.926208,198.779999 
	C289.792114,199.090027 289.658020,199.400055 289.523956,199.710098 
	C316.722198,220.147003 343.920441,240.583908 371.118683,261.020813 
	C371.362366,260.753082 371.606049,260.485321 371.849731,260.217590 
	C371.302979,258.853394 370.756195,257.489197 370.024933,255.393402 
M626.531189,142.028656 
	C617.361816,150.445648 608.192444,158.862656 599.023071,167.279648 
	C599.296570,167.717911 599.570129,168.156174 599.843689,168.594437 
	C604.701904,167.310577 609.560059,166.026718 614.935059,164.606277 
	C614.935059,170.799072 614.935059,176.335663 614.935059,181.872238 
	C615.189819,181.930984 615.444519,181.989746 615.699280,182.048492 
	C624.507812,164.522232 633.316345,146.995972 642.124817,129.469711 
	C641.807068,129.213531 641.489319,128.957367 641.171509,128.701202 
	C636.461487,132.979324 631.751404,137.257431 626.531189,142.028656 
M483.344757,279.271576 
	C465.607727,279.271576 447.870697,279.271576 429.854218,279.271576 
	C429.854218,288.439117 429.854218,297.157898 429.854218,306.087891 
	C449.261322,306.087891 468.366425,306.208679 487.468262,306.011047 
	C492.889099,305.954956 497.998138,301.994690 498.985016,297.560577 
	C500.585724,290.368408 499.980896,285.139404 494.206116,281.695648 
	C491.413086,280.030029 487.627625,280.028625 483.344757,279.271576 
M755.075195,199.596985 
	C754.848267,199.468552 754.630737,199.312912 754.388367,199.229202 
	C754.320801,199.205887 754.179871,199.395233 754.072632,199.487045 
	C754.288879,199.602325 754.505127,199.717621 755.075195,199.596985 
M642.606323,127.620667 
	C642.606323,127.620667 642.465698,127.531685 642.465698,127.531685 
	C642.465698,127.531685 642.486145,127.743210 642.606323,127.620667 
z"/>
<path fill="#010101" opacity="1.000000" stroke="none" 
	d="
M451.322327,724.328003 
	C423.077820,746.957153 392.316223,764.233093 357.418854,772.960754 
	C280.309265,792.245605 209.545654,778.000977 145.829254,730.561707 
	C99.251945,695.883179 67.264267,650.295105 53.199158,594.065369 
	C29.094587,497.699554 54.106125,413.870758 123.822906,343.753998 
	C160.637299,306.728363 205.554367,284.055084 257.410522,276.357941 
	C306.485596,269.073639 353.964661,275.299744 399.492645,295.336853 
	C400.091980,295.600647 400.627899,296.008575 401.618256,296.605103 
	C383.663727,330.837921 365.720459,365.049225 347.622681,399.555176 
	C309.975708,384.642303 272.670380,384.392426 236.210556,402.998840 
	C207.091095,417.859253 186.318588,440.869965 173.115967,470.630768 
	C146.327682,531.015808 164.991959,601.179688 218.358322,640.061218 
	C268.049957,676.265381 337.685181,674.310059 387.761108,628.702576 
	C399.586975,644.311157 413.300476,658.019714 429.288605,669.332458 
	C445.286438,680.652100 462.699554,689.077576 483.126678,694.761108 
	C472.196106,704.931213 461.895142,714.515442 451.322327,724.328003 
z"/>
<path fill="#010201" opacity="1.000000" stroke="none" 
	d="
M794.000000,402.132141 
	C802.112793,402.133087 809.725586,402.133087 817.600586,402.133087 
	C817.600586,528.603027 817.600586,654.626587 817.600586,781.001770 
	C780.560608,781.001770 743.666931,781.001770 706.420898,781.001770 
	C706.420898,654.868774 706.420898,528.696899 706.420898,402.131226 
	C735.618530,402.131226 764.559265,402.131226 794.000000,402.132141 
z"/>
<path fill="#000000" opacity="1.000000" stroke="none" 
	d="
M969.249268,300.287201 
	C954.458313,329.894867 939.764709,359.133453 925.311279,388.490295 
	C923.892151,391.372772 922.059753,391.227966 919.739075,391.227722 
	C845.442078,391.220001 771.145142,391.221527 696.848145,391.221649 
	C677.051331,391.221710 657.254517,391.221680 637.174438,391.221680 
	C637.174438,352.738678 637.174438,314.513275 637.174438,275.991943 
	C751.700684,275.991943 866.186951,275.991943 981.270386,275.991943 
	C977.179382,284.258942 973.296631,292.105072 969.249268,300.287201 
z"/>
<path fill="#010101" opacity="1.000000" stroke="none" 
	d="
M369.955719,597.406738 
	C362.375641,597.912415 354.898010,598.049805 347.420258,598.055725 
	C315.967194,598.080688 284.514160,598.066284 252.228333,598.066284 
	C253.269379,595.929321 254.067993,594.209961 254.933563,592.525024 
	C271.018097,561.214844 287.161896,529.934937 303.118530,498.559753 
	C304.643250,495.561798 306.331085,494.668579 309.579590,494.706055 
	C325.182800,494.886078 340.789215,494.786957 357.348633,494.786957 
	C354.233582,530.087952 356.101440,564.345398 369.955719,597.406738 
z"/>
<path fill="#AEBB53" opacity="1.000000" stroke="none" 
	d="
M415.970184,602.002930 
	C435.993652,632.628845 464.302246,650.847046 499.994751,660.005859 
	C495.413452,668.254517 491.298798,675.977783 486.763397,683.445496 
	C486.172089,684.419128 483.243561,684.692139 481.689911,684.253723 
	C461.221069,678.478882 442.769135,668.600708 426.292480,655.316528 
	C402.848450,636.415039 385.741760,612.742859 375.200958,584.453552 
	C366.669922,561.558167 364.584717,537.862000 366.348389,513.648804 
	C366.781647,507.700409 366.412964,501.693604 366.412964,495.210754 
	C376.555450,495.210754 385.932465,495.210754 395.816467,495.210754 
	C395.816467,502.831085 396.393463,510.643372 395.714569,518.344910 
	C393.061981,548.437012 399.523743,576.213684 415.970184,602.002930 
z"/>
<path fill="#577B4F" opacity="1.000000" stroke="none" 
	d="
M521.972778,662.017883 
	C529.713074,661.346985 537.453308,660.676025 545.644043,660.407715 
	C547.041382,660.992981 548.067322,661.480713 548.909973,661.262085 
	C549.584473,661.087036 549.915527,659.679871 550.604858,659.457275 
	C559.946106,656.440857 569.351868,654.401672 578.438110,649.713928 
	C589.272766,644.124146 598.884399,637.120605 607.889893,629.534302 
	C616.000854,622.701599 622.228088,613.541016 628.843872,605.062012 
	C632.395081,600.510681 635.818176,595.544189 637.883606,590.216309 
	C641.832214,580.030823 645.412415,569.604980 647.919189,558.989319 
	C649.875854,550.703430 650.657471,541.985168 650.730469,533.448608 
	C650.820923,522.880066 649.695190,512.296814 648.973816,501.728241 
	C648.762817,498.637817 650.051208,496.660797 652.979553,496.602020 
	C659.403198,496.473175 665.843811,496.632599 672.255005,497.033661 
	C673.230225,497.094635 674.799255,499.031860 674.873291,500.179932 
	C675.210083,505.404175 675.170166,510.656708 675.155823,515.898743 
	C675.123718,527.640503 675.610352,539.424866 674.755127,551.109131 
	C674.161316,559.221313 672.343262,567.405945 669.863281,575.172180 
	C667.415039,582.839355 662.175415,589.742249 660.476196,597.488464 
	C658.480225,606.588074 652.396484,612.879211 647.819824,620.024231 
	C642.442200,628.419617 635.230896,635.741516 628.236877,642.969727 
	C622.243225,649.164124 616.162048,655.570740 607.420227,658.172058 
	C606.887085,658.330627 606.561768,659.087646 606.051331,659.437317 
	C599.479858,663.939636 593.151672,668.882629 586.225098,672.753479 
	C580.875610,675.743042 574.834961,677.569275 568.982422,679.562805 
	C563.906982,681.291626 558.734436,683.169495 553.469360,683.747437 
	C550.221802,684.104004 548.660706,684.894897 548.012817,687.855774 
	C547.804321,687.910889 547.595825,687.966064 546.824036,688.040161 
	C546.260742,688.059204 545.779236,688.188416 545.513611,688.486755 
	C545.149780,709.520325 545.051636,730.255615 544.563232,750.897278 
	C543.781982,749.300842 543.091431,747.805420 543.053772,746.293762 
	C542.917236,740.820251 543.211548,735.329895 542.916565,729.868896 
	C542.753357,726.847900 541.607544,723.893494 541.139160,720.872742 
	C539.884094,712.778381 536.163513,704.571533 542.112488,696.714905 
	C542.556091,696.128967 542.259277,694.885864 542.125183,693.974976 
	C541.372925,688.865173 540.564941,683.763611 539.968506,679.904480 
	C537.695312,678.338440 534.913086,677.461121 534.330383,675.808350 
	C533.034912,672.133789 531.214539,672.235657 528.943481,674.205811 
	C527.049988,675.848633 525.636108,678.044312 524.008118,679.557495 
	C524.005127,677.077515 524.003784,675.035095 524.001648,672.574646 
	C523.337402,669.106567 522.673950,666.056458 521.974854,662.760254 
	C521.939148,662.514160 521.972778,662.017883 521.972778,662.017883 
z"/>
<path fill="#B1BE57" opacity="1.000000" stroke="none" 
	d="
M497.994415,470.771606 
	C494.065643,472.969482 490.372559,476.322968 486.578156,476.441803 
	C468.468475,477.008942 450.331360,476.702698 432.204010,476.679352 
	C431.579102,476.678558 430.954620,476.383514 430.103851,476.168488 
	C430.103851,467.332458 430.103851,458.601440 430.103851,449.628845 
	C431.639801,449.474670 432.929993,449.234344 434.220581,449.232391 
	C451.184021,449.206482 468.148163,449.118835 485.110687,449.244934 
	C497.660858,449.338196 503.557220,459.041382 497.994415,470.771606 
z"/>
<path fill="#B1BD56" opacity="1.000000" stroke="none" 
	d="
M548.055664,453.062744 
	C552.420227,451.655304 556.447876,449.524536 560.527893,449.419159 
	C576.341614,449.010773 592.172058,449.246948 607.996277,449.243286 
	C609.790466,449.242859 611.584656,449.243195 613.759033,449.243195 
	C613.759033,458.510773 613.759033,467.244690 613.759033,476.308746 
	C612.424316,476.449036 611.141479,476.698639 609.858032,476.701447 
	C593.034424,476.738220 576.210266,476.822388 559.387451,476.707001 
	C553.340576,476.665527 547.498230,475.412445 545.006287,468.940735 
	C542.851257,463.344147 543.001160,457.822021 548.055664,453.062744 
z"/>
<path fill="#AFBB56" opacity="1.000000" stroke="none" 
	d="
M611.678223,407.136230 
	C612.789978,407.786469 613.987427,408.392883 613.997192,409.017761 
	C614.123352,417.128754 614.080872,425.242401 614.080872,433.582062 
	C612.727173,433.755127 611.776489,433.982178 610.825623,433.982666 
	C593.186951,433.991821 575.547974,434.036987 557.909790,433.935791 
	C548.765198,433.883331 543.562378,428.436371 543.830688,419.553040 
	C544.063660,411.839722 549.284912,407.186188 558.296997,407.129181 
	C575.934692,407.017639 593.573547,407.099304 611.678223,407.136230 
z"/>
<path fill="#AAB652" opacity="1.000000" stroke="none" 
	d="
M495.768616,345.857727 
	C492.040405,347.088257 488.607849,348.853516 485.148560,348.907532 
	C467.032623,349.190521 448.909912,349.039825 430.292419,349.039825 
	C430.292419,340.123291 430.292419,331.446106 430.292419,322.679840 
	C430.719727,322.499298 431.164490,322.148376 431.610962,322.146240 
	C450.404633,322.055969 469.199493,321.866760 487.991608,322.018127 
	C493.203583,322.060089 497.225952,325.027832 499.092163,329.962280 
	C501.244354,335.652679 500.607880,341.079163 495.768616,345.857727 
z"/>
<path fill="#B1BE57" opacity="1.000000" stroke="none" 
	d="
M499.970917,418.348145 
	C499.723267,428.917542 494.890442,433.952179 484.968262,434.004730 
	C468.143036,434.093903 451.316833,434.015533 434.491089,433.986755 
	C433.186615,433.984528 431.882385,433.818634 430.163269,433.700256 
	C430.163269,424.961731 430.163269,416.406860 430.163269,407.503540 
	C431.384247,407.358002 432.665131,407.073303 433.946167,407.072571 
	C451.271759,407.062653 468.597687,407.032684 485.922760,407.138855 
	C493.846924,407.187469 497.805634,410.373596 499.970917,418.348145 
z"/>
<path fill="#ADB854" opacity="1.000000" stroke="none" 
	d="
M498.766541,371.595215 
	C502.747284,383.195801 497.630951,391.507599 486.175812,391.612305 
	C468.059174,391.777832 449.937164,391.362335 431.817657,391.171265 
	C431.355652,391.166412 430.896301,390.911560 430.133179,390.682465 
	C430.133179,382.308533 430.133179,373.925110 430.133179,365.253845 
	C431.436951,365.077301 432.539459,364.800720 433.642700,364.797699 
	C451.270874,364.749847 468.899292,364.764099 486.527405,364.699493 
	C491.792358,364.680206 495.825806,366.739899 498.766541,371.595215 
z"/>
<path fill="#55794C" opacity="1.000000" stroke="none" 
	d="
M556.033203,348.892792 
	C547.429199,347.896851 543.334656,343.134033 543.708557,334.556671 
	C544.030151,327.179596 549.585754,321.910370 557.657593,321.859711 
	C574.472473,321.754242 591.288818,321.876556 608.616455,322.309845 
	C612.328186,322.834381 613.289551,324.409210 613.090454,327.613281 
	C612.772278,332.736145 612.781860,337.906281 613.078491,343.031738 
	C613.305908,346.961670 611.984192,348.152649 608.029358,348.098419 
	C592.438354,347.884674 576.842712,347.977173 561.249146,348.040833 
	C559.509338,348.047943 557.771790,348.595734 556.033203,348.892792 
z"/>
<path fill="#54714E" opacity="1.000000" stroke="none" 
	d="
M724.265808,222.262543 
	C706.927734,234.941727 689.882141,247.415573 671.762634,260.675354 
	C675.278870,251.249237 678.369873,242.963135 681.763000,233.867264 
	C669.133423,232.721222 657.042236,231.624039 644.951050,230.526855 
	C644.894348,230.180832 644.837646,229.834793 644.780884,229.488770 
	C680.793884,219.474350 716.806885,209.459946 752.819885,199.445541 
	C753.050903,199.871536 753.281860,200.297546 753.512817,200.723557 
	C743.861267,207.834763 734.209778,214.945984 724.265808,222.262543 
z"/>
<path fill="#56794E" opacity="1.000000" stroke="none" 
	d="
M546.419067,301.059204 
	C541.973755,294.438721 542.847717,287.443665 549.569580,282.021027 
	C552.137085,281.640961 553.922852,281.069092 555.710938,281.061768 
	C573.659302,280.988403 591.608276,281.038300 609.556702,280.966919 
	C612.140076,280.956665 613.118164,281.924042 613.049744,284.487793 
	C612.925598,289.138031 612.960205,293.794067 613.008179,298.446899 
	C613.054749,302.966675 611.686584,305.453979 606.367249,305.086151 
	C586.822449,303.734741 567.027466,307.670197 547.661438,302.311157 
	C547.661438,302.311157 547.752930,302.150757 547.698181,301.889587 
	C547.235291,301.438690 546.827209,301.248932 546.419067,301.059204 
z"/>
<path fill="#AAAF76" opacity="1.000000" stroke="none" 
	d="
M429.526062,529.458740 
	C429.599152,517.236023 429.599152,505.472321 429.599152,493.379333 
	C491.472321,493.379333 552.494080,493.379333 614.116882,493.379333 
	C614.116882,497.932098 614.193726,502.212463 614.103027,506.489319 
	C613.792725,521.118591 614.766663,535.931396 612.785645,550.335083 
	C609.130066,576.914490 595.174072,597.869446 572.623718,612.473938 
	C547.389221,628.816833 519.860657,633.546082 491.558136,622.762756 
	C456.033813,609.227783 434.951935,583.057739 429.960358,544.851379 
	C429.318054,539.935303 429.599457,534.898621 429.526062,529.458740 
M611.997314,505.575378 
	C611.991577,494.972748 612.893494,495.991821 602.259460,495.983734 
	C586.176392,495.971527 570.092163,496.098053 554.010681,495.939911 
	C543.383484,495.835388 532.758728,495.019257 522.135620,495.073303 
	C493.847290,495.217163 465.560913,495.734833 437.272552,495.902863 
	C432.979034,495.928375 431.824432,497.563354 431.945496,501.550201 
	C432.409729,516.836243 432.472107,532.135986 433.055267,547.416443 
	C433.466003,558.179871 437.207062,568.201904 442.573395,577.316528 
	C449.230591,588.623657 457.864136,598.303833 468.057495,606.879822 
	C480.342224,617.215271 494.625031,622.507263 509.831360,624.660767 
	C520.948486,626.235046 532.356018,625.629700 543.711060,622.530762 
	C558.382141,618.526978 570.728760,611.102356 582.028748,601.444702 
	C589.931152,594.690796 596.255554,586.568848 600.803040,577.252502 
	C605.503723,567.622009 610.335388,557.855530 610.910828,546.926514 
	C611.618408,533.488403 611.664917,520.015625 611.997314,505.575378 
z"/>
<path fill="#596E56" opacity="1.000000" stroke="none" 
	d="
M548.414490,687.895874 
	C548.660706,684.894897 550.221802,684.104004 553.469360,683.747437 
	C558.734436,683.169495 563.906982,681.291626 568.982422,679.562805 
	C574.834961,677.569275 580.875610,675.743042 586.225098,672.753479 
	C593.151672,668.882629 599.479858,663.939636 606.051331,659.437317 
	C606.561768,659.087646 606.887085,658.330627 607.420227,658.172058 
	C616.162048,655.570740 622.243225,649.164124 628.236877,642.969727 
	C635.230896,635.741516 642.442200,628.419617 647.819824,620.024231 
	C652.396484,612.879211 658.480225,606.588074 660.476196,597.488464 
	C662.175415,589.742249 667.415039,582.839355 669.863281,575.172180 
	C672.343262,567.405945 674.161316,559.221313 674.755127,551.109131 
	C675.610352,539.424866 675.123718,527.640503 675.155823,515.898743 
	C675.170166,510.656708 675.210083,505.404175 674.873291,500.179932 
	C674.799255,499.031860 673.230225,497.094635 672.255005,497.033661 
	C665.843811,496.632599 659.403198,496.473175 652.979553,496.602020 
	C650.051208,496.660797 648.762817,498.637817 648.973816,501.728241 
	C649.695190,512.296814 650.820923,522.880066 650.730469,533.448608 
	C650.657471,541.985168 649.875854,550.703430 647.919189,558.989319 
	C645.412415,569.604980 641.832214,580.030823 637.883606,590.216309 
	C635.818176,595.544189 632.395081,600.510681 628.843872,605.062012 
	C622.228088,613.541016 616.000854,622.701599 607.889893,629.534302 
	C598.884399,637.120605 589.272766,644.124146 578.438110,649.713928 
	C569.351868,654.401672 559.946106,656.440857 550.604858,659.457275 
	C549.915527,659.679871 549.584473,661.087036 548.909973,661.262085 
	C548.067322,661.480713 547.041382,660.992981 546.052307,660.480103 
	C548.089233,659.255798 550.096008,658.096741 552.258118,657.506226 
	C612.631348,641.015076 652.164551,585.441650 648.038208,523.158691 
	C647.414124,513.738647 647.951294,504.241730 647.951294,494.505676 
	C657.625732,494.505676 667.220215,494.505676 676.852661,494.505676 
	C677.035339,494.715912 677.438049,494.962708 677.439087,495.211182 
	C677.545410,520.452637 680.539917,545.812195 673.530945,570.724182 
	C658.648438,623.621033 625.228638,659.749207 574.582397,680.165649 
	C566.296082,683.506042 557.419800,685.382812 548.414490,687.895874 
z"/>
<path fill="#9FA471" opacity="1.000000" stroke="none" 
	d="
M521.641235,661.812256 
	C521.972778,662.017883 521.939148,662.514160 521.971497,663.091064 
	C521.971863,664.107666 521.939819,664.547363 521.686096,664.982239 
	C521.464417,664.977356 521.020386,664.957214 520.763733,664.686890 
	C519.011658,664.281860 517.516296,664.147217 515.653076,664.007202 
	C513.843323,665.326965 512.401367,666.651978 510.695190,668.197632 
	C507.999969,672.717834 505.344635,676.909851 503.215790,681.354065 
	C501.760101,684.393066 500.156677,687.775818 500.127930,691.018311 
	C499.894440,717.344971 500.017365,743.674805 500.021606,770.448486 
	C499.978699,779.820740 497.808472,782.629089 490.678680,782.806335 
	C485.937500,782.924255 481.188049,782.802124 476.451660,783.005615 
	C462.223114,783.616943 447.981964,784.098450 433.782043,785.130310 
	C428.234528,785.533386 422.628052,786.788391 417.326630,788.511414 
	C410.016693,790.887146 405.046631,795.810730 405.017853,804.099121 
	C404.991699,811.640320 403.582550,819.770813 405.896301,826.584290 
	C409.214539,836.355774 419.386627,837.909607 428.514709,838.892029 
	C438.861816,840.005676 449.288879,840.385742 459.684082,841.039001 
	C466.458710,841.464783 473.234100,841.979919 480.016846,842.153442 
	C493.280090,842.492859 506.548584,842.628601 519.815552,842.800598 
	C520.212524,842.805725 520.616455,842.274109 521.232178,842.001831 
	C521.447205,842.011047 521.876709,842.046082 521.948120,842.031250 
	C522.019470,842.016479 522.165039,842.025513 522.115356,842.356812 
	C522.103149,843.132568 522.140625,843.577148 522.154297,844.245239 
	C522.233459,844.756836 522.267944,845.052856 522.233948,845.356873 
	C514.603027,845.468140 506.954102,845.968811 499.344513,845.617310 
	C476.922150,844.581543 454.511414,843.272644 432.106018,841.908508 
	C427.981140,841.657349 423.849091,840.877930 419.812408,839.944336 
	C407.076813,836.998840 401.464569,830.156677 401.247925,817.021790 
	C401.166077,812.058350 401.534210,807.027039 402.306946,802.122681 
	C403.881287,792.130859 409.064026,786.579529 419.197266,785.173157 
	C432.516205,783.324707 445.932190,782.081970 459.340240,780.996155 
	C471.736664,779.992310 484.177612,779.538940 497.020660,778.819519 
	C497.127960,776.973694 497.302277,775.374023 497.301910,773.774414 
	C497.295685,747.474731 497.446259,721.172607 497.099731,694.877197 
	C497.026703,689.334656 497.854736,684.607605 500.997894,680.055298 
	C503.254547,676.786804 504.991425,673.146179 506.825104,669.601624 
	C511.372742,660.810974 511.341614,660.794861 521.641235,661.812256 
z"/>
<path fill="#596E56" opacity="1.000000" stroke="none" 
	d="
M430.349396,261.896088 
	C430.008820,246.433380 434.815613,232.365479 442.592651,219.319458 
	C457.372559,194.526123 479.329956,179.911194 507.758942,175.535294 
	C559.170471,167.621796 606.774780,203.858841 612.734131,253.837753 
	C612.278320,255.303299 612.135864,256.149902 611.716187,256.763000 
	C610.625977,253.360703 609.802612,250.194504 609.003357,247.022232 
	C608.418884,244.702148 608.165222,242.246841 607.241394,240.074081 
	C604.731323,234.170441 602.445618,228.080017 599.137207,222.630539 
	C595.093689,215.970306 591.065979,208.765244 585.303467,203.802017 
	C575.215332,195.113174 564.507324,186.718521 551.261780,182.997742 
	C543.210144,180.735992 535.079712,177.837372 526.858337,177.347916 
	C518.139587,176.828873 509.270660,178.818085 500.468964,179.727631 
	C499.644165,179.812851 498.776093,179.874512 498.020813,180.177948 
	C487.426208,184.434708 476.422913,187.788712 467.712250,195.838821 
	C459.568054,203.365387 450.262451,209.795883 446.400940,220.968323 
	C445.965820,222.227295 444.459778,223.090103 443.553528,224.219437 
	C442.591400,225.418488 441.401093,226.595612 440.921539,227.992157 
	C439.067017,233.392868 437.407227,238.862625 435.772766,244.335907 
	C434.758667,247.731750 433.809296,251.155472 433.041931,254.613495 
	C432.508087,257.019196 432.332703,259.504456 431.585144,261.942505 
	C430.898499,261.919281 430.623962,261.907684 430.349396,261.896088 
z"/>
<path fill="#9FA471" opacity="1.000000" stroke="none" 
	d="
M370.117188,255.759201 
	C370.756195,257.489197 371.302979,258.853394 371.849731,260.217590 
	C371.606049,260.485321 371.362366,260.753082 371.118683,261.020813 
	C343.920441,240.583908 316.722198,220.147003 289.523956,199.710098 
	C289.658020,199.400055 289.792114,199.090027 289.926208,198.779999 
	C325.950195,209.136780 361.974182,219.493576 397.998138,229.850357 
	C398.005402,230.051666 398.012634,230.252991 398.019867,230.454300 
	C390.777222,231.272110 383.534302,232.087646 376.292053,232.908768 
	C372.985657,233.283630 369.688599,233.783401 366.372559,234.018219 
	C363.093597,234.250412 362.392853,235.700729 363.564178,238.631500 
	C365.786224,244.191437 367.878662,249.803177 370.117188,255.759201 
M377.579926,230.276611 
	C378.930206,229.984848 380.280487,229.693069 381.630768,229.401306 
	C381.692841,228.893066 381.754913,228.384827 381.816986,227.876602 
	C356.148682,220.542770 330.480347,213.208939 304.812042,205.875107 
	C304.659912,206.369751 304.507782,206.864380 304.355652,207.359009 
	C324.236115,222.255585 344.116577,237.152161 363.997040,252.048721 
	C364.365356,251.794922 364.733673,251.541122 365.101990,251.287308 
	C364.104736,248.069214 363.355896,244.746796 362.057678,241.655060 
	C359.489044,235.537827 361.635651,231.686325 368.353912,231.053406 
	C371.152588,230.789764 373.971069,230.735947 377.579926,230.276611 
z"/>
<path fill="#596E56" opacity="1.000000" stroke="none" 
	d="
M546.060364,776.977539 
	C547.631226,777.749695 549.163574,779.098633 550.778748,779.206360 
	C570.876892,780.546875 590.999756,781.535950 611.086609,783.016846 
	C617.179626,783.466125 623.325562,784.662048 629.185791,786.398438 
	C635.208374,788.182861 640.075134,792.351013 640.986084,798.800598 
	C642.070007,806.474976 642.581787,814.355591 642.167114,822.083801 
	C641.672119,831.309753 635.910645,837.118164 626.957886,838.843994 
	C617.824646,840.604492 608.563171,841.978088 599.293945,842.691406 
	C584.190430,843.853699 569.034973,844.341553 553.138062,844.738342 
	C545.951599,844.238525 539.525330,844.197510 533.106750,843.954102 
	C530.062805,843.838745 527.033508,843.337219 524.261475,842.724365 
	C530.567932,842.300293 536.610352,842.157593 542.653259,842.033813 
	C543.146240,842.023743 543.640320,842.173218 544.136414,842.196106 
	C548.503174,842.397583 552.885620,842.905090 557.233948,842.699341 
	C562.597595,842.445557 567.921753,841.453674 573.282715,841.030518 
	C587.088440,839.940674 600.923401,839.182556 614.707642,837.879150 
	C619.734680,837.403870 624.803955,836.189087 629.560425,834.490173 
	C632.339172,833.497559 634.537903,830.881104 637.286255,828.854248 
	C638.044250,827.808228 638.513550,826.903137 638.988159,825.560852 
	C638.996460,823.083252 638.999451,821.042847 639.395630,818.910156 
	C641.288330,814.437134 642.731689,810.059998 638.738037,805.794434 
	C638.320618,804.725220 638.162781,803.864136 638.243347,802.823242 
	C637.489014,799.762146 637.258301,796.115051 635.318848,794.184753 
	C632.634583,791.513184 628.872070,789.371460 625.198608,788.371277 
	C618.998047,786.682922 612.541138,785.666870 606.127136,785.091309 
	C595.110229,784.102661 584.043396,783.670593 572.665039,783.004028 
	C571.889160,783.003723 571.445801,783.004333 570.652039,783.005249 
	C569.201904,783.334595 568.102173,783.663635 566.768555,783.722534 
	C565.356506,783.301575 564.178223,783.150757 562.625000,782.836426 
	C557.508118,782.122375 552.766296,781.571838 547.686340,781.014038 
	C546.897400,781.006165 546.446594,781.005554 545.729614,780.775269 
	C545.309631,779.396790 545.155701,778.247925 545.267761,777.080444 
	C545.709290,777.033691 545.884827,777.005615 546.060364,776.977539 
M631.516724,790.416260 
	C631.516724,790.416260 631.580322,790.523926 631.516724,790.416260 
z"/>
<path fill="#A0A861" opacity="1.000000" stroke="none" 
	d="
M402.107819,128.884964 
	C406.259583,132.405106 410.528137,135.797638 414.540771,139.469833 
	C425.678101,149.662308 436.708954,159.971161 447.330414,171.037888 
	C441.537781,168.945801 435.745148,166.853714 429.224396,164.498657 
	C429.224396,170.595856 429.224396,175.922440 429.224396,181.249023 
	C428.823730,181.358063 428.423065,181.467117 428.022400,181.576157 
	C419.297577,164.344330 410.572723,147.112488 401.913055,129.449814 
	C401.978210,129.018982 402.107819,128.884964 402.107819,128.884964 
z"/>
<path fill="#A0A861" opacity="1.000000" stroke="none" 
	d="
M626.786255,141.782104 
	C631.751404,137.257431 636.461487,132.979324 641.171509,128.701202 
	C641.489319,128.957367 641.807068,129.213531 642.124817,129.469711 
	C633.316345,146.995972 624.507812,164.522232 615.699280,182.048492 
	C615.444519,181.989746 615.189819,181.930984 614.935059,181.872238 
	C614.935059,176.335663 614.935059,170.799072 614.935059,164.606277 
	C609.560059,166.026718 604.701904,167.310577 599.843689,168.594437 
	C599.570129,168.156174 599.296570,167.717911 599.023071,167.279648 
	C608.192444,158.862656 617.361816,150.445648 626.786255,141.782104 
z"/>
<path fill="#596E56" opacity="1.000000" stroke="none" 
	d="
M547.801819,368.653809 
	C550.419922,367.369354 553.020325,365.014954 555.658813,364.971466 
	C574.940857,364.653992 594.230652,364.800415 613.911072,364.800415 
	C613.911072,373.533142 613.911072,382.255463 613.911072,391.156250 
	C613.609497,391.290466 613.178833,391.649536 612.747925,391.649841 
	C594.443665,391.662354 576.138916,391.711884 557.835449,391.584534 
	C552.471680,391.547180 547.337280,390.263855 545.084839,384.636200 
	C542.881958,379.132294 542.731934,373.618530 547.459656,369.161926 
	C547.421631,370.874329 547.123047,372.298950 546.471924,373.538330 
	C543.576904,379.048553 546.215271,385.687775 552.264465,387.717773 
	C563.719116,391.561737 575.524719,389.660767 587.206421,389.769226 
	C592.288940,389.816406 597.414612,389.454926 602.444458,389.992523 
	C611.262573,390.935028 612.994141,389.698364 612.991272,381.090424 
	C612.990601,379.093109 613.136230,377.079132 612.934448,375.101379 
	C612.087097,366.795929 611.151672,365.849609 602.718201,366.038910 
	C584.392944,366.450226 565.942200,364.352417 547.801819,368.653809 
z"/>
<path fill="#596E56" opacity="1.000000" stroke="none" 
	d="
M483.818115,279.272644 
	C487.627625,280.028625 491.413086,280.030029 494.206116,281.695648 
	C499.980896,285.139404 500.585724,290.368408 498.985016,297.560577 
	C497.998138,301.994690 492.889099,305.954956 487.468262,306.011047 
	C468.366425,306.208679 449.261322,306.087891 429.854218,306.087891 
	C429.854218,297.157898 429.854218,288.439117 429.854218,279.271576 
	C447.870697,279.271576 465.607727,279.271576 483.818115,279.272644 
M437.278992,303.051575 
	C440.458618,303.699005 443.638092,304.887238 446.817902,304.888092 
	C454.940155,304.890259 463.206635,303.283783 471.145477,304.343384 
	C479.530823,305.462646 486.634644,303.850006 493.690704,299.891724 
	C497.458160,297.778320 498.599823,294.714783 497.740295,290.675385 
	C496.652435,285.562866 490.822906,281.020844 485.211914,281.012207 
	C469.048340,280.987335 452.884735,280.994293 436.721161,281.017151 
	C435.281067,281.019196 433.841278,281.227570 431.847748,281.383392 
	C431.847748,286.850555 432.649628,292.081360 431.624634,296.925598 
	C430.577484,301.874603 432.300354,302.977325 437.278992,303.051575 
z"/>
<path fill="#455547" opacity="1.000000" stroke="none" 
	d="
M430.333374,262.309570 
	C430.623962,261.907684 430.898499,261.919281 432.052673,261.960419 
	C438.287537,261.987061 443.642761,261.984161 449.466736,261.988281 
	C457.955963,261.991730 465.976379,261.988159 474.434448,261.988861 
	C476.914215,261.989532 478.956360,261.985962 481.467285,261.987549 
	C523.508362,261.995758 565.080750,262.023499 606.652771,261.917114 
	C608.432373,261.912567 610.208801,260.667969 611.989624,259.625519 
	C611.992798,258.498840 611.993103,257.747681 611.993408,256.996521 
	C612.135864,256.149902 612.278320,255.303299 612.668823,254.247238 
	C613.136902,256.973969 613.356873,259.910156 613.634644,263.618195 
	C608.001221,263.618195 602.895325,263.619354 597.789368,263.618011 
	C542.857483,263.603546 487.925598,263.592743 432.993744,263.538635 
	C432.101349,263.537781 431.209503,263.006683 430.333374,262.309570 
z"/>
<path fill="#455547" opacity="1.000000" stroke="none" 
	d="
M547.830688,302.622742 
	C567.027466,307.670197 586.822449,303.734741 606.367249,305.086151 
	C611.686584,305.453979 613.054749,302.966675 613.008179,298.446899 
	C612.960205,293.794067 612.925598,289.138031 613.049744,284.487793 
	C613.118164,281.924042 612.140076,280.956665 609.556702,280.966919 
	C591.608276,281.038300 573.659302,280.988403 555.710938,281.061768 
	C553.922852,281.069092 552.137085,281.640961 549.884155,281.942230 
	C551.857666,281.061401 554.289185,279.459900 556.738220,279.432739 
	C575.660095,279.222534 594.585388,279.316925 613.821045,279.316925 
	C613.821045,288.471588 613.821045,297.039032 613.821045,306.149384 
	C611.599976,306.149384 609.341797,306.149658 607.083679,306.149353 
	C591.125122,306.147003 575.162231,306.342712 559.211182,305.995941 
	C555.453674,305.914246 551.736023,304.003632 547.830688,302.622742 
z"/>
<path fill="#455547" opacity="1.000000" stroke="none" 
	d="
M546.122437,776.513916 
	C545.884827,777.005615 545.709290,777.033691 545.263306,776.600342 
	C544.979675,767.756226 544.966553,759.373535 544.953430,750.990845 
	C545.051636,730.255615 545.149780,709.520325 545.540466,688.918213 
	C545.887024,691.699036 545.941101,694.346802 545.995117,696.994507 
	C546.058289,723.346436 546.121399,749.698364 546.122437,776.513916 
z"/>
<path fill="#455547" opacity="1.000000" stroke="none" 
	d="
M556.492188,348.983215 
	C557.771790,348.595734 559.509338,348.047943 561.249146,348.040833 
	C576.842712,347.977173 592.438354,347.884674 608.029358,348.098419 
	C611.984192,348.152649 613.305908,346.961670 613.078491,343.031738 
	C612.781860,337.906281 612.772278,332.736145 613.090454,327.613281 
	C613.289551,324.409210 612.328186,322.834381 609.077820,322.408752 
	C610.510437,322.033020 611.993652,321.963013 613.823120,321.876617 
	C613.823120,330.969208 613.823120,339.835663 613.823120,349.073608 
	C594.775208,349.073608 575.863159,349.073608 556.492188,348.983215 
z"/>
<path fill="#455547" opacity="1.000000" stroke="none" 
	d="
M523.997620,843.010620 
	C527.033508,843.337219 530.062805,843.838745 533.106750,843.954102 
	C539.525330,844.197510 545.951599,844.238525 552.675293,844.648071 
	C543.003967,845.144165 533.032104,845.354797 522.647095,845.461182 
	C522.267944,845.052856 522.233459,844.756836 522.340759,844.124756 
	C522.778259,843.574951 522.937012,843.325623 523.269775,843.024658 
	C523.512329,843.016602 523.997620,843.010620 523.997620,843.010620 
z"/>
<path fill="#596E56" opacity="1.000000" stroke="none" 
	d="
M546.109436,696.621704 
	C545.941101,694.346802 545.887024,691.699036 545.806091,688.619873 
	C545.779236,688.188416 546.260742,688.059204 546.502686,688.003296 
	C546.570984,690.714600 546.397339,693.481689 546.109436,696.621704 
z"/>
<path fill="#54714E" opacity="1.000000" stroke="none" 
	d="
M754.898315,199.714951 
	C754.505127,199.717621 754.288879,199.602325 754.072632,199.487030 
	C754.179871,199.395233 754.320801,199.205887 754.388367,199.229202 
	C754.630737,199.312912 754.848267,199.468552 754.898315,199.714951 
z"/>
<path fill="#A0A861" opacity="1.000000" stroke="none" 
	d="
M401.022522,127.973755 
	C400.816620,127.779892 400.595245,127.598724 400.417114,127.382027 
	C400.378784,127.335426 400.496582,127.160515 400.542480,127.044724 
	C400.675354,127.243813 400.808167,127.442909 400.969360,127.821732 
	C400.997742,128.001450 401.022522,127.973755 401.022522,127.973755 
z"/>
<path fill="#455547" opacity="1.000000" stroke="none" 
	d="
M546.584229,301.357056 
	C546.827209,301.248932 547.235291,301.438690 547.769592,301.948120 
	C547.513672,302.063538 547.131531,301.859222 546.584229,301.357056 
z"/>
<path fill="#A0A861" opacity="1.000000" stroke="none" 
	d="
M401.911804,129.084427 
	C401.584320,128.935028 401.323242,128.720169 401.042328,128.239532 
	C401.022522,127.973755 400.997742,128.001450 400.984253,128.014587 
	C401.292114,128.141098 401.613403,128.254456 402.021271,128.626389 
	C402.107819,128.884964 401.978210,129.018982 401.911804,129.084427 
z"/>
<path fill="#A0A861" opacity="1.000000" stroke="none" 
	d="
M642.546265,127.681938 
	C642.486145,127.743210 642.465698,127.531685 642.465698,127.531685 
	C642.465698,127.531685 642.606323,127.620667 642.546265,127.681938 
z"/>
<path fill="#4F7346" opacity="1.000000" stroke="none" 
	d="
M524.261475,842.724365 
	C523.997620,843.010620 523.512329,843.016602 523.174438,842.817017 
	C522.674072,842.350525 522.450195,842.153198 522.165039,842.025513 
	C522.165039,842.025513 522.019470,842.016479 521.996338,841.559814 
	C521.999817,814.500000 522.016846,787.896973 522.055603,761.293884 
	C522.098572,731.866272 522.161499,702.438599 522.513489,673.007019 
	C523.208313,672.999634 523.605408,672.996155 524.002441,672.992676 
	C524.003784,675.035095 524.005127,677.077515 524.004883,680.026733 
	C524.003784,703.695801 523.982300,726.458191 524.046326,749.220276 
	C524.051453,751.056335 524.643433,752.890686 524.962708,754.725830 
	C525.455872,754.655701 525.949036,754.585510 526.442200,754.515381 
	C526.790955,752.842224 527.139709,751.169006 527.488403,749.495850 
	C527.965027,749.245667 528.441589,748.995544 528.918213,748.745422 
	C529.947571,750.317566 531.106323,751.822754 531.964783,753.483276 
	C532.632324,754.774536 532.662231,756.427246 533.429504,757.629639 
	C537.302551,763.698853 541.103271,769.671570 541.219543,777.330261 
	C541.249512,779.303162 541.659790,783.397705 545.995728,781.004883 
	C546.446594,781.005554 546.897400,781.006165 547.715454,781.358276 
	C549.937439,783.608154 560.777222,785.275696 562.739319,783.924255 
	C562.942139,783.784424 562.918518,783.315918 563.000000,783.000000 
	C564.178223,783.150757 565.356506,783.301575 566.653809,784.004028 
	C566.693970,785.204773 566.615051,785.853943 566.358765,787.962891 
	C568.552002,785.621094 569.777222,784.312988 571.002441,783.004883 
	C571.445801,783.004333 571.889160,783.003723 572.702637,783.360840 
	C575.007629,788.085327 578.208435,789.863892 583.127563,790.126709 
	C593.563049,790.684204 603.963684,791.917358 614.369751,792.962402 
	C615.436707,793.069580 616.828979,793.484619 617.417358,794.255310 
	C622.649353,801.108765 630.517639,801.577087 638.004883,803.002991 
	C638.162781,803.864136 638.320618,804.725220 638.738647,806.257324 
	C639.000000,810.952942 639.001221,814.977722 639.002441,819.002441 
	C638.999451,821.042847 638.996460,823.083252 638.646240,825.615662 
	C637.865112,827.070129 637.431335,828.032593 636.997559,828.995117 
	C634.537903,830.881104 632.339172,833.497559 629.560425,834.490173 
	C624.803955,836.189087 619.734680,837.403870 614.707642,837.879150 
	C600.923401,839.182556 587.088440,839.940674 573.282715,841.030518 
	C567.921753,841.453674 562.597595,842.445557 557.233948,842.699341 
	C552.885620,842.905090 548.503174,842.397583 544.136414,842.196106 
	C543.640320,842.173218 543.146240,842.023743 542.653259,842.033813 
	C536.610352,842.157593 530.567932,842.300293 524.261475,842.724365 
z"/>
<path fill="#54794C" opacity="1.000000" stroke="none" 
	d="
M545.729614,780.775269 
	C541.659790,783.397705 541.249512,779.303162 541.219543,777.330261 
	C541.103271,769.671570 537.302551,763.698853 533.429504,757.629639 
	C532.662231,756.427246 532.632324,754.774536 531.964783,753.483276 
	C531.106323,751.822754 529.947571,750.317566 528.918213,748.745422 
	C528.441589,748.995544 527.965027,749.245667 527.488403,749.495850 
	C527.139709,751.169006 526.790955,752.842224 526.442200,754.515381 
	C525.949036,754.585510 525.455872,754.655701 524.962708,754.725830 
	C524.643433,752.890686 524.051453,751.056335 524.046326,749.220276 
	C523.982300,726.458191 524.003784,703.695801 524.006470,680.464355 
	C525.636108,678.044312 527.049988,675.848633 528.943481,674.205811 
	C531.214539,672.235657 533.034912,672.133789 534.330383,675.808350 
	C534.913086,677.461121 537.695312,678.338440 539.968506,679.904480 
	C540.564941,683.763611 541.372925,688.865173 542.125183,693.974976 
	C542.259277,694.885864 542.556091,696.128967 542.112488,696.714905 
	C536.163513,704.571533 539.884094,712.778381 541.139160,720.872742 
	C541.607544,723.893494 542.753357,726.847900 542.916565,729.868896 
	C543.211548,735.329895 542.917236,740.820251 543.053772,746.293762 
	C543.091431,747.805420 543.781982,749.300842 544.563232,750.897278 
	C544.966553,759.373535 544.979675,767.756226 544.997314,776.619019 
	C545.155701,778.247925 545.309631,779.396790 545.729614,780.775269 
z"/>
<path fill="#557B4D" opacity="1.000000" stroke="none" 
	d="
M524.001648,672.574646 
	C523.605408,672.996155 523.208313,672.999634 522.439514,672.566650 
	C522.014404,669.749268 521.961121,667.368164 521.907776,664.987122 
	C521.939819,664.547363 521.971863,664.107666 522.007202,663.337158 
	C522.673950,666.056458 523.337402,669.106567 524.001648,672.574646 
z"/>
<path fill="#B3C14D" opacity="1.000000" stroke="none" 
	d="
M611.997192,506.066589 
	C611.664917,520.015625 611.618408,533.488403 610.910828,546.926514 
	C610.335388,557.855530 605.503723,567.622009 600.803040,577.252502 
	C596.255554,586.568848 589.931152,594.690796 582.028748,601.444702 
	C570.728760,611.102356 558.382141,618.526978 543.711060,622.530762 
	C532.356018,625.629700 520.948486,626.235046 509.831360,624.660767 
	C494.625031,622.507263 480.342224,617.215271 468.057495,606.879822 
	C457.864136,598.303833 449.230591,588.623657 442.573395,577.316528 
	C437.207062,568.201904 433.466003,558.179871 433.055267,547.416443 
	C432.472107,532.135986 432.409729,516.836243 431.945496,501.550201 
	C431.824432,497.563354 432.979034,495.928375 437.272552,495.902863 
	C465.560913,495.734833 493.847290,495.217163 522.135620,495.073303 
	C532.758728,495.019257 543.383484,495.835388 554.010681,495.939911 
	C570.092163,496.098053 586.176392,495.971527 602.259460,495.983734 
	C612.893494,495.991821 611.991577,494.972748 611.997192,506.066589 
z"/>
<path fill="#A4B146" opacity="1.000000" stroke="none" 
	d="
M521.017090,841.992676 
	C520.616455,842.274109 520.212524,842.805725 519.815552,842.800598 
	C506.548584,842.628601 493.280090,842.492859 480.016846,842.153442 
	C473.234100,841.979919 466.458710,841.464783 459.684082,841.039001 
	C449.288879,840.385742 438.861816,840.005676 428.514709,838.892029 
	C419.386627,837.909607 409.214539,836.355774 405.896301,826.584290 
	C403.582550,819.770813 404.991699,811.640320 405.017853,804.099121 
	C405.046631,795.810730 410.016693,790.887146 417.326630,788.511414 
	C422.628052,786.788391 428.234528,785.533386 433.782043,785.130310 
	C447.981964,784.098450 462.223114,783.616943 476.451660,783.005615 
	C481.188049,782.802124 485.937500,782.924255 490.678680,782.806335 
	C497.808472,782.629089 499.978699,779.820740 500.372223,770.385986 
	C503.757294,765.664001 507.427429,767.033081 510.395721,768.724854 
	C516.042297,766.704956 509.508698,760.056824 515.633789,757.974609 
	C516.309814,760.167786 516.627502,762.153015 517.523987,763.828613 
	C518.360352,765.391846 519.811890,766.625916 520.994629,768.473022 
	C521.003479,793.291687 521.010315,817.642151 521.017090,841.992676 
z"/>
<path fill="#ACBB4A" opacity="1.000000" stroke="none" 
	d="
M520.992676,768.004883 
	C519.811890,766.625916 518.360352,765.391846 517.523987,763.828613 
	C516.627502,762.153015 516.309814,760.167786 515.633789,757.974609 
	C509.508698,760.056824 516.042297,766.704956 510.395721,768.724854 
	C507.427429,767.033081 503.757294,765.664001 500.382355,769.941162 
	C500.017365,743.674805 499.894440,717.344971 500.127930,691.018311 
	C500.156677,687.775818 501.760101,684.393066 503.215790,681.354065 
	C505.344635,676.909851 507.999969,672.717834 511.046265,668.172729 
	C513.114746,666.622314 514.567810,665.317383 516.020874,664.012512 
	C517.516296,664.147217 519.011658,664.281860 520.754517,665.160278 
	C520.998840,699.937622 520.995789,733.971252 520.992676,768.004883 
z"/>
<path fill="#B1BE57" opacity="1.000000" stroke="none" 
	d="
M520.994629,768.473022 
	C520.995789,733.971252 520.998840,699.937622 521.011108,665.430603 
	C521.020386,664.957214 521.464417,664.977356 521.686096,664.982239 
	C521.961121,667.368164 522.014404,669.749268 522.141724,672.570679 
	C522.161499,702.438599 522.098572,731.866272 522.055603,761.293884 
	C522.016846,787.896973 521.999817,814.500000 521.924927,841.574585 
	C521.876709,842.046082 521.447205,842.011047 521.232178,842.001831 
	C521.010315,817.642151 521.003479,793.291687 520.994629,768.473022 
z"/>
<path fill="#B1BE57" opacity="1.000000" stroke="none" 
	d="
M515.653076,664.007202 
	C514.567810,665.317383 513.114746,666.622314 511.310547,667.952026 
	C512.401367,666.651978 513.843323,665.326965 515.653076,664.007202 
z"/>
<path fill="#557B4D" opacity="1.000000" stroke="none" 
	d="
M522.115356,842.356812 
	C522.450195,842.153198 522.674072,842.350525 522.931946,842.825073 
	C522.937012,843.325623 522.778259,843.574951 522.364502,843.901123 
	C522.140625,843.577148 522.103149,843.132568 522.115356,842.356812 
z"/>
<path fill="#507446" opacity="1.000000" stroke="none" 
	d="
M448.997986,261.981262 
	C443.642761,261.984161 438.287537,261.987061 432.464752,261.972076 
	C432.332703,259.504456 432.508087,257.019196 433.041931,254.613495 
	C433.809296,251.155472 434.758667,247.731750 435.772766,244.335907 
	C437.407227,238.862625 439.067017,233.392868 440.921539,227.992157 
	C441.401093,226.595612 442.591400,225.418488 443.553528,224.219437 
	C444.459778,223.090103 445.965820,222.227295 446.400940,220.968323 
	C450.262451,209.795883 459.568054,203.365387 467.712250,195.838821 
	C476.422913,187.788712 487.426208,184.434708 498.020813,180.177948 
	C498.776093,179.874512 499.644165,179.812851 500.468964,179.727631 
	C509.270660,178.818085 518.139587,176.828873 526.858337,177.347916 
	C535.079712,177.837372 543.210144,180.735992 551.261780,182.997742 
	C564.507324,186.718521 575.215332,195.113174 585.303467,203.802017 
	C591.065979,208.765244 595.093689,215.970306 599.137207,222.630539 
	C602.445618,228.080017 604.731323,234.170441 607.241394,240.074081 
	C608.165222,242.246841 608.418884,244.702148 609.003357,247.022232 
	C609.802612,250.194504 610.625977,253.360703 611.716187,256.763000 
	C611.993103,257.747681 611.992798,258.498840 611.533691,259.624390 
	C601.391113,260.329254 591.707336,260.920227 582.023499,260.919220 
	C571.674500,260.918152 561.326294,260.146332 550.976318,260.111481 
	C543.037903,260.084747 535.095459,260.983704 527.158325,260.931458 
	C513.397034,260.840912 499.639313,260.263702 485.877563,260.092499 
	C484.259308,260.072327 482.625275,261.321564 480.998535,261.982361 
	C478.956360,261.985962 476.914215,261.989532 474.148560,261.700745 
	C466.564209,260.940338 459.707489,260.361633 452.838745,260.104858 
	C451.583618,260.057922 450.279510,261.322235 448.997986,261.981262 
z"/>
<path fill="#A4B146" opacity="1.000000" stroke="none" 
	d="
M377.180237,230.431671 
	C373.971069,230.735947 371.152588,230.789764 368.353912,231.053406 
	C361.635651,231.686325 359.489044,235.537827 362.057678,241.655060 
	C363.355896,244.746796 364.104736,248.069214 365.101990,251.287308 
	C364.733673,251.541122 364.365356,251.794922 363.997040,252.048721 
	C344.116577,237.152161 324.236115,222.255585 304.355652,207.359009 
	C304.507782,206.864380 304.659912,206.369751 304.812042,205.875107 
	C330.480347,213.208939 356.148682,220.542770 381.816986,227.876602 
	C381.754913,228.384827 381.692841,228.893066 381.630768,229.401306 
	C380.280487,229.693069 378.930206,229.984848 377.180237,230.431671 
z"/>
<path fill="#54794C" opacity="1.000000" stroke="none" 
	d="
M638.243347,802.823242 
	C630.517639,801.577087 622.649353,801.108765 617.417358,794.255310 
	C616.828979,793.484619 615.436707,793.069580 614.369751,792.962402 
	C603.963684,791.917358 593.563049,790.684204 583.127563,790.126709 
	C578.208435,789.863892 575.007629,788.085327 573.035156,783.361694 
	C584.043396,783.670593 595.110229,784.102661 606.127136,785.091309 
	C612.541138,785.666870 618.998047,786.682922 625.198608,788.371277 
	C628.872070,789.371460 632.634583,791.513184 635.318848,794.184753 
	C637.258301,796.115051 637.489014,799.762146 638.243347,802.823242 
z"/>
<path fill="#54794C" opacity="1.000000" stroke="none" 
	d="
M562.625000,782.836426 
	C562.918518,783.315918 562.942139,783.784424 562.739319,783.924255 
	C560.777222,785.275696 549.937439,783.608154 548.053528,781.365479 
	C552.766296,781.571838 557.508118,782.122375 562.625000,782.836426 
z"/>
<path fill="#54794C" opacity="1.000000" stroke="none" 
	d="
M639.395630,818.910156 
	C639.001221,814.977722 639.000000,810.952942 638.998169,806.465332 
	C642.731689,810.059998 641.288330,814.437134 639.395630,818.910156 
z"/>
<path fill="#54794C" opacity="1.000000" stroke="none" 
	d="
M570.652039,783.005249 
	C569.777222,784.312988 568.552002,785.621094 566.358765,787.962891 
	C566.615051,785.853943 566.693970,785.204773 566.887634,784.274170 
	C568.102173,783.663635 569.201904,783.334595 570.652039,783.005249 
z"/>
<path fill="#54794C" opacity="1.000000" stroke="none" 
	d="
M637.286255,828.854187 
	C637.431335,828.032593 637.865112,827.070129 638.640869,826.052856 
	C638.513550,826.903137 638.044250,827.808228 637.286255,828.854187 
z"/>
<path fill="#54794C" opacity="1.000000" stroke="none" 
	d="
M631.548523,790.470093 
	C631.580322,790.523926 631.516724,790.416260 631.548523,790.470093 
z"/>
<path fill="#577B4F" opacity="1.000000" stroke="none" 
	d="
M547.823486,368.701294 
	C565.942200,364.352417 584.392944,366.450226 602.718201,366.038910 
	C611.151672,365.849609 612.087097,366.795929 612.934448,375.101379 
	C613.136230,377.079132 612.990601,379.093109 612.991272,381.090424 
	C612.994141,389.698364 611.262573,390.935028 602.444458,389.992523 
	C597.414612,389.454926 592.288940,389.816406 587.206421,389.769226 
	C575.524719,389.660767 563.719116,391.561737 552.264465,387.717773 
	C546.215271,385.687775 543.576904,379.048553 546.471924,373.538330 
	C547.123047,372.298950 547.421631,370.874329 547.816345,369.121033 
	C547.750244,368.707092 547.845093,368.748810 547.823486,368.701294 
z"/>
<path fill="#557B4D" opacity="1.000000" stroke="none" 
	d="
M436.856934,303.030884 
	C432.300354,302.977325 430.577484,301.874603 431.624634,296.925598 
	C432.649628,292.081360 431.847748,286.850555 431.847748,281.383392 
	C433.841278,281.227570 435.281067,281.019196 436.721161,281.017151 
	C452.884735,280.994293 469.048340,280.987335 485.211914,281.012207 
	C490.822906,281.020844 496.652435,285.562866 497.740295,290.675385 
	C498.599823,294.714783 497.458160,297.778320 493.690704,299.891724 
	C486.634644,303.850006 479.530823,305.462646 471.145477,304.343384 
	C463.206635,303.283783 454.940155,304.890259 446.817902,304.888092 
	C443.638092,304.887238 440.458618,303.699005 436.856934,303.030884 
z"/>
<path fill="#596E56" opacity="1.000000" stroke="none" 
	d="
M481.467285,261.987549 
	C482.625275,261.321564 484.259308,260.072327 485.877563,260.092499 
	C499.639313,260.263702 513.397034,260.840912 527.158325,260.931458 
	C535.095459,260.983704 543.037903,260.084747 550.976318,260.111481 
	C561.326294,260.146332 571.674500,260.918152 582.023499,260.919220 
	C591.707336,260.920227 601.391113,260.329254 611.530823,259.999939 
	C610.208801,260.667969 608.432373,261.912567 606.652771,261.917114 
	C565.080750,262.023499 523.508362,261.995758 481.467285,261.987549 
z"/>
<path fill="#596E56" opacity="1.000000" stroke="none" 
	d="
M449.466736,261.988281 
	C450.279510,261.322235 451.583618,260.057922 452.838745,260.104858 
	C459.707489,260.361633 466.564209,260.940338 473.710938,261.696533 
	C465.976379,261.988159 457.955963,261.991730 449.466736,261.988281 
z"/>
</svg>