<svg fill="#000000" version="1.1" id="Capa_1" xmlns="http://www.w3.org/2000/svg" xmlns:xlink="http://www.w3.org/1999/xlink" viewBox="0 0 123.596 123.596" xml:space="preserve"><g id="SVGRepo_bgCarrier" stroke-width="0"></g><g id="SVGRepo_tracerCarrier" stroke-linecap="round" stroke-linejoin="round"></g><g id="SVGRepo_iconCarrier"> <g> <g> <circle cx="65.4" cy="15.975" r="15.975"></circle> <rect x="26.921" y="79.222" width="69.292" height="44.374"></rect> <path d="M95.77,71.074c3.304-21.061-13.661-31.489-20.041-35.402c-0.206-0.125-0.427-0.211-0.641-0.309 c-1.751-1.151-3.71-1.995-5.707-2.487l-3.977,4.01l-3.86-4.05c-0.015,0-0.027,0-0.042,0.005c-1.911,0.455-3.792,1.251-5.49,2.32 c-0.422,0.126-0.842,0.293-1.244,0.521c-2.474,1.392-4.826,1.662-7.403,0.86c-3.327-1.037-6.563-3.661-9.417-6.75l-5.196-6.613 c-1.923-2.833-3.398-5.451-4.199-7.094c-1.496-3.081-5.208-4.364-8.29-2.87c-3.08,1.494-4.367,5.208-2.87,8.29 c0.803,1.653,6.433,12.813,15.359,20.504v0.003c0.444-0.584,1.01-1.076,1.689-1.397l4.465-2.098 c0.616-0.285,1.275-0.433,1.951-0.433c1.78,0,3.412,1.037,4.165,2.647c0.52,1.105,0.576,2.354,0.159,3.51 c-0.417,1.153-1.257,2.077-2.367,2.595l-1.451,0.682c0.749,0.321,1.506,0.614,2.286,0.858c1.794,0.561,3.6,0.875,5.401,0.968 v21.73H27.946C28.054,66.195,29,53.266,35.867,46.99c0.517,0.143,1.083,0.116,1.609-0.13l4.467-2.098 c1.169-0.544,1.672-1.941,1.123-3.111c-0.546-1.168-1.941-1.671-3.111-1.121l-4.468,2.098c-0.708,0.33-1.166,0.97-1.301,1.685 c-8.25,7.064-9.278,21.421-9.366,26.761h-5.789v4.806h87.796v-4.806H95.77L95.77,71.074z M65.439,68.503h-0.073l-3.853-5.274 l3.853-25.753h0.073l3.854,25.753L65.439,68.503z M83.112,71.074h-1.36V57.802C83.629,61.354,84.339,65.666,83.112,71.074z"></path> </g> </g> </g></svg>