<svg version="1.1" id="Layer_1" xmlns="http://www.w3.org/2000/svg" xmlns:xlink="http://www.w3.org/1999/xlink" x="0px" y="0px"
	 width="100%" viewBox="0 0 1024 1024" enable-background="new 0 0 1024 1024" xml:space="preserve">
<path fill="#000000" opacity="1.000000" stroke="none" 
	d="
M592.000000,1025.000000 
	C394.666656,1025.000000 197.833328,1025.000000 1.000000,1025.000000 
	C1.000000,683.666687 1.000000,342.333344 1.000000,1.000000 
	C342.333344,1.000000 683.666687,1.000000 1025.000000,1.000000 
	C1025.000000,342.333344 1025.000000,683.666687 1025.000000,1025.000000 
	C880.833313,1025.000000 736.666687,1025.000000 592.000000,1025.000000 
M398.977844,627.019775 
	C398.977844,627.019775 398.901978,627.032471 399.028656,627.575195 
	C399.340179,627.751099 399.651672,627.927063 399.982697,628.028442 
	C399.982697,628.028442 399.905640,628.027893 400.037842,628.576538 
	C400.343201,628.780945 400.648529,628.985413 401.165863,629.661621 
	C401.494507,630.052063 401.823151,630.442505 402.059052,631.543030 
	C404.676514,634.388855 407.293945,637.234680 409.988037,640.057129 
	C409.988037,640.057129 409.912933,640.032898 410.038940,640.572693 
	C410.350372,640.742981 410.661835,640.913269 410.987640,641.011841 
	C410.987640,641.011841 410.917023,641.030579 411.059174,641.556274 
	C411.363525,641.729736 411.667877,641.903198 411.991760,642.008545 
	C411.991760,642.008545 411.923828,642.028625 412.061340,642.555237 
	C412.365814,642.727722 412.670288,642.900208 412.989563,643.000488 
	C412.989563,643.000488 412.940674,643.056641 413.163483,643.691528 
	C418.413391,648.155518 423.663269,652.619507 429.000000,657.005554 
	C429.000000,657.005554 428.916290,657.091858 429.145355,657.741272 
	C431.735718,659.524170 434.326080,661.307068 436.996429,663.036133 
	C436.996429,663.036133 436.901398,663.046753 437.065033,663.606995 
	C437.410950,663.694763 437.756836,663.782593 438.463623,663.965149 
	C438.463623,663.965149 438.832977,664.018066 439.117981,664.679321 
	C443.726105,667.149109 448.334259,669.618896 453.005524,672.015625 
	C453.005524,672.015625 452.927765,672.067566 453.196381,672.722961 
	C457.109558,674.518066 461.022736,676.313171 465.003357,678.016846 
	C465.003357,678.016846 464.914978,678.085815 465.218384,678.748413 
	C470.569580,680.540833 476.097748,681.942810 481.210907,684.260376 
	C484.726105,685.853638 486.830261,684.601868 488.278412,682.083679 
	C492.371094,674.966980 496.113190,667.648682 500.299194,659.839355 
	C494.937439,658.185547 490.257111,656.973389 485.749023,655.297791 
	C478.768646,652.703186 471.905762,649.792480 465.000397,647.000000 
	C465.000397,647.000000 464.986145,647.008972 464.728943,646.362061 
	C461.488342,644.573059 458.247742,642.784119 455.000000,641.000000 
	C455.000000,641.000000 455.004333,640.991821 454.767700,640.338806 
	C440.649048,630.991211 428.706207,619.435608 418.986725,605.536072 
	C403.707336,583.685364 395.718292,559.585144 396.016876,532.826599 
	C396.068817,528.171082 395.867218,523.512817 395.881592,518.265198 
	C395.841309,517.869873 395.801025,517.474609 395.893890,516.510315 
	C395.844055,516.322021 395.794189,516.133667 395.863037,515.317444 
	C395.907074,514.893982 395.951111,514.470581 396.762787,513.618958 
	C396.841034,508.461121 396.832245,503.299896 397.030731,498.146698 
	C397.146332,495.144928 395.951202,493.940521 392.944275,493.976868 
	C385.612793,494.065491 378.278870,494.013794 370.946594,493.946594 
	C367.667542,493.916565 366.071442,495.393066 365.958374,498.695862 
	C365.652649,507.624390 364.582550,516.588135 365.073639,525.468323 
	C365.822205,539.005615 366.602295,552.692322 369.282990,565.927917 
	C371.831329,578.510132 375.854553,590.974670 382.997040,601.998413 
	C382.997040,601.998413 382.933289,602.043457 382.963776,602.783752 
	C386.621429,608.542908 390.279083,614.302002 393.995728,619.998108 
	C393.995728,619.998108 393.926056,620.053589 393.944031,620.757874 
	C395.265656,622.525574 396.587250,624.293274 397.957764,626.053406 
	C397.957764,626.053406 397.929932,626.036438 398.051361,626.569763 
	C398.356720,626.745178 398.662109,626.920593 398.977844,627.019775 
M504.896606,673.885193 
	C504.896606,673.885193 504.897247,674.035950 504.280365,674.276306 
	C503.545471,675.815796 502.810577,677.355286 501.915863,678.905029 
	C501.915863,678.905029 501.907837,679.064941 501.281097,679.371582 
	C496.524719,685.029724 496.957123,691.801514 496.980133,698.569824 
	C497.065033,723.551453 497.021729,748.533630 497.026550,773.515564 
	C497.026886,775.270630 497.026611,777.025635 497.026611,778.547058 
	C484.797668,779.419800 473.305664,780.226807 461.815765,781.063354 
	C448.548279,782.029358 435.219299,782.517944 422.038452,784.178040 
	C413.167633,785.295410 404.477142,788.497803 402.675201,798.983887 
	C401.456512,806.075928 400.675507,813.471741 401.290466,820.594238 
	C402.113464,830.126648 407.323578,837.093201 417.396271,839.039246 
	C425.030029,840.514160 432.679504,842.395630 440.396027,842.856506 
	C458.387787,843.931213 476.425140,844.233948 494.441467,844.917236 
	C496.885132,845.009827 499.319427,845.782410 501.748749,845.737488 
	C508.489136,845.612671 515.224609,845.222534 522.151306,845.422729 
	C522.447388,845.577759 522.743530,845.732727 523.910522,846.005920 
	C527.170166,845.620361 530.421509,845.006714 533.690857,844.886658 
	C553.380737,844.163757 573.084839,843.763184 592.763245,842.819214 
	C602.758301,842.339722 612.755432,841.273804 622.666565,839.871582 
	C631.024353,838.689087 639.478455,836.108704 641.462891,826.578857 
	C642.957642,819.400208 643.166443,811.727173 642.558044,804.389404 
	C641.610474,792.961060 634.420776,786.457703 623.267822,784.683472 
	C613.892456,783.191956 604.465942,781.782043 595.007080,781.110596 
	C580.006653,780.045654 564.960205,779.630432 549.933960,778.924500 
	C549.142700,778.887329 548.358337,778.701843 547.344666,778.552063 
	C547.344666,748.384338 547.344666,718.479309 547.344666,689.363892 
	C558.597778,685.669067 569.716431,683.045288 579.958862,678.463135 
	C610.874573,664.632751 636.323669,644.220947 654.580811,615.111816 
	C670.693604,589.421570 678.491272,561.524536 678.929443,531.468384 
	C679.100708,519.714355 678.250305,507.945038 677.826843,496.184052 
	C677.805054,495.579712 677.420471,494.988403 677.240845,494.490845 
	C667.119446,494.490845 657.227173,494.490845 647.180664,494.490845 
	C647.180664,497.597382 647.180664,500.253357 647.067566,503.622864 
	C647.091370,504.102814 647.115173,504.582733 647.031128,505.981934 
	C647.070190,510.962677 647.109253,515.943420 647.196533,521.768982 
	C647.449097,523.727356 647.967834,525.694092 647.906067,527.642517 
	C647.691040,534.426147 647.995483,541.336365 646.773621,547.953125 
	C644.718079,559.084229 642.858032,570.507019 638.731995,580.943848 
	C631.411743,599.460388 619.836853,615.419922 604.748596,628.687500 
	C589.984070,641.670471 573.304932,651.547729 554.439453,656.667786 
	C543.614441,659.605713 532.011230,659.676453 519.919495,661.021851 
	C512.383057,659.426636 509.014496,663.854065 506.285797,670.316345 
	C505.873016,671.505066 505.460205,672.693787 504.896606,673.885193 
M613.813293,279.644836 
	C613.813293,279.644836 613.824951,279.644684 612.977722,279.264740 
	C593.831238,279.197449 574.683228,278.962921 555.539124,279.146027 
	C547.991150,279.218201 541.826660,288.457794 543.880005,295.723602 
	C546.086060,303.529785 549.060730,305.630280 558.681274,306.630127 
	C576.310486,306.747467 593.940369,306.946594 611.567200,306.794189 
	C612.716614,306.784241 614.740601,304.126770 614.824524,302.615692 
	C615.193054,295.975922 615.047302,289.304108 614.954468,282.645813 
	C614.940247,281.629547 614.225220,280.623047 613.813293,279.644836 
M707.551453,781.496033 
	C708.035217,781.616943 708.518738,781.842896 709.002686,781.843811 
	C744.134460,781.908691 779.266235,781.947571 814.398010,782.015869 
	C818.239380,782.023315 819.308044,779.685059 819.103455,776.475281 
	C818.819458,772.020691 818.295166,767.581299 817.935120,762.182861 
	C817.955017,761.516541 817.992371,760.850220 817.992371,760.183899 
	C817.990662,657.857178 817.987061,555.530457 817.969299,453.203766 
	C817.969177,452.200928 817.778503,451.198151 817.676819,450.195343 
	C817.456665,450.209808 817.236450,450.224274 817.016296,450.238739 
	C817.016296,452.045074 817.016418,453.851410 817.016235,455.657745 
	C817.010193,520.986877 816.988342,586.315979 817.004089,651.645081 
	C817.013000,688.808350 817.083496,725.971558 817.110107,764.044983 
	C817.078247,768.198181 816.945129,772.353943 817.047363,776.503845 
	C817.124817,779.647461 815.892517,780.994507 812.664062,780.985779 
	C777.445984,780.890381 742.227783,780.867126 707.043457,779.909485 
	C707.043457,685.388184 707.043457,590.866943 707.043457,496.345673 
	C706.696777,496.345978 706.350159,496.346252 706.003479,496.346558 
	C706.003479,497.164398 706.003601,497.982208 706.003418,498.800049 
	C705.986816,591.090759 705.965149,683.381531 705.990601,775.672241 
	C705.991089,777.450928 706.545654,779.229492 707.551453,781.496033 
M604.262268,162.013031 
	C600.896851,165.048096 597.531372,168.083176 594.165955,171.118256 
	C600.054321,169.966492 605.379211,168.070297 610.598694,165.918289 
	C614.557007,164.286255 615.183472,166.266220 615.019165,169.504333 
	C614.799072,173.843796 614.614197,178.185043 614.414185,182.525528 
	C614.861389,182.656494 615.308655,182.787460 615.755920,182.918411 
	C625.066711,164.499878 634.377441,146.081345 644.289062,126.474213 
	C642.173706,127.251648 641.437378,127.312515 641.014587,127.708366 
	C630.632080,137.429657 620.282776,147.186462 609.324524,157.183105 
	C607.871582,158.777054 606.418640,160.370987 604.262268,162.013031 
M547.083862,429.556183 
	C547.365662,429.729828 547.647400,429.903473 548.256653,430.726624 
	C551.208740,431.816284 554.145386,433.797119 557.115540,433.848785 
	C574.406677,434.149689 591.705750,433.997528 609.002136,433.998505 
	C610.915100,433.998596 612.828003,433.998535 614.994995,433.998535 
	C614.994995,425.706177 614.950317,418.233917 615.018066,410.762634 
	C615.043335,407.983704 613.833313,406.966125 611.093567,406.974823 
	C592.633240,407.033478 574.170898,406.867004 555.713013,407.087494 
	C550.986877,407.143890 546.314331,408.967041 544.699707,413.921844 
	C543.010925,419.104340 542.058655,424.639404 547.083862,429.556183 
M613.705872,262.415527 
	C613.453003,257.392120 613.200134,252.368729 612.383423,246.650406 
	C608.399963,228.868927 600.129211,213.315872 587.008301,200.728134 
	C581.495789,195.439560 574.898132,191.164032 568.403809,187.042358 
	C556.402222,179.425385 543.024048,175.314453 528.953430,174.061356 
	C516.543518,172.956146 504.292053,174.784744 492.487762,178.805069 
	C464.519043,188.330704 444.923889,206.590027 434.986725,234.695251 
	C431.660339,244.103256 428.662659,253.591690 430.892029,264.033478 
	C432.090363,264.033478 433.081818,264.033600 434.073273,264.033447 
	C492.368378,264.023560 550.663452,264.020630 608.958496,263.961426 
	C610.345886,263.960022 611.732605,263.328552 613.705872,262.415527 
M656.320984,226.118378 
	C652.832764,227.158493 649.344543,228.198624 645.856323,229.238739 
	C645.937988,229.716568 646.019653,230.194382 646.101318,230.672195 
	C647.787537,230.672195 649.473816,230.672195 651.804260,231.179718 
	C661.026489,232.385712 670.248779,233.591721 680.608215,234.946426 
	C677.707397,243.414856 674.829712,251.815643 671.577271,261.310577 
	C700.179138,240.420044 727.798462,220.247177 755.417786,200.074295 
	C753.491211,199.261475 751.937439,199.321259 750.477600,199.722565 
	C731.995361,204.803467 713.502563,209.849106 695.067566,215.097092 
	C688.667297,216.919083 682.418579,219.273438 675.317932,221.214905 
	C669.927185,222.940826 664.536438,224.666763 658.462463,226.349258 
	C658.006592,226.334183 657.550659,226.319122 656.320984,226.118378 
M600.214966,322.233215 
	C585.679871,322.216309 571.144714,322.183044 556.609619,322.190338 
	C550.604919,322.193359 546.700928,324.899384 544.428528,330.361572 
	C544.325806,332.898193 544.223145,335.434814 544.138611,338.630524 
	C544.161194,339.068939 544.183716,339.507324 544.121521,340.661469 
	C546.242981,345.391937 549.399536,348.711823 555.766846,348.732849 
	C556.257751,348.792450 556.748718,348.852081 557.650391,349.626801 
	C563.614380,349.743225 569.578430,349.911102 575.542236,349.902313 
	C576.190247,349.901367 576.836731,348.879913 578.478760,348.495300 
	C582.887512,348.512329 587.296265,348.529388 591.912109,349.324585 
	C598.675049,349.540161 605.438538,349.866241 612.200256,349.834106 
	C613.063171,349.830048 614.626160,347.982361 614.662292,346.946777 
	C614.929138,339.306091 615.127563,331.645599 614.832581,324.011200 
	C614.713196,320.920013 612.844788,319.382416 609.463440,322.301941 
	C609.246155,322.229492 609.028809,322.157043 608.450256,321.398132 
	C606.024231,321.692841 603.598206,321.987549 600.214966,322.233215 
M577.447754,608.931213 
	C578.288879,608.444641 579.223083,608.069214 579.957092,607.454712 
	C589.299316,599.633240 596.989685,590.416809 602.928223,579.780823 
	C608.877808,569.125000 612.876221,557.622253 613.747375,545.559265 
	C614.856995,530.194519 614.458923,514.725159 614.933228,499.307739 
	C615.075562,494.680328 613.676636,492.983856 608.755005,493.006531 
	C569.618652,493.187134 530.481018,493.101501 491.343811,493.096344 
	C472.191528,493.093811 453.039154,493.108307 433.886993,493.062683 
	C431.134827,493.056152 428.899750,493.198273 429.039551,496.914459 
	C429.729645,515.255066 427.955475,533.620056 430.967773,551.959900 
	C434.175568,571.489746 443.724487,587.476929 457.097656,601.216064 
	C465.031097,609.366577 474.457489,616.093018 485.174011,620.523193 
	C502.661285,627.752319 520.658569,629.966064 539.368225,626.245056 
	C553.215149,623.491089 565.506775,617.507446 577.447754,608.931213 
M491.645508,322.329529 
	C486.399658,321.928650 481.157257,321.277771 475.906891,321.205353 
	C471.647339,321.146576 467.381195,322.008240 463.112732,322.064850 
	C453.291534,322.195160 443.465027,322.194672 433.645111,322.010529 
	C430.169739,321.945374 428.878235,323.105347 429.017334,326.619995 
	C429.234406,332.105042 429.037262,337.605560 429.063477,343.099304 
	C429.091217,348.913696 430.093781,350.019135 436.076996,349.928986 
	C453.176056,349.671295 470.278687,349.440430 487.368195,348.856628 
	C494.014557,348.629547 498.746948,347.251770 500.764404,336.292908 
	C501.666321,331.393646 498.007935,325.559235 491.645508,322.329529 
M499.667572,372.224884 
	C496.488892,366.361053 491.078430,364.213409 484.914886,364.141998 
	C468.593933,363.952911 452.269348,364.072144 435.946198,364.082855 
	C430.328644,364.086548 429.206909,365.168274 429.083771,371.073944 
	C428.972687,376.401733 429.218811,381.740936 428.982941,387.060730 
	C428.819397,390.748810 430.152740,392.048248 433.862244,392.021057 
	C451.017426,391.895111 468.174347,392.035248 485.330170,391.963470 
	C494.155426,391.926544 498.461578,388.564789 500.293396,380.087860 
	C500.776062,377.854248 500.065674,375.362762 499.667572,372.224884 
M548.024170,388.379944 
	C552.372864,389.519623 556.699158,391.530304 561.074341,391.643219 
	C577.203918,392.059448 593.351379,391.731201 609.488220,391.957886 
	C613.258240,392.010834 614.612793,390.437439 614.676575,387.120026 
	C614.795044,380.962341 614.846985,374.802917 614.870117,368.644012 
	C614.881104,365.724030 613.666626,364.043121 610.414429,364.050476 
	C593.100952,364.089722 575.783691,363.831909 558.475769,364.136261 
	C552.864868,364.234924 546.621643,365.579468 544.897522,371.918671 
	C543.455994,377.218536 542.160767,383.305908 548.024170,388.379944 
M493.333099,450.889130 
	C490.833008,450.286072 488.337463,449.183197 485.832092,449.160461 
	C468.691986,449.005005 451.548187,449.202484 434.409363,448.986359 
	C430.083221,448.931793 429.001129,450.784485 429.071289,454.554565 
	C429.176575,460.210083 429.293701,465.881775 428.981750,471.523163 
	C428.756439,475.597839 430.020020,477.076233 434.259003,477.028473 
	C451.231812,476.837250 468.212585,477.163971 485.179749,476.800842 
	C488.830750,476.722717 493.078888,475.404694 495.935394,473.206696 
	C502.561859,468.107910 501.347473,457.208008 493.333099,450.889130 
M610.946167,449.104706 
	C593.475037,449.091431 576.003906,449.044281 558.532898,449.083527 
	C552.561157,449.096924 545.916992,453.042114 544.391479,457.250549 
	C542.639954,462.082458 544.067078,470.755585 547.973450,473.149475 
	C551.281799,475.176971 555.458740,476.718994 559.288208,476.803650 
	C576.251465,477.178680 593.228638,476.874298 610.199280,477.003418 
	C613.725830,477.030212 614.910278,475.447388 614.912292,472.327820 
	C614.915955,466.670868 615.166260,460.993591 614.744873,455.367401 
	C614.584900,453.232117 612.854858,451.214386 610.946167,449.104706 
M429.008118,296.442688 
	C429.002075,297.772888 428.995911,299.103088 428.989990,300.433289 
	C428.961090,306.929413 428.963928,307.064270 435.694153,306.923798 
	C439.116577,306.852386 442.524109,305.885559 445.942993,305.855774 
	C459.742035,305.735474 473.543304,305.764496 487.342926,305.856781 
	C494.487518,305.904541 499.675110,301.526459 499.917877,294.950531 
	C500.254517,285.829865 495.648468,279.179840 488.253113,279.100189 
	C469.799255,278.901459 451.341461,279.076752 432.885345,279.056702 
	C430.135986,279.053711 428.979401,280.288391 429.019531,282.992981 
	C429.081177,287.148682 429.017670,291.306274 429.008118,296.442688 
M458.500000,433.921906 
	C467.824066,433.927338 477.148224,433.913269 486.472198,433.944519 
	C493.613892,433.968445 499.595032,429.195984 499.957367,423.285980 
	C500.701324,411.151215 496.285217,407.599854 487.555481,407.286011 
	C469.264099,406.628387 450.931793,407.036316 432.618652,407.229675 
	C431.433044,407.242218 429.289276,409.114990 429.249115,410.184723 
	C428.957733,417.943573 429.092560,425.718414 429.092560,433.921478 
	C438.928802,433.921478 448.214386,433.921478 458.500000,433.921906 
M367.020081,247.313995 
	C365.741333,243.544647 364.462616,239.775314 362.971802,235.380844 
	C375.144165,233.719589 386.669067,232.146698 398.193970,230.573807 
	C398.246674,230.252975 398.299408,229.932159 398.352112,229.611328 
	C362.346588,219.286224 326.341034,208.961105 290.335510,198.636002 
	C290.140045,199.131271 289.944580,199.626556 289.749146,200.121841 
	C317.019257,220.630981 344.289398,241.140137 371.559540,261.649261 
	C371.828918,261.472473 372.098297,261.295654 372.367676,261.118866 
	C370.714142,256.745514 369.060608,252.372162 367.020081,247.313995 
M417.467896,161.975327 
	C418.688293,164.082596 420.003510,166.141464 421.109436,168.307190 
	C423.428650,172.848694 425.637695,177.446442 427.891998,182.021103 
	C428.512817,181.855270 429.133636,181.689453 429.754425,181.523621 
	C429.510773,177.908249 429.383728,174.280167 428.991821,170.680939 
	C428.569244,166.799988 429.878265,165.603226 433.672729,166.841873 
	C438.624695,168.458359 443.547607,170.164001 448.483002,171.831299 
	C448.697113,171.456650 448.911194,171.082016 449.125275,170.707367 
	C433.286530,156.106888 417.447784,141.506409 401.609039,126.905937 
	C401.213135,127.193436 400.817200,127.480934 400.421295,127.768433 
	C405.965607,138.959702 411.509949,150.150986 417.467896,161.975327 
M696.500061,391.004974 
	C677.308594,391.004974 658.117188,391.004974 638.925720,391.004974 
	C638.927551,391.274170 638.929321,391.543365 638.931152,391.812561 
	C733.003296,391.812561 827.075500,391.812561 921.147644,391.812561 
	C921.148132,391.538422 921.148621,391.264252 921.149170,390.990112 
	C846.599426,390.990112 772.049683,390.990112 696.500061,391.004974 
M663.500000,276.059387 
	C704.217712,276.059387 744.935486,276.059387 785.653198,276.059387 
	C785.652710,275.783417 785.652161,275.507416 785.651672,275.231445 
	C736.687805,275.231445 687.723999,275.231445 638.760193,275.231445 
	C638.756958,275.506866 638.753723,275.782257 638.750488,276.057678 
	C646.666992,276.057678 654.583496,276.057678 663.500000,276.059387 
M332.500000,599.062805 
	C344.446167,599.062805 356.392334,599.062805 368.338501,599.062805 
	C368.337341,598.742859 368.336182,598.422852 368.334991,598.102905 
	C329.687286,598.102905 291.039551,598.102905 252.391800,598.102905 
	C252.390320,598.422485 252.388824,598.742126 252.387344,599.061707 
	C278.758240,599.061707 305.129120,599.061707 332.500000,599.062805 
M894.532166,275.847992 
	C922.786438,275.847992 951.040710,275.847992 979.295044,275.847992 
	C979.294678,275.642517 979.294373,275.437012 979.294006,275.231537 
	C947.317078,275.231537 915.340088,275.231537 883.363098,275.231537 
	C883.359375,275.440582 883.355652,275.649628 883.351868,275.858673 
	C886.750549,275.858673 890.149231,275.858673 894.532166,275.847992 
M296.479401,781.009399 
	C287.217194,781.009399 277.954987,781.009399 268.692780,781.009399 
	C268.690155,781.094116 268.687500,781.178833 268.684875,781.263550 
	C286.001160,781.263550 303.317444,781.263550 320.633698,781.263550 
	C320.626648,780.814636 320.619568,780.365784 320.612488,779.916870 
	C312.897339,780.280334 305.182159,780.643799 296.479401,781.009399 
M348.327332,494.969818 
	C350.629059,494.969818 352.930786,494.969818 355.232483,494.969818 
	C355.230896,494.730957 355.229309,494.492096 355.227722,494.253235 
	C339.038513,494.253235 322.849304,494.253235 306.660095,494.253235 
	C306.658203,494.493896 306.656281,494.734528 306.654388,494.975189 
	C320.228302,494.975189 333.802216,494.975189 348.327332,494.969818 
M355.969879,514.539673 
	C355.969879,523.625183 355.969879,532.710632 355.969879,541.796143 
	C356.243683,541.789490 356.517456,541.782837 356.791260,541.776184 
	C356.791260,529.247742 356.791260,516.719238 356.791260,504.190765 
	C356.518555,504.186432 356.245819,504.182098 355.973114,504.177734 
	C355.973114,507.305756 355.973114,510.433746 355.969879,514.539673 
M44.137794,512.114624 
	C44.137794,522.817932 44.137794,533.521179 44.137794,544.224487 
	C44.284893,544.222961 44.431992,544.221497 44.579090,544.219971 
	C44.579090,533.371155 44.579090,522.522278 44.137794,512.114624 
M285.937836,273.063141 
	C284.492584,273.130493 283.047302,273.197815 281.602051,273.265167 
	C281.607117,273.422485 281.612152,273.579773 281.617188,273.737091 
	C291.948700,273.737091 302.280212,273.737091 312.611725,273.737091 
	C312.613586,273.512207 312.615448,273.287292 312.617310,273.062408 
	C304.021271,273.062408 295.425232,273.062408 285.937836,273.063141 
M296.487915,390.055573 
	C300.606598,390.055573 304.725281,390.055573 308.843964,390.055573 
	C308.840118,389.777557 308.836273,389.499512 308.832428,389.221497 
	C299.600525,389.221497 290.368652,389.221497 281.136749,389.221497 
	C281.132965,389.488831 281.129181,389.756195 281.125397,390.023529 
	C285.915619,390.023529 290.705811,390.023529 296.487915,390.055573 
M162.069290,525.533081 
	C162.069290,522.079773 162.069290,518.626404 162.069290,515.173096 
	C161.788406,515.188721 161.507538,515.204407 161.226654,515.220093 
	C161.226654,523.759460 161.226654,532.298889 161.226654,540.838318 
	C161.507812,540.841736 161.788956,540.845215 162.070114,540.848633 
	C162.070114,536.072021 162.070114,531.295349 162.069290,525.533081 
z"/>
<path fill="#B2BE4E" opacity="1.000000" stroke="none" 
	d="
M577.180298,609.179382 
	C565.506775,617.507446 553.215149,623.491089 539.368225,626.245056 
	C520.658569,629.966064 502.661285,627.752319 485.174011,620.523193 
	C474.457489,616.093018 465.031097,609.366577 457.097656,601.216064 
	C443.724487,587.476929 434.175568,571.489746 430.967773,551.959900 
	C427.955475,533.620056 429.729645,515.255066 429.039551,496.914459 
	C428.899750,493.198273 431.134827,493.056152 433.886993,493.062683 
	C453.039154,493.108307 472.191528,493.093811 491.343811,493.096344 
	C530.481018,493.101501 569.618652,493.187134 608.755005,493.006531 
	C613.676636,492.983856 615.075562,494.680328 614.933228,499.307739 
	C614.458923,514.725159 614.856995,530.194519 613.747375,545.559265 
	C612.876221,557.622253 608.877808,569.125000 602.928223,579.780823 
	C596.989685,590.416809 589.299316,599.633240 579.957092,607.454712 
	C579.223083,608.069214 578.288879,608.444641 577.180298,609.179382 
z"/>
<path fill="#A3AE4A" opacity="1.000000" stroke="none" 
	d="
M521.961975,844.937256 
	C515.224609,845.222534 508.489136,845.612671 501.748749,845.737488 
	C499.319427,845.782410 496.885132,845.009827 494.441467,844.917236 
	C476.425140,844.233948 458.387787,843.931213 440.396027,842.856506 
	C432.679504,842.395630 425.030029,840.514160 417.396271,839.039246 
	C407.323578,837.093201 402.113464,830.126648 401.290466,820.594238 
	C400.675507,813.471741 401.456512,806.075928 402.675201,798.983887 
	C404.477142,788.497803 413.167633,785.295410 422.038452,784.178040 
	C435.219299,782.517944 448.548279,782.029358 461.815765,781.063354 
	C473.305664,780.226807 484.797668,779.419800 497.026611,778.547058 
	C497.026611,777.025635 497.026886,775.270630 497.026550,773.515564 
	C497.021729,748.533630 497.065033,723.551453 496.980133,698.569824 
	C496.957123,691.801514 496.524719,685.029724 501.647278,679.551758 
	C502.323212,680.815247 502.632935,681.898560 502.662537,683.211426 
	C501.585205,686.048950 500.118744,688.651062 500.096375,691.265564 
	C499.912964,712.686218 499.937042,734.109436 500.063477,755.530945 
	C500.084412,759.074524 500.910339,762.613342 501.484619,767.093445 
	C503.702423,765.884644 506.050293,765.336060 506.222229,764.391418 
	C507.259888,758.690186 511.903442,757.794800 515.169373,756.548218 
	C517.212524,759.552185 519.075500,762.291138 520.944702,765.496826 
	C520.964844,789.664673 520.956909,813.365784 521.027466,837.066711 
	C521.034241,839.345825 521.529114,841.623413 521.829468,844.162048 
	C521.895081,844.593994 521.928528,844.765625 521.961975,844.937256 
M511.653351,762.882629 
	C510.810059,764.152832 509.966766,765.423035 509.123444,766.693176 
	C509.868195,766.994812 510.612946,767.296387 511.357697,767.598022 
	C511.647522,766.088013 511.937347,764.577942 511.653351,762.882629 
z"/>
<path fill="#ADB952" opacity="1.000000" stroke="none" 
	d="
M402.151794,630.832947 
	C401.823151,630.442505 401.494507,630.052063 400.928467,629.195801 
	C400.429260,628.496033 400.167450,628.261963 399.905640,628.027893 
	C399.905640,628.027893 399.982697,628.028442 399.832520,627.853271 
	C399.422241,627.462952 399.162109,627.247681 398.901978,627.032471 
	C398.901978,627.032471 398.977844,627.019775 398.838226,626.846008 
	C398.442383,626.460327 398.186157,626.248352 397.929932,626.036438 
	C397.929932,626.036438 397.957764,626.053406 397.961304,625.666748 
	C398.170807,622.338501 397.036346,620.432617 393.926056,620.053589 
	C393.926056,620.053589 393.995728,619.998108 393.967865,619.646729 
	C390.271088,613.544739 386.602173,607.794128 382.933289,602.043457 
	C382.933289,602.043457 382.997040,601.998413 382.985657,601.631287 
	C380.870270,595.000854 378.676605,588.765991 376.680511,582.468506 
	C372.262360,568.529785 367.425262,554.642761 367.671906,539.746704 
	C367.888885,526.643005 368.380920,513.543579 368.803040,500.443909 
	C368.900726,497.411499 370.595123,495.993958 373.654938,496.026459 
	C378.819031,496.081299 383.985199,496.092712 389.148590,496.007019 
	C392.477051,495.951782 393.894562,497.502777 394.198456,500.766541 
	C394.612244,505.210632 395.379486,509.621826 395.995148,514.047119 
	C395.951111,514.470581 395.907074,514.893982 395.711731,515.761230 
	C395.459442,516.534790 395.526184,516.826172 395.760712,517.079285 
	C395.801025,517.474609 395.841309,517.869873 395.511597,518.635254 
	C394.754791,521.270447 393.928436,523.560303 394.054657,525.796448 
	C394.724548,537.665344 394.434998,549.760498 396.748657,561.322876 
	C399.983734,577.489929 406.926086,592.475708 416.533386,606.082642 
	C424.589050,617.492004 433.526398,628.080933 444.963135,636.232727 
	C447.932373,638.349182 451.637329,639.433411 455.004333,640.991821 
	C455.004333,640.991821 455.000000,641.000000 455.057190,641.342163 
	C457.144012,645.796875 460.620514,647.227112 464.986145,647.008972 
	C464.986145,647.008972 465.000397,647.000000 465.091125,647.337036 
	C466.907288,648.886353 468.482819,650.463135 470.385071,651.245789 
	C477.428223,654.143250 484.578949,656.779114 491.689484,659.512695 
	C494.289856,660.512390 497.101837,661.682495 495.350647,665.153076 
	C493.043549,669.725403 490.436523,674.171936 487.634888,678.461243 
	C485.319214,682.006470 482.160614,683.239197 477.771088,681.558716 
	C473.647034,679.979736 469.212769,679.211060 464.914978,678.085815 
	C464.914978,678.085815 465.003357,678.016846 464.853546,677.739136 
	C460.778412,675.663513 456.853088,673.865540 452.927765,672.067566 
	C452.927765,672.067566 453.005524,672.015625 452.905640,671.708618 
	C448.148193,668.940491 443.490570,666.479248 438.832977,664.018066 
	C438.832977,664.018066 438.463623,663.965149 438.097107,663.758240 
	C437.486145,663.330627 437.209778,663.162415 436.901398,663.046753 
	C436.901398,663.046753 436.996429,663.036133 436.935120,662.708557 
	C435.279083,659.026550 432.853363,656.922241 428.916290,657.091858 
	C428.916290,657.091858 429.000000,657.005554 428.948547,656.683472 
	C424.820679,650.436462 419.856842,645.575867 412.940674,643.056641 
	C412.940674,643.056641 412.989563,643.000488 412.849487,642.822876 
	C412.447571,642.439697 412.185699,642.234192 411.923828,642.028625 
	C411.923828,642.028625 411.991760,642.008545 411.849121,641.827881 
	C411.443329,641.441711 411.180176,641.236145 410.917023,641.030579 
	C410.917023,641.030579 410.987640,641.011841 410.841614,640.836670 
	C410.434692,640.452026 410.173798,640.242432 409.912933,640.032898 
	C409.912933,640.032898 409.988037,640.057129 409.949646,639.703369 
	C407.324768,636.510681 404.738281,633.671814 402.151794,630.832947 
z"/>
<path fill="#A7B251" opacity="1.000000" stroke="none" 
	d="
M491.965515,322.587769 
	C498.007935,325.559235 501.666321,331.393646 500.764404,336.292908 
	C498.746948,347.251770 494.014557,348.629547 487.368195,348.856628 
	C470.278687,349.440430 453.176056,349.671295 436.076996,349.928986 
	C430.093781,350.019135 429.091217,348.913696 429.063477,343.099304 
	C429.037262,337.605560 429.234406,332.105042 429.017334,326.619995 
	C428.878235,323.105347 430.169739,321.945374 433.645111,322.010529 
	C443.465027,322.194672 453.291534,322.195160 463.112732,322.064850 
	C467.381195,322.008240 471.647339,321.146576 475.906891,321.205353 
	C481.157257,321.277771 486.399658,321.928650 491.965515,322.587769 
z"/>
<path fill="#A9B453" opacity="1.000000" stroke="none" 
	d="
M499.785370,372.607300 
	C500.065674,375.362762 500.776062,377.854248 500.293396,380.087860 
	C498.461578,388.564789 494.155426,391.926544 485.330170,391.963470 
	C468.174347,392.035248 451.017426,391.895111 433.862244,392.021057 
	C430.152740,392.048248 428.819397,390.748810 428.982941,387.060730 
	C429.218811,381.740936 428.972687,376.401733 429.083771,371.073944 
	C429.206909,365.168274 430.328644,364.086548 435.946198,364.082855 
	C452.269348,364.072144 468.593933,363.952911 484.914886,364.141998 
	C491.078430,364.213409 496.488892,366.361053 499.785370,372.607300 
z"/>
<path fill="#53744B" opacity="1.000000" stroke="none" 
	d="
M547.724243,388.147705 
	C542.160767,383.305908 543.455994,377.218536 544.897522,371.918671 
	C546.621643,365.579468 552.864868,364.234924 558.475769,364.136261 
	C575.783691,363.831909 593.100952,364.089722 610.414429,364.050476 
	C613.666626,364.043121 614.881104,365.724030 614.870117,368.644012 
	C614.846985,374.802917 614.795044,380.962341 614.676575,387.120026 
	C614.612793,390.437439 613.258240,392.010834 609.488220,391.957886 
	C593.351379,391.731201 577.203918,392.059448 561.074341,391.643219 
	C556.699158,391.530304 552.372864,389.519623 547.724243,388.147705 
z"/>
<path fill="#ADB952" opacity="1.000000" stroke="none" 
	d="
M493.708435,451.001038 
	C501.347473,457.208008 502.561859,468.107910 495.935394,473.206696 
	C493.078888,475.404694 488.830750,476.722717 485.179749,476.800842 
	C468.212585,477.163971 451.231812,476.837250 434.259003,477.028473 
	C430.020020,477.076233 428.756439,475.597839 428.981750,471.523163 
	C429.293701,465.881775 429.176575,460.210083 429.071289,454.554565 
	C429.001129,450.784485 430.083221,448.931793 434.409363,448.986359 
	C451.548187,449.202484 468.691986,449.005005 485.832092,449.160461 
	C488.337463,449.183197 490.833008,450.286072 493.708435,451.001038 
z"/>
<path fill="#ADB952" opacity="1.000000" stroke="none" 
	d="
M611.393311,449.123901 
	C612.854858,451.214386 614.584900,453.232117 614.744873,455.367401 
	C615.166260,460.993591 614.915955,466.670868 614.912292,472.327820 
	C614.910278,475.447388 613.725830,477.030212 610.199280,477.003418 
	C593.228638,476.874298 576.251465,477.178680 559.288208,476.803650 
	C555.458740,476.718994 551.281799,475.176971 547.973450,473.149475 
	C544.067078,470.755585 542.639954,462.082458 544.391479,457.250549 
	C545.916992,453.042114 552.561157,449.096924 558.532898,449.083527 
	C576.003906,449.044281 593.475037,449.091431 611.393311,449.123901 
z"/>
<path fill="#53744B" opacity="1.000000" stroke="none" 
	d="
M429.007690,295.952881 
	C429.017670,291.306274 429.081177,287.148682 429.019531,282.992981 
	C428.979401,280.288391 430.135986,279.053711 432.885345,279.056702 
	C451.341461,279.076752 469.799255,278.901459 488.253113,279.100189 
	C495.648468,279.179840 500.254517,285.829865 499.917877,294.950531 
	C499.675110,301.526459 494.487518,305.904541 487.342926,305.856781 
	C473.543304,305.764496 459.742035,305.735474 445.942993,305.855774 
	C442.524109,305.885559 439.116577,306.852386 435.694153,306.923798 
	C428.963928,307.064270 428.961090,306.929413 428.989990,300.433289 
	C428.995911,299.103088 429.002075,297.772888 429.007690,295.952881 
z"/>
<path fill="#ADB952" opacity="1.000000" stroke="none" 
	d="
M458.000000,433.921692 
	C448.214386,433.921478 438.928802,433.921478 429.092560,433.921478 
	C429.092560,425.718414 428.957733,417.943573 429.249115,410.184723 
	C429.289276,409.114990 431.433044,407.242218 432.618652,407.229675 
	C450.931793,407.036316 469.264099,406.628387 487.555481,407.286011 
	C496.285217,407.599854 500.701324,411.151215 499.957367,423.285980 
	C499.595032,429.195984 493.613892,433.968445 486.472198,433.944519 
	C477.148224,433.913269 467.824066,433.927338 458.000000,433.921692 
z"/>
<path fill="#54644F" opacity="1.000000" stroke="none" 
	d="
M647.180664,502.909363 
	C647.180664,500.253357 647.180664,497.597382 647.180664,494.490845 
	C657.227173,494.490845 667.119446,494.490845 677.240845,494.490845 
	C677.420471,494.988403 677.805054,495.579712 677.826843,496.184052 
	C678.250305,507.945038 679.100708,519.714355 678.929443,531.468384 
	C678.491272,561.524536 670.693604,589.421570 654.580811,615.111816 
	C636.323669,644.220947 610.874573,664.632751 579.958862,678.463135 
	C569.716431,683.045288 558.597778,685.669067 547.344666,689.363892 
	C547.344666,718.479309 547.344666,748.384338 547.344666,778.552063 
	C548.358337,778.701843 549.142700,778.887329 549.933960,778.924500 
	C564.960205,779.630432 580.006653,780.045654 595.007080,781.110596 
	C604.465942,781.782043 613.892456,783.191956 623.267822,784.683472 
	C634.420776,786.457703 641.610474,792.961060 642.558044,804.389404 
	C643.166443,811.727173 642.957642,819.400208 641.462891,826.578857 
	C639.478455,836.108704 631.024353,838.689087 622.666565,839.871582 
	C612.755432,841.273804 602.758301,842.339722 592.763245,842.819214 
	C573.084839,843.763184 553.380737,844.163757 533.690857,844.886658 
	C530.421509,845.006714 527.170166,845.620361 523.607300,845.643311 
	C523.541077,844.210999 523.778137,843.141357 524.436340,842.057678 
	C531.309143,842.085632 537.761169,842.106873 544.212585,842.175232 
	C551.146667,842.248718 558.086792,842.600098 565.012512,842.407043 
	C574.148560,842.152527 583.277100,841.548706 592.400146,840.958801 
	C595.187622,840.778564 597.950928,840.178589 600.716858,839.720032 
	C607.600464,838.578552 614.505554,836.351624 621.353027,836.522644 
	C629.496765,836.726074 633.837585,832.204590 637.116089,826.445129 
	C640.831238,819.918579 642.082825,813.091797 638.819275,805.212524 
	C636.129761,798.718933 636.830750,790.918823 627.102905,789.586792 
	C620.887329,788.735657 614.923157,786.130615 608.714600,785.122742 
	C602.506592,784.115112 596.137512,784.070679 589.833801,783.690857 
	C584.891296,783.393005 579.940857,783.227600 574.644775,782.803894 
	C571.194275,782.405396 568.092773,782.206482 564.661194,782.004639 
	C563.890869,782.000305 563.450623,781.998962 562.647461,781.800781 
	C556.526184,781.397705 550.767883,781.191467 545.013306,780.642700 
	C545.023621,779.843506 545.030396,779.386841 545.258667,778.588867 
	C545.643127,777.270386 545.947693,776.293274 545.948303,775.315979 
	C545.965332,747.995300 545.965637,720.674622 545.903503,693.354065 
	C545.900208,691.913391 545.324646,690.473938 545.105286,688.698242 
	C548.022888,686.522583 550.659546,683.566040 553.712830,683.043335 
	C564.744751,681.154724 574.702332,676.370300 584.927795,672.360596 
	C589.179199,670.693481 592.703186,667.193420 596.939819,665.460510 
	C600.752563,663.901001 603.759033,662.238708 604.036499,659.413025 
	C607.862000,657.391235 610.977844,656.284790 613.430786,654.341431 
	C619.505554,649.528809 625.987915,644.947510 631.000183,639.144836 
	C638.090820,630.936218 646.825073,623.661560 649.605469,612.314026 
	C649.914490,611.052673 651.799744,609.587524 653.179260,609.301025 
	C656.065979,608.701294 657.017761,607.207214 657.097778,604.480225 
	C657.134644,603.221802 657.715698,601.937073 658.230408,600.741943 
	C661.565674,592.996948 665.125610,585.343262 668.254456,577.516724 
	C670.155457,572.761475 672.078064,567.847656 672.817322,562.832031 
	C674.111877,554.049500 674.739868,545.146362 675.209290,536.270569 
	C675.715759,526.696045 676.028198,517.089294 675.856445,507.506866 
	C675.684631,497.922302 673.365906,496.028656 663.782043,496.021454 
	C659.849548,496.018494 655.917053,496.018951 651.693176,495.830261 
	C650.266785,496.485718 648.720154,497.103546 648.103699,498.230316 
	C647.376038,499.560211 647.452698,501.330170 647.180664,502.909363 
z"/>
<path fill="#9BA454" opacity="1.000000" stroke="none" 
	d="
M367.213562,247.656403 
	C369.060608,252.372162 370.714142,256.745514 372.367676,261.118866 
	C372.098297,261.295654 371.828918,261.472473 371.559540,261.649261 
	C344.289398,241.140137 317.019257,220.630981 289.749146,200.121841 
	C289.944580,199.626556 290.140045,199.131271 290.335510,198.636002 
	C326.341034,208.961105 362.346588,219.286224 398.352112,229.611328 
	C398.299408,229.932159 398.246674,230.252975 398.193970,230.573807 
	C386.669067,232.146698 375.144165,233.719589 362.971802,235.380844 
	C364.462616,239.775314 365.741333,243.544647 367.213562,247.656403 
z"/>
<path fill="#53744B" opacity="1.000000" stroke="none" 
	d="
M558.294922,305.902161 
	C549.060730,305.630280 546.086060,303.529785 543.880005,295.723602 
	C541.826660,288.457794 547.991150,279.218201 555.539124,279.146027 
	C574.683228,278.962921 593.831238,279.197449 613.094849,279.556824 
	C613.030151,280.528656 612.697510,281.206787 612.689819,281.888519 
	C612.603943,289.596588 612.567810,297.305237 612.471436,304.995300 
	C612.424561,304.976868 612.325256,304.959717 611.823608,304.959412 
	C596.026062,304.961975 580.729858,304.923004 565.434448,305.013153 
	C563.167236,305.026520 560.903564,305.649231 558.553589,305.963531 
	C558.468872,305.937042 558.294922,305.902161 558.294922,305.902161 
z"/>
<path fill="#53744B" opacity="1.000000" stroke="none" 
	d="
M545.109314,330.037231 
	C546.700928,324.899384 550.604919,322.193359 556.609619,322.190338 
	C571.144714,322.183044 585.679871,322.216309 601.010254,322.406372 
	C604.140808,322.414520 606.476074,322.249542 608.811401,322.084564 
	C609.028809,322.157043 609.246155,322.229492 609.888672,322.718445 
	C611.202393,327.975586 612.636230,332.791107 612.860168,337.662323 
	C613.264465,346.454926 610.126709,348.777222 601.374146,347.859344 
	C598.209961,347.527496 594.931396,348.285645 591.705017,348.546387 
	C587.296265,348.529388 582.887512,348.512329 577.634155,348.336670 
	C570.272888,348.422607 563.756287,348.667175 557.239624,348.911713 
	C556.748718,348.852081 556.257751,348.792450 555.234985,348.425354 
	C551.204163,345.393829 547.705261,342.669769 544.206299,339.945740 
	C544.183716,339.507324 544.161194,339.068939 544.304932,337.995056 
	C544.683960,334.918793 544.896667,332.478027 545.109314,330.037231 
z"/>
<path fill="#506B4A" opacity="1.000000" stroke="none" 
	d="
M676.100647,221.384644 
	C682.418579,219.273438 688.667297,216.919083 695.067566,215.097092 
	C713.502563,209.849106 731.995361,204.803467 750.477600,199.722565 
	C751.937439,199.321259 753.491211,199.261475 755.417786,200.074295 
	C727.798462,220.247177 700.179138,240.420044 671.577271,261.310577 
	C674.829712,251.815643 677.707397,243.414856 680.608215,234.946426 
	C670.248779,233.591721 661.026489,232.385712 651.624268,230.653015 
	C653.327820,228.852234 655.211304,227.578156 657.094788,226.304077 
	C657.550659,226.319122 658.006592,226.334183 659.100952,226.453522 
	C665.193237,224.833405 670.646912,223.109024 676.100647,221.384644 
M678.219421,232.953552 
	C678.398132,232.695923 678.576843,232.438293 678.755554,232.180664 
	C678.596680,232.144135 678.438049,232.076797 678.278992,232.075882 
	C676.852966,232.067627 675.427002,232.071060 674.000977,232.071060 
	C673.993835,232.307480 673.986694,232.543915 673.979553,232.780334 
	C675.205505,232.849152 676.431458,232.917969 678.219421,232.953552 
M667.308960,231.948227 
	C667.464966,231.682388 667.620972,231.416550 667.776917,231.150711 
	C667.621765,231.111145 667.464478,231.030518 667.311829,231.038528 
	C666.190002,231.097443 665.069153,231.174072 663.947998,231.245117 
	C663.957947,231.447998 663.967896,231.650879 663.977905,231.853775 
	C664.911804,231.896790 665.845642,231.939804 667.308960,231.948227 
M656.986328,230.237793 
	C656.274414,230.282883 655.562500,230.327972 654.850586,230.373062 
	C654.881348,230.572327 654.912170,230.771606 654.942932,230.970886 
	C655.690918,230.830887 656.438965,230.690887 656.986328,230.237793 
M680.865051,220.488617 
	C680.865051,220.488617 681.096924,220.566666 681.096924,220.566666 
	C681.096924,220.566666 680.950989,220.392792 680.865051,220.488617 
z"/>
<path fill="#54644F" opacity="1.000000" stroke="none" 
	d="
M613.119629,262.990967 
	C611.732605,263.328552 610.345886,263.960022 608.958496,263.961426 
	C550.663452,264.020630 492.368378,264.023560 434.073273,264.033447 
	C433.081818,264.033600 432.090363,264.033478 430.892029,264.033478 
	C428.662659,253.591690 431.660339,244.103256 434.986725,234.695251 
	C444.923889,206.590027 464.519043,188.330704 492.487762,178.805069 
	C504.292053,174.784744 516.543518,172.956146 528.953430,174.061356 
	C543.024048,175.314453 556.402222,179.425385 568.403809,187.042358 
	C574.898132,191.164032 581.495789,195.439560 587.008301,200.728134 
	C600.129211,213.315872 608.399963,228.868927 612.160645,246.874268 
	C611.597961,247.061356 611.258179,247.024582 610.683594,246.993011 
	C610.448853,246.998199 609.978027,247.006409 609.966797,246.655487 
	C609.936951,245.836838 609.918274,245.369080 609.843506,244.641327 
	C609.526184,243.919083 609.265015,243.456818 608.911987,242.653549 
	C606.574524,236.857635 604.830811,231.121689 601.970154,226.010956 
	C597.178833,217.451004 591.748047,208.948074 584.169250,202.780869 
	C573.229187,193.878479 561.749207,185.395905 547.563660,181.939545 
	C546.450562,181.668335 545.444397,180.980362 544.339661,180.649139 
	C533.384155,177.364517 522.229797,174.897614 511.020447,178.675537 
	C505.345795,180.588058 499.962067,182.650299 493.804535,182.735657 
	C490.310669,182.784088 486.355133,183.870682 483.454895,185.778122 
	C475.646088,190.913849 467.586548,196.022034 460.971252,202.511856 
	C455.216949,208.157043 451.305969,215.678940 446.559387,222.356537 
	C445.998322,223.145828 445.405853,224.341675 444.654602,224.493988 
	C441.052795,225.224167 440.740753,228.115707 440.018463,230.846054 
	C438.876678,235.162170 438.281219,239.771362 436.312683,243.681625 
	C433.981445,248.312225 432.525909,252.843689 432.867065,258.164856 
	C432.823395,258.885529 432.906677,259.423187 432.999725,259.974365 
	C433.009491,259.987885 433.031555,260.012939 433.023682,260.342896 
	C433.015778,261.112946 433.015778,261.553040 433.366089,262.209473 
	C436.359650,262.611908 439.002777,262.958832 441.646118,262.960358 
	C498.803955,262.993744 555.961792,262.988647 613.119629,262.990967 
z"/>
<path fill="#959B5A" opacity="1.000000" stroke="none" 
	d="
M417.261078,161.658783 
	C411.509949,150.150986 405.965607,138.959702 400.421295,127.768433 
	C400.817200,127.480934 401.213135,127.193436 401.609039,126.905937 
	C417.447784,141.506409 433.286530,156.106888 449.125275,170.707367 
	C448.911194,171.082016 448.697113,171.456650 448.483002,171.831299 
	C443.547607,170.164001 438.624695,168.458359 433.672729,166.841873 
	C429.878265,165.603226 428.569244,166.799988 428.991821,170.680939 
	C429.383728,174.280167 429.510773,177.908249 429.754425,181.523621 
	C429.133636,181.689453 428.512817,181.855270 427.891998,182.021103 
	C425.637695,177.446442 423.428650,172.848694 421.109436,168.307190 
	C420.003510,166.141464 418.688293,164.082596 417.261078,161.658783 
z"/>
<path fill="#4A5D45" opacity="1.000000" stroke="none" 
	d="
M647.124146,503.266113 
	C647.452698,501.330170 647.376038,499.560211 648.103699,498.230316 
	C648.720154,497.103546 650.266785,496.485718 651.369995,495.834625 
	C650.906799,496.024139 650.475464,496.021729 649.859497,496.165222 
	C649.442566,496.524933 649.246216,496.767822 649.089172,497.505981 
	C649.533447,508.088623 650.237061,518.201904 650.361023,528.322327 
	C650.622437,549.654175 646.632019,570.255127 638.838013,590.107971 
	C638.307983,591.458008 637.343018,592.645630 636.528076,593.874023 
	C632.600403,599.794434 628.734070,605.758057 624.688660,611.597168 
	C621.784790,615.788574 619.026123,620.195862 615.478577,623.792725 
	C612.079529,627.239014 607.664978,629.662476 603.848145,632.724243 
	C600.355347,635.526062 597.215637,638.781067 593.641296,641.464600 
	C590.342468,643.941406 586.871338,647.220093 583.116333,647.794800 
	C578.499268,648.501526 576.271912,650.446594 575.454407,653.249512 
	C565.335327,656.363403 556.054688,659.219299 546.056702,662.295959 
	C538.819824,662.786438 530.520264,663.348877 522.106567,663.700012 
	C521.581055,662.671814 521.169678,661.854919 520.758362,661.037964 
	C532.011230,659.676453 543.614441,659.605713 554.439453,656.667786 
	C573.304932,651.547729 589.984070,641.670471 604.748596,628.687500 
	C619.836853,615.419922 631.411743,599.460388 638.731995,580.943848 
	C642.858032,570.507019 644.718079,559.084229 646.773621,547.953125 
	C647.995483,541.336365 647.691040,534.426147 647.906067,527.642517 
	C647.967834,525.694092 647.449097,523.727356 647.356323,520.987244 
	C647.390442,515.157898 647.264709,510.110291 647.138916,505.062683 
	C647.115173,504.582733 647.091370,504.102814 647.124146,503.266113 
z"/>
<path fill="#959B5A" opacity="1.000000" stroke="none" 
	d="
M546.918701,429.075134 
	C542.058655,424.639404 543.010925,419.104340 544.699707,413.921844 
	C546.314331,408.967041 550.986877,407.143890 555.713013,407.087494 
	C574.170898,406.867004 592.633240,407.033478 611.093567,406.974823 
	C613.833313,406.966125 615.043335,407.983704 615.018066,410.762634 
	C614.950317,418.233917 614.994995,425.706177 614.994995,433.998535 
	C612.828003,433.998535 610.915100,433.998596 609.002136,433.998505 
	C591.705750,433.997528 574.406677,434.149689 557.115540,433.848785 
	C554.145386,433.797119 551.208740,431.816284 548.190613,430.274689 
	C548.124573,429.822754 548.314697,429.564453 548.687073,429.673706 
	C551.634583,430.463287 554.202271,431.699615 556.786011,431.733978 
	C573.945251,431.962189 591.107971,431.960144 608.269531,431.963531 
	C611.549011,431.964172 613.023804,430.077393 612.968079,426.818756 
	C612.902527,422.987152 612.755249,419.140045 613.010315,415.324188 
	C613.329712,410.545258 611.368896,408.840668 606.608765,408.902405 
	C591.113403,409.103394 575.614014,408.966217 560.116455,409.036346 
	C558.141052,409.045258 556.100708,409.273682 554.205566,409.808472 
	C547.878723,411.593842 544.838135,417.037079 546.402771,423.341949 
	C546.839111,425.100586 547.116455,426.898651 547.328491,428.776001 
	C547.190186,428.873383 546.918701,429.075134 546.918701,429.075134 
z"/>
<path fill="#4A5D45" opacity="1.000000" stroke="none" 
	d="
M524.015259,842.071716 
	C523.778137,843.141357 523.541077,844.210999 523.171814,845.584229 
	C522.743530,845.732727 522.447388,845.577759 522.056641,845.179993 
	C521.928528,844.765625 521.895081,844.593994 521.937622,843.711975 
	C522.112732,828.302368 522.211914,813.603088 522.462402,798.543518 
	C522.516907,794.154907 522.420227,790.126648 522.289856,785.624939 
	C522.304504,748.101685 522.352783,711.051941 522.658875,674.009705 
	C523.268250,675.494507 523.524231,677.003174 523.996887,678.440552 
	C524.522095,680.037781 525.244873,681.570007 525.892822,683.568115 
	C525.255432,689.383118 524.169312,694.750732 524.047424,700.140076 
	C523.777222,712.085876 523.991089,724.042603 523.997864,736.463806 
	C523.997253,771.979065 524.006226,807.025391 524.015259,842.071716 
z"/>
<path fill="#959B5A" opacity="1.000000" stroke="none" 
	d="
M454.886017,640.665283 
	C451.637329,639.433411 447.932373,638.349182 444.963135,636.232727 
	C433.526398,628.080933 424.589050,617.492004 416.533386,606.082642 
	C406.926086,592.475708 399.983734,577.489929 396.748657,561.322876 
	C394.434998,549.760498 394.724548,537.665344 394.054657,525.796448 
	C393.928436,523.560303 394.754791,521.270447 395.462158,518.930542 
	C395.867218,523.512817 396.068817,528.171082 396.016876,532.826599 
	C395.718292,559.585144 403.707336,583.685364 418.986725,605.536072 
	C428.706207,619.435608 440.649048,630.991211 454.886017,640.665283 
z"/>
<path fill="#959B5A" opacity="1.000000" stroke="none" 
	d="
M396.378967,513.833008 
	C395.379486,509.621826 394.612244,505.210632 394.198456,500.766541 
	C393.894562,497.502777 392.477051,495.951782 389.148590,496.007019 
	C383.985199,496.092712 378.819031,496.081299 373.654938,496.026459 
	C370.595123,495.993958 368.900726,497.411499 368.803040,500.443909 
	C368.380920,513.543579 367.888885,526.643005 367.671906,539.746704 
	C367.425262,554.642761 372.262360,568.529785 376.680511,582.468506 
	C378.676605,588.765991 380.870270,595.000854 382.959259,601.658691 
	C375.854553,590.974670 371.831329,578.510132 369.282990,565.927917 
	C366.602295,552.692322 365.822205,539.005615 365.073639,525.468323 
	C364.582550,516.588135 365.652649,507.624390 365.958374,498.695862 
	C366.071442,495.393066 367.667542,493.916565 370.946594,493.946594 
	C378.278870,494.013794 385.612793,494.065491 392.944275,493.976868 
	C395.951202,493.940521 397.146332,495.144928 397.030731,498.146698 
	C396.832245,503.299896 396.841034,508.461121 396.378967,513.833008 
z"/>
<path fill="#959B5A" opacity="1.000000" stroke="none" 
	d="
M609.927490,156.936920 
	C620.282776,147.186462 630.632080,137.429657 641.014587,127.708366 
	C641.437378,127.312515 642.173706,127.251648 644.289062,126.474213 
	C634.377441,146.081345 625.066711,164.499878 615.755920,182.918411 
	C615.308655,182.787460 614.861389,182.656494 614.414185,182.525528 
	C614.614197,178.185043 614.799072,173.843796 615.019165,169.504333 
	C615.183472,166.266220 614.557007,164.286255 610.598694,165.918289 
	C605.379211,168.070297 600.054321,169.966492 594.165955,171.118256 
	C597.531372,168.083176 600.896851,165.048096 604.746582,162.101013 
	C605.230835,162.188980 605.496338,162.412643 605.536438,162.688385 
	C606.860352,163.404678 608.189453,164.323380 609.420410,164.206665 
	C616.422607,163.542740 616.400574,163.460205 617.155579,170.385239 
	C617.216797,170.946915 617.649719,171.468079 618.414917,173.056137 
	C624.486633,160.956940 630.124268,149.722794 635.761841,138.488647 
	C635.287292,138.098709 634.812683,137.708755 634.338074,137.318817 
	C632.774109,138.532928 631.162415,139.690765 629.654602,140.970932 
	C623.223328,146.431198 616.822876,151.927643 610.290405,157.292267 
	C610.169556,157.173645 609.927490,156.936920 609.927490,156.936920 
M604.945679,165.416641 
	C604.945679,165.416641 605.026367,165.420013 604.945679,165.416641 
z"/>
<path fill="#0F100C" opacity="1.000000" stroke="none" 
	d="
M817.126221,763.134827 
	C817.083496,725.971558 817.013000,688.808350 817.004089,651.645081 
	C816.988342,586.315979 817.010193,520.986877 817.016235,455.657745 
	C817.016418,453.851410 817.016296,452.045074 817.016296,450.238739 
	C817.236450,450.224274 817.456665,450.209808 817.676819,450.195343 
	C817.778503,451.198151 817.969177,452.200928 817.969299,453.203766 
	C817.987061,555.530457 817.990662,657.857178 817.992371,760.183899 
	C817.992371,760.850220 817.955017,761.516541 817.718140,762.651367 
	C817.501160,763.119873 817.126221,763.134827 817.126221,763.134827 
z"/>
<path fill="#A9B453" opacity="1.000000" stroke="none" 
	d="
M522.401062,674.002136 
	C522.352783,711.051941 522.304504,748.101685 522.210876,786.070129 
	C522.214050,790.960449 522.262573,794.932190 522.311157,798.903870 
	C522.211914,813.603088 522.112732,828.302368 521.905396,843.451660 
	C521.529114,841.623413 521.034241,839.345825 521.027466,837.066711 
	C520.956909,813.365784 520.964844,789.664673 520.959473,765.025269 
	C520.978516,747.444031 521.123108,730.799744 520.959473,714.158508 
	C520.814087,699.369568 520.377197,684.582336 519.911316,669.799316 
	C519.865723,668.353333 519.045105,666.200684 517.980103,665.723328 
	C516.912659,665.244690 514.805054,666.099792 513.666443,667.011292 
	C512.188110,668.194763 511.104614,669.939148 510.049835,671.570435 
	C507.617065,675.333069 505.304169,679.173157 502.942627,682.981812 
	C502.632935,681.898560 502.323212,680.815247 501.960663,679.398438 
	C501.907837,679.064941 501.915863,678.905029 502.303772,678.792114 
	C503.426880,677.131470 504.162048,675.583679 504.897247,674.035950 
	C504.897247,674.035950 504.896606,673.885193 505.269928,673.754761 
	C506.052551,672.433533 506.461853,671.242676 506.871155,670.051880 
	C509.014496,663.854065 512.383057,659.426636 520.338928,661.029907 
	C521.169678,661.854919 521.581055,662.671814 522.050781,664.159180 
	C522.206421,667.887207 522.303711,670.944641 522.401062,674.002136 
z"/>
<path fill="#0F100C" opacity="1.000000" stroke="none" 
	d="
M706.841675,781.008118 
	C706.545654,779.229492 705.991089,777.450928 705.990601,775.672241 
	C705.965149,683.381531 705.986816,591.090759 706.003418,498.800049 
	C706.003601,497.982208 706.003479,497.164398 706.003479,496.346558 
	C706.350159,496.346252 706.696777,496.345978 707.043457,496.345673 
	C707.043457,590.866943 707.043457,685.388184 706.995728,780.424561 
	C706.947998,780.939636 706.841675,781.008118 706.841675,781.008118 
z"/>
<path fill="#282626" opacity="1.000000" stroke="none" 
	d="
M697.000000,390.997559 
	C772.049683,390.990112 846.599426,390.990112 921.149170,390.990112 
	C921.148621,391.264252 921.148132,391.538422 921.147644,391.812561 
	C827.075500,391.812561 733.003296,391.812561 638.931152,391.812561 
	C638.929321,391.543365 638.927551,391.274170 638.925720,391.004974 
	C658.117188,391.004974 677.308594,391.004974 697.000000,390.997559 
z"/>
<path fill="#3A4937" opacity="1.000000" stroke="none" 
	d="
M613.412720,262.703247 
	C555.961792,262.988647 498.803955,262.993744 441.646118,262.960358 
	C439.002777,262.958832 436.359650,262.611908 433.832947,262.214172 
	C491.028534,262.008087 548.107605,262.017090 605.186646,262.014465 
	C611.917725,262.014160 611.917725,261.984619 611.928162,254.670197 
	C611.586792,253.221878 611.288635,252.115005 610.991516,250.606018 
	C610.967773,249.131866 610.943054,248.059845 610.918335,246.987808 
	C611.258179,247.024582 611.597961,247.061356 612.442505,247.221725 
	C613.200134,252.368729 613.453003,257.392120 613.412720,262.703247 
z"/>
<path fill="#959B5A" opacity="1.000000" stroke="none" 
	d="
M465.066681,678.417114 
	C469.212769,679.211060 473.647034,679.979736 477.771088,681.558716 
	C482.160614,683.239197 485.319214,682.006470 487.634888,678.461243 
	C490.436523,674.171936 493.043549,669.725403 495.350647,665.153076 
	C497.101837,661.682495 494.289856,660.512390 491.689484,659.512695 
	C484.578949,656.779114 477.428223,654.143250 470.385071,651.245789 
	C468.482819,650.463135 466.907288,648.886353 465.087433,647.344849 
	C471.905762,649.792480 478.768646,652.703186 485.749023,655.297791 
	C490.257111,656.973389 494.937439,658.185547 500.299194,659.839355 
	C496.113190,667.648682 492.371094,674.966980 488.278412,682.083679 
	C486.830261,684.601868 484.726105,685.853638 481.210907,684.260376 
	C476.097748,681.942810 470.569580,680.540833 465.066681,678.417114 
z"/>
<path fill="#3A4937" opacity="1.000000" stroke="none" 
	d="
M663.000000,276.058533 
	C654.583496,276.057678 646.666992,276.057678 638.750488,276.057678 
	C638.753723,275.782257 638.756958,275.506866 638.760193,275.231445 
	C687.723999,275.231445 736.687805,275.231445 785.651672,275.231445 
	C785.652161,275.507416 785.652710,275.783417 785.653198,276.059387 
	C744.935486,276.059387 704.217712,276.059387 663.000000,276.058533 
z"/>
<path fill="#282626" opacity="1.000000" stroke="none" 
	d="
M817.118164,763.589905 
	C817.126221,763.134827 817.501160,763.119873 817.687500,763.127686 
	C818.295166,767.581299 818.819458,772.020691 819.103455,776.475281 
	C819.308044,779.685059 818.239380,782.023315 814.398010,782.015869 
	C779.266235,781.947571 744.134460,781.908691 709.002686,781.843811 
	C708.518738,781.842896 708.035217,781.616943 707.196533,781.252075 
	C706.841675,781.008118 706.947998,780.939636 706.978760,780.881958 
	C742.227783,780.867126 777.445984,780.890381 812.664062,780.985779 
	C815.892517,780.994507 817.124817,779.647461 817.047363,776.503845 
	C816.945129,772.353943 817.078247,768.198181 817.118164,763.589905 
z"/>
<path fill="#54644F" opacity="1.000000" stroke="none" 
	d="
M591.808594,348.935486 
	C594.931396,348.285645 598.209961,347.527496 601.374146,347.859344 
	C610.126709,348.777222 613.264465,346.454926 612.860168,337.662323 
	C612.636230,332.791107 611.202393,327.975586 610.214722,322.826904 
	C612.844788,319.382416 614.713196,320.920013 614.832581,324.011200 
	C615.127563,331.645599 614.929138,339.306091 614.662292,346.946777 
	C614.626160,347.982361 613.063171,349.830048 612.200256,349.834106 
	C605.438538,349.866241 598.675049,349.540161 591.808594,348.935486 
z"/>
<path fill="#54644F" opacity="1.000000" stroke="none" 
	d="
M332.000000,599.062256 
	C305.129120,599.061707 278.758240,599.061707 252.387344,599.061707 
	C252.388824,598.742126 252.390320,598.422485 252.391800,598.102905 
	C291.039551,598.102905 329.687286,598.102905 368.334991,598.102905 
	C368.336182,598.422852 368.337341,598.742859 368.338501,599.062805 
	C356.392334,599.062805 344.446167,599.062805 332.000000,599.062256 
z"/>
<path fill="#3A4937" opacity="1.000000" stroke="none" 
	d="
M894.040039,275.853333 
	C890.149231,275.858673 886.750549,275.858673 883.351868,275.858673 
	C883.355652,275.649628 883.359375,275.440582 883.363098,275.231537 
	C915.340088,275.231537 947.317078,275.231537 979.294006,275.231537 
	C979.294373,275.437012 979.294678,275.642517 979.295044,275.847992 
	C951.040710,275.847992 922.786438,275.847992 894.040039,275.853333 
z"/>
<path fill="#54644F" opacity="1.000000" stroke="none" 
	d="
M558.488098,306.266144 
	C558.294922,305.902161 558.468872,305.937042 559.065186,305.966614 
	C574.956421,306.009247 590.251526,306.066467 605.545898,305.987213 
	C607.807373,305.975494 610.065552,305.318298 612.325256,304.959717 
	C612.325256,304.959717 612.424561,304.976868 612.795898,304.700195 
	C613.389587,296.153046 613.612000,287.882507 613.834351,279.612000 
	C614.225220,280.623047 614.940247,281.629547 614.954468,282.645813 
	C615.047302,289.304108 615.193054,295.975922 614.824524,302.615692 
	C614.740601,304.126770 612.716614,306.784241 611.567200,306.794189 
	C593.940369,306.946594 576.310486,306.747467 558.488098,306.266144 
z"/>
<path fill="#3A4937" opacity="1.000000" stroke="none" 
	d="
M296.973206,781.008301 
	C305.182159,780.643799 312.897339,780.280334 320.612488,779.916870 
	C320.619568,780.365784 320.626648,780.814636 320.633698,781.263550 
	C303.317444,781.263550 286.001160,781.263550 268.684875,781.263550 
	C268.687500,781.178833 268.690155,781.094116 268.692780,781.009399 
	C277.954987,781.009399 287.217194,781.009399 296.973206,781.008301 
z"/>
<path fill="#4A5D45" opacity="1.000000" stroke="none" 
	d="
M347.851746,494.972504 
	C333.802216,494.975189 320.228302,494.975189 306.654388,494.975189 
	C306.656281,494.734528 306.658203,494.493896 306.660095,494.253235 
	C322.849304,494.253235 339.038513,494.253235 355.227722,494.253235 
	C355.229309,494.492096 355.230896,494.730957 355.232483,494.969818 
	C352.930786,494.969818 350.629059,494.969818 347.851746,494.972504 
z"/>
<path fill="#959B5A" opacity="1.000000" stroke="none" 
	d="
M413.052063,643.374084 
	C419.856842,645.575867 424.820679,650.436462 428.905121,656.722473 
	C423.663269,652.619507 418.413391,648.155518 413.052063,643.374084 
z"/>
<path fill="#282626" opacity="1.000000" stroke="none" 
	d="
M355.971497,514.050720 
	C355.973114,510.433746 355.973114,507.305756 355.973114,504.177734 
	C356.245819,504.182098 356.518555,504.186432 356.791260,504.190765 
	C356.791260,516.719238 356.791260,529.247742 356.791260,541.776184 
	C356.517456,541.782837 356.243683,541.789490 355.969879,541.796143 
	C355.969879,532.710632 355.969879,523.625183 355.971497,514.050720 
z"/>
<path fill="#959B5A" opacity="1.000000" stroke="none" 
	d="
M382.948517,602.413574 
	C386.602173,607.794128 390.271088,613.544739 393.938354,619.678223 
	C390.279083,614.302002 386.621429,608.542908 382.948517,602.413574 
z"/>
<path fill="#54644F" opacity="1.000000" stroke="none" 
	d="
M557.445007,349.269257 
	C563.756287,348.667175 570.272888,348.422607 577.136719,348.254944 
	C576.836731,348.879913 576.190247,349.901367 575.542236,349.902313 
	C569.578430,349.911102 563.614380,349.743225 557.445007,349.269257 
z"/>
<path fill="#3A4937" opacity="1.000000" stroke="none" 
	d="
M44.358444,511.894043 
	C44.579090,522.522278 44.579090,533.371155 44.579090,544.219971 
	C44.431992,544.221497 44.284893,544.222961 44.137794,544.224487 
	C44.137794,533.521179 44.137794,522.817932 44.358444,511.894043 
z"/>
<path fill="#4A5D45" opacity="1.000000" stroke="none" 
	d="
M286.383514,273.062775 
	C295.425232,273.062408 304.021271,273.062408 312.617310,273.062408 
	C312.615448,273.287292 312.613586,273.512207 312.611725,273.737091 
	C302.280212,273.737091 291.948700,273.737091 281.617188,273.737091 
	C281.612152,273.579773 281.607117,273.422485 281.602051,273.265167 
	C283.047302,273.197815 284.492584,273.130493 286.383514,273.062775 
z"/>
<path fill="#54644F" opacity="1.000000" stroke="none" 
	d="
M544.163940,340.303589 
	C547.705261,342.669769 551.204163,345.393829 554.865173,348.390991 
	C549.399536,348.711823 546.242981,345.391937 544.163940,340.303589 
z"/>
<path fill="#3A4937" opacity="1.000000" stroke="none" 
	d="
M295.991974,390.039551 
	C290.705811,390.023529 285.915619,390.023529 281.125397,390.023529 
	C281.129181,389.756195 281.132965,389.488831 281.136749,389.221497 
	C290.368652,389.221497 299.600525,389.221497 308.832428,389.221497 
	C308.836273,389.499512 308.840118,389.777557 308.843964,390.055573 
	C304.725281,390.055573 300.606598,390.055573 295.991974,390.039551 
z"/>
<path fill="#282626" opacity="1.000000" stroke="none" 
	d="
M162.069702,526.025879 
	C162.070114,531.295349 162.070114,536.072021 162.070114,540.848633 
	C161.788956,540.845215 161.507812,540.841736 161.226654,540.838318 
	C161.226654,532.298889 161.226654,523.759460 161.226654,515.220093 
	C161.507538,515.204407 161.788406,515.188721 162.069290,515.173096 
	C162.069290,518.626404 162.069290,522.079773 162.069702,526.025879 
z"/>
<path fill="#3A4937" opacity="1.000000" stroke="none" 
	d="
M675.709290,221.299774 
	C670.646912,223.109024 665.193237,224.833405 659.442627,226.475250 
	C664.536438,224.666763 669.927185,222.940826 675.709290,221.299774 
z"/>
<path fill="#959B5A" opacity="1.000000" stroke="none" 
	d="
M438.975464,664.348694 
	C443.490570,666.479248 448.148193,668.940491 452.874084,671.745178 
	C448.334259,669.618896 443.726105,667.149109 438.975464,664.348694 
z"/>
<path fill="#3A4937" opacity="1.000000" stroke="none" 
	d="
M613.823853,279.628418 
	C613.612000,287.882507 613.389587,296.153046 612.842773,304.718628 
	C612.567810,297.305237 612.603943,289.596588 612.689819,281.888519 
	C612.697510,281.206787 613.030151,280.528656 613.518433,279.746765 
	C613.824951,279.644684 613.813293,279.644836 613.823853,279.628418 
z"/>
<path fill="#3A4937" opacity="1.000000" stroke="none" 
	d="
M656.707886,226.211227 
	C655.211304,227.578156 653.327820,228.852234 651.302185,230.399261 
	C649.473816,230.672195 647.787537,230.672195 646.101318,230.672195 
	C646.019653,230.194382 645.937988,229.716568 645.856323,229.238739 
	C649.344543,228.198624 652.832764,227.158493 656.707886,226.211227 
z"/>
<path fill="#959B5A" opacity="1.000000" stroke="none" 
	d="
M464.857544,646.685547 
	C460.620514,647.227112 457.144012,645.796875 455.060730,641.339722 
	C458.247742,642.784119 461.488342,644.573059 464.857544,646.685547 
z"/>
<path fill="#959B5A" opacity="1.000000" stroke="none" 
	d="
M453.062073,672.395264 
	C456.853088,673.865540 460.778412,675.663513 464.819824,677.784912 
	C461.022736,676.313171 457.109558,674.518066 453.062073,672.395264 
z"/>
<path fill="#959B5A" opacity="1.000000" stroke="none" 
	d="
M402.105408,631.187988 
	C404.738281,633.671814 407.324768,636.510681 409.911316,639.715027 
	C407.293945,637.234680 404.676514,634.388855 402.105408,631.187988 
z"/>
<path fill="#959B5A" opacity="1.000000" stroke="none" 
	d="
M429.030823,657.416565 
	C432.853363,656.922241 435.279083,659.026550 436.895142,662.735474 
	C434.326080,661.307068 431.735718,659.524170 429.030823,657.416565 
z"/>
<path fill="#54644F" opacity="1.000000" stroke="none" 
	d="
M647.085083,505.522308 
	C647.264709,510.110291 647.390442,515.157898 647.332275,520.564819 
	C647.109253,515.943420 647.070190,510.962677 647.085083,505.522308 
z"/>
<path fill="#54644F" opacity="1.000000" stroke="none" 
	d="
M544.768921,330.199402 
	C544.896667,332.478027 544.683960,334.918793 544.295898,337.665527 
	C544.223145,335.434814 544.325806,332.898193 544.768921,330.199402 
z"/>
<path fill="#54644F" opacity="1.000000" stroke="none" 
	d="
M608.630859,321.741333 
	C606.476074,322.249542 604.140808,322.414520 601.488831,322.430878 
	C603.598206,321.987549 606.024231,321.692841 608.630859,321.741333 
z"/>
<path fill="#959B5A" opacity="1.000000" stroke="none" 
	d="
M393.935059,620.405762 
	C397.036346,620.432617 398.170807,622.338501 397.936859,625.670532 
	C396.587250,624.293274 395.265656,622.525574 393.935059,620.405762 
z"/>
<path fill="#959B5A" opacity="1.000000" stroke="none" 
	d="
M605.098267,162.076950 
	C606.418640,160.370987 607.871582,158.777054 609.625977,157.060013 
	C609.927490,156.936920 610.169556,157.173645 610.163940,157.601440 
	C608.604309,159.490372 607.050293,160.951492 605.496338,162.412628 
	C605.496338,162.412643 605.230835,162.188980 605.098267,162.076950 
z"/>
<path fill="#A3AE4A" opacity="1.000000" stroke="none" 
	d="
M504.588806,674.156128 
	C504.162048,675.583679 503.426880,677.131470 502.383698,678.786987 
	C502.810577,677.355286 503.545471,675.815796 504.588806,674.156128 
z"/>
<path fill="#A3AE4A" opacity="1.000000" stroke="none" 
	d="
M506.578491,670.184082 
	C506.461853,671.242676 506.052551,672.433533 505.345337,673.753418 
	C505.460205,672.693787 505.873016,671.505066 506.578491,670.184082 
z"/>
<path fill="#959B5A" opacity="1.000000" stroke="none" 
	d="
M395.827301,516.794800 
	C395.526184,516.826172 395.459442,516.534790 395.652405,516.075195 
	C395.794189,516.133667 395.844055,516.322021 395.827301,516.794800 
z"/>
<path fill="#959B5A" opacity="1.000000" stroke="none" 
	d="
M436.983215,663.326904 
	C437.209778,663.162415 437.486145,663.330627 437.916656,663.710815 
	C437.756836,663.782593 437.410950,663.694763 436.983215,663.326904 
z"/>
<path fill="#959B5A" opacity="1.000000" stroke="none" 
	d="
M411.992584,642.291931 
	C412.185699,642.234192 412.447571,642.439697 412.842102,642.859009 
	C412.670288,642.900208 412.365814,642.727722 411.992584,642.291931 
z"/>
<path fill="#959B5A" opacity="1.000000" stroke="none" 
	d="
M410.988098,641.293457 
	C411.180176,641.236145 411.443329,641.441711 411.839355,641.861938 
	C411.667877,641.903198 411.363525,641.729736 410.988098,641.293457 
z"/>
<path fill="#959B5A" opacity="1.000000" stroke="none" 
	d="
M409.975952,640.302795 
	C410.173798,640.242432 410.434692,640.452026 410.834412,640.872559 
	C410.661835,640.913269 410.350372,640.742981 409.975952,640.302795 
z"/>
<path fill="#959B5A" opacity="1.000000" stroke="none" 
	d="
M399.971741,628.302246 
	C400.167450,628.261963 400.429260,628.496033 400.822510,628.959961 
	C400.648529,628.985413 400.343201,628.780945 399.971741,628.302246 
z"/>
<path fill="#959B5A" opacity="1.000000" stroke="none" 
	d="
M398.965332,627.303833 
	C399.162109,627.247681 399.422241,627.462952 399.822784,627.890564 
	C399.651672,627.927063 399.340179,627.751099 398.965332,627.303833 
z"/>
<path fill="#959B5A" opacity="1.000000" stroke="none" 
	d="
M397.990662,626.303101 
	C398.186157,626.248352 398.442383,626.460327 398.833038,626.884155 
	C398.662109,626.920593 398.356720,626.745178 397.990662,626.303101 
z"/>
<path fill="#959B5A" opacity="1.000000" stroke="none" 
	d="
M548.026855,429.949951 
	C547.647400,429.903473 547.365662,429.729828 547.001282,429.315674 
	C546.918701,429.075134 547.190186,428.873383 547.449768,428.941528 
	C547.889160,429.218536 548.090942,429.403473 548.314697,429.564453 
	C548.314697,429.564453 548.124573,429.822754 548.026855,429.949951 
z"/>
<path fill="#ACBB4B" opacity="1.000000" stroke="none" 
	d="
M502.662506,683.211426 
	C505.304169,679.173157 507.617065,675.333069 510.049835,671.570435 
	C511.104614,669.939148 512.188110,668.194763 513.666443,667.011292 
	C514.805054,666.099792 516.912659,665.244690 517.980103,665.723328 
	C519.045105,666.200684 519.865723,668.353333 519.911316,669.799316 
	C520.377197,684.582336 520.814087,699.369568 520.959473,714.158508 
	C521.123108,730.799744 520.978516,747.444031 520.953247,764.558594 
	C519.075500,762.291138 517.212524,759.552185 515.169373,756.548218 
	C511.903442,757.794800 507.259888,758.690186 506.222229,764.391418 
	C506.050293,765.336060 503.702423,765.884644 501.484619,767.093445 
	C500.910339,762.613342 500.084412,759.074524 500.063477,755.530945 
	C499.937042,734.109436 499.912964,712.686218 500.096375,691.265564 
	C500.118744,688.651062 501.585205,686.048950 502.662506,683.211426 
z"/>
<path fill="#ACBB4B" opacity="1.000000" stroke="none" 
	d="
M511.940247,762.975281 
	C511.937347,764.577942 511.647522,766.088013 511.357697,767.598022 
	C510.612946,767.296387 509.868195,766.994812 509.123444,766.693176 
	C509.966766,765.423035 510.810059,764.152832 511.940247,762.975281 
z"/>
<path fill="#4F7347" opacity="1.000000" stroke="none" 
	d="
M524.436340,842.057678 
	C524.006226,807.025391 523.997253,771.979065 524.374878,736.547974 
	C529.819519,736.255188 531.382751,739.406860 531.933411,743.866028 
	C532.357910,747.303345 532.579895,751.143982 534.279968,753.970398 
	C538.416138,760.847046 540.505676,768.095337 541.291260,775.994812 
	C541.500549,778.099609 543.706116,780.005859 544.997559,782.001648 
	C545.000000,782.000000 544.997131,782.004395 545.041809,782.159668 
	C545.395020,782.211548 545.703613,782.108215 546.356140,782.047119 
	C552.136902,782.058838 557.573669,782.028259 563.010437,781.997681 
	C563.450623,781.998962 563.890869,782.000305 564.973633,782.201904 
	C568.742126,782.602539 571.867981,782.802979 574.993896,783.003418 
	C579.940857,783.227600 584.891296,783.393005 589.833801,783.690857 
	C596.137512,784.070679 602.506592,784.115112 608.714600,785.122742 
	C614.923157,786.130615 620.887329,788.735657 627.102905,789.586792 
	C636.830750,790.918823 636.129761,798.718933 638.819275,805.212524 
	C642.082825,813.091797 640.831238,819.918579 637.116089,826.445129 
	C633.837585,832.204590 629.496765,836.726074 621.353027,836.522644 
	C614.505554,836.351624 607.600464,838.578552 600.716858,839.720032 
	C597.950928,840.178589 595.187622,840.778564 592.400146,840.958801 
	C583.277100,841.548706 574.148560,842.152527 565.012512,842.407043 
	C558.086792,842.600098 551.146667,842.248718 544.212585,842.175232 
	C537.761169,842.106873 531.309143,842.085632 524.436340,842.057678 
M528.034607,743.329651 
	C527.537781,743.103455 527.040955,742.877197 526.544128,742.651001 
	C526.418701,745.362671 526.293274,748.074341 526.167908,750.786011 
	C526.845093,750.784607 527.522278,750.783264 528.199463,750.781860 
	C528.199463,748.502136 528.199463,746.222351 528.034607,743.329651 
z"/>
<path fill="#577D4D" opacity="1.000000" stroke="none" 
	d="
M522.658875,674.009705 
	C522.303711,670.944641 522.206421,667.887207 522.164917,664.370483 
	C530.520264,663.348877 538.819824,662.786438 546.056702,662.295959 
	C556.054688,659.219299 565.335327,656.363403 575.454407,653.249512 
	C576.271912,650.446594 578.499268,648.501526 583.116333,647.794800 
	C586.871338,647.220093 590.342468,643.941406 593.641296,641.464600 
	C597.215637,638.781067 600.355347,635.526062 603.848145,632.724243 
	C607.664978,629.662476 612.079529,627.239014 615.478577,623.792725 
	C619.026123,620.195862 621.784790,615.788574 624.688660,611.597168 
	C628.734070,605.758057 632.600403,599.794434 636.528076,593.874023 
	C637.343018,592.645630 638.307983,591.458008 638.838013,590.107971 
	C646.632019,570.255127 650.622437,549.654175 650.361023,528.322327 
	C650.237061,518.201904 649.533447,508.088623 649.254822,497.342041 
	C649.635559,496.489594 649.844482,496.258698 650.044067,496.019287 
	C650.475464,496.021729 650.906799,496.024139 651.661377,496.022217 
	C655.917053,496.018951 659.849548,496.018494 663.782043,496.021454 
	C673.365906,496.028656 675.684631,497.922302 675.856445,507.506866 
	C676.028198,517.089294 675.715759,526.696045 675.209290,536.270569 
	C674.739868,545.146362 674.111877,554.049500 672.817322,562.832031 
	C672.078064,567.847656 670.155457,572.761475 668.254456,577.516724 
	C665.125610,585.343262 661.565674,592.996948 658.230408,600.741943 
	C657.715698,601.937073 657.134644,603.221802 657.097778,604.480225 
	C657.017761,607.207214 656.065979,608.701294 653.179260,609.301025 
	C651.799744,609.587524 649.914490,611.052673 649.605469,612.314026 
	C646.825073,623.661560 638.090820,630.936218 631.000183,639.144836 
	C625.987915,644.947510 619.505554,649.528809 613.430786,654.341431 
	C610.977844,656.284790 607.862000,657.391235 604.036499,659.413025 
	C603.759033,662.238708 600.752563,663.901001 596.939819,665.460510 
	C592.703186,667.193420 589.179199,670.693481 584.927795,672.360596 
	C574.702332,676.370300 564.744751,681.154724 553.712830,683.043335 
	C550.659546,683.566040 548.022888,686.522583 545.093201,689.132751 
	C544.934082,691.937927 544.876892,693.972900 544.578613,696.127563 
	C544.496094,697.162415 544.654724,698.077393 544.840942,699.442871 
	C544.851807,702.600708 544.835022,705.308105 544.516296,708.219360 
	C542.517700,712.047424 541.915710,715.611389 544.824036,719.452026 
	C544.837036,725.941406 544.821838,731.962402 544.466309,737.919678 
	C543.509705,737.008545 542.453308,736.210876 542.350769,735.305176 
	C541.815063,730.575745 541.267639,725.822449 541.199829,721.070740 
	C541.080688,712.729980 541.401489,704.382568 541.252380,696.043091 
	C541.236267,695.141174 539.381165,693.592407 538.300781,693.520569 
	C535.411377,693.328613 534.451050,691.622559 535.527039,689.611572 
	C539.215698,682.717773 532.750061,678.969666 531.842834,673.553589 
	C531.148071,673.455322 530.453247,673.357056 529.758484,673.258850 
	C528.466187,676.549377 527.173889,679.839966 525.881592,683.130554 
	C525.244873,681.570007 524.522095,680.037781 523.996887,678.440552 
	C523.524231,677.003174 523.268250,675.494507 522.658875,674.009705 
z"/>
<path fill="#53794B" opacity="1.000000" stroke="none" 
	d="
M525.892822,683.568115 
	C527.173889,679.839966 528.466187,676.549377 529.758484,673.258850 
	C530.453247,673.357056 531.148071,673.455322 531.842834,673.553589 
	C532.750061,678.969666 539.215698,682.717773 535.527039,689.611572 
	C534.451050,691.622559 535.411377,693.328613 538.300781,693.520569 
	C539.381165,693.592407 541.236267,695.141174 541.252380,696.043091 
	C541.401489,704.382568 541.080688,712.729980 541.199829,721.070740 
	C541.267639,725.822449 541.815063,730.575745 542.350769,735.305176 
	C542.453308,736.210876 543.509705,737.008545 544.507812,738.388550 
	C544.938721,752.257385 544.987915,765.593811 545.037109,778.930176 
	C545.030396,779.386841 545.023621,779.843506 545.009644,780.897339 
	C544.999939,781.664124 544.997498,781.833740 544.995117,782.003296 
	C543.706116,780.005859 541.500549,778.099609 541.291260,775.994812 
	C540.505676,768.095337 538.416138,760.847046 534.279968,753.970398 
	C532.579895,751.143982 532.357910,747.303345 531.933411,743.866028 
	C531.382751,739.406860 529.819519,736.255188 524.384521,736.079041 
	C523.991089,724.042603 523.777222,712.085876 524.047424,700.140076 
	C524.169312,694.750732 525.255432,689.383118 525.892822,683.568115 
z"/>
<path fill="#3A4937" opacity="1.000000" stroke="none" 
	d="
M545.258667,778.588867 
	C544.987915,765.593811 544.938721,752.257385 544.848022,738.452148 
	C544.821838,731.962402 544.837036,725.941406 544.866699,718.998047 
	C544.860107,714.722290 544.839172,711.368896 544.818237,708.015503 
	C544.835022,705.308105 544.851807,702.600708 544.877319,699.070801 
	C544.863953,697.501404 544.841797,696.754639 544.819702,696.007812 
	C544.876892,693.972900 544.934082,691.937927 545.003357,689.468506 
	C545.324646,690.473938 545.900208,691.913391 545.903503,693.354065 
	C545.965637,720.674622 545.965332,747.995300 545.948303,775.315979 
	C545.947693,776.293274 545.643127,777.270386 545.258667,778.588867 
z"/>
<path fill="#53744B" opacity="1.000000" stroke="none" 
	d="
M544.997559,782.001648 
	C544.997498,781.833740 544.999939,781.664124 545.005981,781.239868 
	C550.767883,781.191467 556.526184,781.397705 562.647461,781.800781 
	C557.573669,782.028259 552.136902,782.058838 546.102295,782.046509 
	C545.335327,782.003906 545.166199,782.004150 544.997131,782.004395 
	C544.997131,782.004395 545.000000,782.000000 544.997559,782.001648 
z"/>
<path fill="#53744B" opacity="1.000000" stroke="none" 
	d="
M574.644775,782.803894 
	C571.867981,782.802979 568.742126,782.602539 565.303772,782.204834 
	C568.092773,782.206482 571.194275,782.405396 574.644775,782.803894 
z"/>
<path fill="#3A4937" opacity="1.000000" stroke="none" 
	d="
M611.823608,304.959412 
	C610.065552,305.318298 607.807373,305.975494 605.545898,305.987213 
	C590.251526,306.066467 574.956421,306.009247 559.149902,305.993103 
	C560.903564,305.649231 563.167236,305.026520 565.434448,305.013153 
	C580.729858,304.923004 596.026062,304.961975 611.823608,304.959412 
z"/>
<path fill="#3A4937" opacity="1.000000" stroke="none" 
	d="
M677.938416,232.970169 
	C676.431458,232.917969 675.205505,232.849152 673.979553,232.780334 
	C673.986694,232.543915 673.993835,232.307480 674.000977,232.071060 
	C675.427002,232.071060 676.852966,232.067627 678.278992,232.075882 
	C678.438049,232.076797 678.596680,232.144135 678.755554,232.180664 
	C678.576843,232.438293 678.398132,232.695923 677.938416,232.970169 
z"/>
<path fill="#3A4937" opacity="1.000000" stroke="none" 
	d="
M667.044250,231.965515 
	C665.845642,231.939804 664.911804,231.896790 663.977905,231.853775 
	C663.967896,231.650879 663.957947,231.447998 663.947998,231.245117 
	C665.069153,231.174072 666.190002,231.097443 667.311829,231.038528 
	C667.464478,231.030518 667.621765,231.111145 667.776978,231.150726 
	C667.620972,231.416550 667.464966,231.682388 667.044250,231.965515 
z"/>
<path fill="#3A4937" opacity="1.000000" stroke="none" 
	d="
M657.086670,230.394348 
	C656.438965,230.690887 655.690918,230.830887 654.942932,230.970886 
	C654.912170,230.771606 654.881348,230.572327 654.850586,230.373062 
	C655.562500,230.327972 656.274414,230.282883 657.086670,230.394348 
z"/>
<path fill="#3A4937" opacity="1.000000" stroke="none" 
	d="
M680.908020,220.440704 
	C680.950989,220.392792 681.096924,220.566666 681.096924,220.566666 
	C681.096924,220.566666 680.865051,220.488617 680.908020,220.440704 
z"/>
<path fill="#507445" opacity="1.000000" stroke="none" 
	d="
M610.990479,251.008118 
	C611.288635,252.115005 611.586792,253.221878 611.695190,254.935394 
	C609.755859,260.517853 605.902039,259.956360 601.710999,259.753510 
	C594.184265,259.389191 586.627258,259.650696 577.784424,259.650696 
	C580.355164,259.947510 581.672729,260.099670 582.990295,260.251801 
	C582.967285,260.172180 582.944275,260.092560 582.921265,260.012939 
	C532.958008,260.012939 482.994781,260.012939 433.031555,260.012939 
	C433.031555,260.012939 433.009491,259.987885 433.003296,259.645142 
	C432.996063,258.862183 432.995026,258.421997 432.993988,257.981812 
	C432.525909,252.843689 433.981445,248.312225 436.312683,243.681625 
	C438.281219,239.771362 438.876678,235.162170 440.018463,230.846054 
	C440.740753,228.115707 441.052795,225.224167 444.654602,224.493988 
	C445.405853,224.341675 445.998322,223.145828 446.559387,222.356537 
	C451.305969,215.678940 455.216949,208.157043 460.971252,202.511856 
	C467.586548,196.022034 475.646088,190.913849 483.454895,185.778122 
	C486.355133,183.870682 490.310669,182.784088 493.804535,182.735657 
	C499.962067,182.650299 505.345795,180.588058 511.020447,178.675537 
	C522.229797,174.897614 533.384155,177.364517 544.339661,180.649139 
	C545.444397,180.980362 546.450562,181.668335 547.563660,181.939545 
	C561.749207,185.395905 573.229187,193.878479 584.169250,202.780869 
	C591.748047,208.948074 597.178833,217.451004 601.970154,226.010956 
	C604.830811,231.121689 606.574524,236.857635 608.975220,242.914734 
	C609.386658,243.978409 609.643127,244.439880 609.899658,244.901337 
	C609.918274,245.369080 609.936951,245.836838 609.797119,246.921204 
	C610.089233,248.694595 610.539856,249.851364 610.990479,251.008118 
z"/>
<path fill="#53744B" opacity="1.000000" stroke="none" 
	d="
M433.023682,260.342896 
	C482.994781,260.012939 532.958008,260.012939 582.921265,260.012939 
	C582.944275,260.092560 582.967285,260.172180 582.990295,260.251801 
	C581.672729,260.099670 580.355164,259.947510 577.784424,259.650696 
	C586.627258,259.650696 594.184265,259.389191 601.710999,259.753510 
	C605.902039,259.956360 609.755859,260.517853 611.738403,255.276840 
	C611.917725,261.984619 611.917725,262.014160 605.186646,262.014465 
	C548.107605,262.017090 491.028534,262.008087 433.482605,261.997864 
	C433.015778,261.553040 433.015778,261.112946 433.023682,260.342896 
z"/>
<path fill="#53744B" opacity="1.000000" stroke="none" 
	d="
M610.991455,250.606018 
	C610.539856,249.851364 610.089233,248.694595 609.808350,247.272110 
	C609.978027,247.006409 610.448853,246.998199 610.683594,246.993011 
	C610.943054,248.059845 610.967773,249.131866 610.991455,250.606018 
z"/>
<path fill="#53744B" opacity="1.000000" stroke="none" 
	d="
M432.867065,258.164856 
	C432.995026,258.421997 432.996063,258.862183 432.993530,259.631592 
	C432.906677,259.423187 432.823395,258.885529 432.867065,258.164856 
z"/>
<path fill="#53744B" opacity="1.000000" stroke="none" 
	d="
M609.843506,244.641327 
	C609.643127,244.439880 609.386658,243.978409 609.066956,243.255737 
	C609.265015,243.456818 609.526184,243.919083 609.843506,244.641327 
z"/>
<path fill="#54644F" opacity="1.000000" stroke="none" 
	d="
M649.859497,496.165222 
	C649.844482,496.258698 649.635559,496.489594 649.251526,496.875916 
	C649.246216,496.767822 649.442566,496.524933 649.859497,496.165222 
z"/>
<path fill="#B2BE4E" opacity="1.000000" stroke="none" 
	d="
M548.687073,429.673706 
	C548.090942,429.403473 547.889160,429.218536 547.588013,428.844147 
	C547.116455,426.898651 546.839111,425.100586 546.402771,423.341949 
	C544.838135,417.037079 547.878723,411.593842 554.205566,409.808472 
	C556.100708,409.273682 558.141052,409.045258 560.116455,409.036346 
	C575.614014,408.966217 591.113403,409.103394 606.608765,408.902405 
	C611.368896,408.840668 613.329712,410.545258 613.010315,415.324188 
	C612.755249,419.140045 612.902527,422.987152 612.968079,426.818756 
	C613.023804,430.077393 611.549011,431.964172 608.269531,431.963531 
	C591.107971,431.960144 573.945251,431.962189 556.786011,431.733978 
	C554.202271,431.699615 551.634583,430.463287 548.687073,429.673706 
z"/>
<path fill="#577D4D" opacity="1.000000" stroke="none" 
	d="
M522.462402,798.543518 
	C522.262573,794.932190 522.214050,790.960449 522.244507,786.543579 
	C522.420227,790.126648 522.516907,794.154907 522.462402,798.543518 
z"/>
<path fill="#A7B251" opacity="1.000000" stroke="none" 
	d="
M605.536438,162.688385 
	C607.050293,160.951492 608.604309,159.490372 610.284790,157.720062 
	C616.822876,151.927643 623.223328,146.431198 629.654602,140.970932 
	C631.162415,139.690765 632.774109,138.532928 634.338074,137.318817 
	C634.812683,137.708755 635.287292,138.098709 635.761841,138.488647 
	C630.124268,149.722794 624.486633,160.956940 618.414917,173.056137 
	C617.649719,171.468079 617.216797,170.946915 617.155579,170.385239 
	C616.400574,163.460205 616.422607,163.542740 609.420410,164.206665 
	C608.189453,164.323380 606.860352,163.404678 605.536438,162.688385 
z"/>
<path fill="#A7B251" opacity="1.000000" stroke="none" 
	d="
M604.986023,165.418335 
	C605.026367,165.420013 604.945679,165.416641 604.986023,165.418335 
z"/>
<path fill="#53794B" opacity="1.000000" stroke="none" 
	d="
M528.117065,743.636108 
	C528.199463,746.222351 528.199463,748.502136 528.199463,750.781860 
	C527.522278,750.783264 526.845093,750.784607 526.167908,750.786011 
	C526.293274,748.074341 526.418701,745.362671 526.544067,742.651001 
	C527.040955,742.877197 527.537781,743.103455 528.117065,743.636108 
z"/>
<path fill="#53794B" opacity="1.000000" stroke="none" 
	d="
M545.041809,782.159668 
	C545.166199,782.004150 545.335327,782.003906 545.758301,782.004272 
	C545.703613,782.108215 545.395020,782.211548 545.041809,782.159668 
z"/>
<path fill="#53794B" opacity="1.000000" stroke="none" 
	d="
M544.516235,708.219360 
	C544.839172,711.368896 544.860107,714.722290 544.838379,718.529663 
	C541.915710,715.611389 542.517700,712.047424 544.516235,708.219360 
z"/>
<path fill="#53794B" opacity="1.000000" stroke="none" 
	d="
M544.578552,696.127563 
	C544.841797,696.754639 544.863953,697.501404 544.849731,698.620361 
	C544.654724,698.077393 544.496094,697.162415 544.578552,696.127563 
z"/>
</svg>