<?xml version="1.0" encoding="UTF-8"?>
<svg version="1.1" xmlns="http://www.w3.org/2000/svg" width="500" height="500">
<path d="M0 0 C-0.57354541 5.14142493 -3.04668092 9.17408674 -5.5 13.625 C-6.32492077 15.1369291 -7.14791939 16.64990894 -7.96875 18.1640625 C-8.51692383 19.16107178 -8.51692383 19.16107178 -9.07617188 20.17822266 C-10.13071345 22.14709356 -10.13071345 22.14709356 -11 25 C-11.66 25 -12.32 25 -13 25 C-13.12979248 25.57959473 -13.25958496 26.15918945 -13.39331055 26.75634766 C-14.40419521 30.49479034 -16.15964781 33.88331224 -17.8125 37.375 C-18.15603516 38.1175 -18.49957031 38.86 -18.85351562 39.625 C-20.92606475 44.02673661 -23.19257199 48.025439 -26 52 C-27.6256807 51.69106068 -29.25052748 51.3777305 -30.875 51.0625 C-31.77992188 50.88847656 -32.68484375 50.71445313 -33.6171875 50.53515625 C-36 50 -36 50 -38 49 C-58.16825739 46.87815358 -76.21638774 49.32910361 -92.6328125 62.0703125 C-105.95644613 73.16953159 -114.60276607 89.72887684 -116.18017578 106.96923828 C-117.32229815 124.28938077 -113.22762411 142.87509411 -101.5625 156.25 C-100.2940625 157.61125 -100.2940625 157.61125 -99 159 C-99 159.66 -99 160.32 -99 161 C-98.34 161 -97.68 161 -97 161 C-97 161.66 -97 162.32 -97 163 C-96.44441406 163.25007812 -95.88882813 163.50015625 -95.31640625 163.7578125 C-92.60917742 165.20958108 -90.35880131 166.98502991 -87.9375 168.875 C-74.81919071 178.45812423 -57.90517901 181.46953377 -42 179 C-31.37816673 177.24197606 -23.4817687 174.07882246 -14.6953125 167.828125 C-12 166 -12 166 -10 166 C-10 165.34 -10 164.68 -10 164 C-8.68 163.67 -7.36 163.34 -6 163 C-4.99406757 164.1196986 -3.9954151 165.2459412 -3 166.375 C-2.1646875 167.31472656 -2.1646875 167.31472656 -1.3125 168.2734375 C0 170 0 170 0 172 C0.66 172 1.32 172 2 172 C2 172.66 2 173.32 2 174 C2.66 174 3.32 174 4 174 C4 174.66 4 175.32 4 176 C4.53882813 176.24234375 5.07765625 176.4846875 5.6328125 176.734375 C8.59330538 178.31721278 11.16753906 180.26497876 13.875 182.25 C20.53727469 187.01041261 27.41241717 189.98277345 35 193 C36.3423747 193.64826876 37.68049206 194.30637113 39 195 C38.67 196.32 38.34 197.64 38 199 C37.34 199 36.68 199 36 199 C36 199.66 36 200.32 36 201 C35.34 201 34.68 201 34 201 C34 201.66 34 202.32 34 203 C14.41696747 224.4600005 -16.57614737 237.48168802 -45.125 238.8125 C-74.35118759 239.81700894 -99.74912478 232.26740125 -124 216 C-124.99 215.34 -125.98 214.68 -127 214 C-127 213.34 -127 212.68 -127 212 C-127.56332031 211.7525 -128.12664062 211.505 -128.70703125 211.25 C-150.05456461 199.61250311 -164.4705739 171.97675724 -171.30078125 149.5390625 C-171.64689453 148.28222656 -171.64689453 148.28222656 -172 147 C-172.19980469 146.28585937 -172.39960938 145.57171875 -172.60546875 144.8359375 C-178.03665392 123.02952485 -178.24763603 97.30097541 -169.83984375 76.21875 C-168.83871922 73.57391868 -168.0262193 70.88810653 -167.1875 68.1875 C-165.17045638 62.02649129 -162.28872965 56.56891554 -159 51 C-158.34 51 -157.68 51 -157 51 C-156.896875 50.43539062 -156.79375 49.87078125 -156.6875 49.2890625 C-154.34339551 41.48426004 -147.24532011 34.84244459 -141.8203125 29.03125 C-139.95458126 27.12905922 -139.95458126 27.12905922 -139 25 C-138.34 25 -137.68 25 -137 25 C-137 24.34 -137 23.68 -137 23 C-136.34 23 -135.68 23 -135 23 C-135 22.34 -135 21.68 -135 21 C-134.34 21 -133.68 21 -133 21 C-133 20.34 -133 19.68 -133 19 C-131.6706543 17.79492187 -131.6706543 17.79492187 -129.82421875 16.46875 C-129.16099609 15.98792969 -128.49777344 15.50710937 -127.81445312 15.01171875 C-127.11255859 14.51285156 -126.41066406 14.01398438 -125.6875 13.5 C-124.99720703 13.00113281 -124.30691406 12.50226563 -123.59570312 11.98828125 C-115.28756493 6 -115.28756493 6 -112 6 C-112 5.34 -112 4.68 -112 4 C-77.54333758 -12.4137529 -35.35994125 -18.49924408 0 0 Z " fill="#060606" transform="translate(196,143)"/>
<path d="M0 0 C7.81452752 -0.02526563 15.62904458 -0.04283105 23.44360352 -0.05493164 C26.10441481 -0.05997383 28.76522332 -0.06680736 31.42602539 -0.07543945 C35.24105516 -0.08751009 39.05604844 -0.09322929 42.87109375 -0.09765625 C44.66793861 -0.10539818 44.66793861 -0.10539818 46.50108337 -0.11329651 C48.15268211 -0.11340981 48.15268211 -0.11340981 49.83764648 -0.11352539 C50.81249496 -0.115746 51.78734344 -0.11796661 52.79173279 -0.12025452 C55 0 55 0 56 1 C56.09987036 3.38838158 56.13442407 5.74790165 56.12698364 8.13684082 C56.12854363 8.89244687 56.13010362 9.64805291 56.13171089 10.42655611 C56.13572376 12.97774951 56.13253014 15.5288842 56.12939453 18.08007812 C56.13074845 19.90124039 56.13252832 21.72240238 56.13470459 23.54356384 C56.1392801 28.50416416 56.13748888 33.46474377 56.1343255 38.42534447 C56.13180251 43.6045678 56.13413927 48.7837893 56.13571167 53.9630127 C56.13753354 62.66235677 56.13512659 71.36169237 56.13037109 80.06103516 C56.12492844 90.13404726 56.12669108 100.20703914 56.1321975 110.28005075 C56.13672812 118.91186398 56.13737943 127.5436711 56.13475883 136.17548513 C56.13319578 141.33818996 56.13300306 146.50088526 56.13629532 151.66358948 C56.1391733 156.51604223 56.13719969 161.36846876 56.13140106 166.22091866 C56.13007307 168.00721251 56.13046824 169.79350856 56.13266373 171.57980156 C56.13537371 174.00761774 56.13199599 176.43534852 56.12698364 178.86315918 C56.12921436 179.57938965 56.13144509 180.29562013 56.13374341 181.03355455 C56.11414986 185.88585014 56.11414986 185.88585014 55 187 C53.31744765 187.0987517 51.63075972 187.12798904 49.9453125 187.12939453 C48.32858643 187.13412277 48.32858643 187.13412277 46.67919922 187.13894653 C45.50631348 187.1369223 44.33342773 187.13489807 43.125 187.1328125 C41.9302002 187.13376923 40.73540039 187.13472595 39.50439453 187.13571167 C36.9723302 187.13639371 34.44026412 187.13453778 31.90820312 187.13037109 C28.0168874 187.12502321 24.12568711 187.13031533 20.234375 187.13671875 C17.78124974 187.13605797 15.32812456 187.13477682 12.875 187.1328125 C11.70211426 187.13483673 10.52922852 187.13686096 9.32080078 187.13894653 C8.2429834 187.13579437 7.16516602 187.13264221 6.0546875 187.12939453 C5.10062012 187.12859894 4.14655273 187.12780334 3.16357422 187.12698364 C1 187 1 187 0 186 C-0.09766542 183.59671471 -0.12996828 181.22220648 -0.12025452 178.81846619 C-0.12110894 178.05807102 -0.12196337 177.29767586 -0.12284368 176.51423842 C-0.12450078 173.9468875 -0.11897339 171.37960083 -0.11352539 168.81225586 C-0.11324354 166.97961936 -0.11340121 165.14698275 -0.1139679 163.31434631 C-0.11425596 158.32281938 -0.10835777 153.33131625 -0.10139394 148.33979487 C-0.09516191 143.12940894 -0.09455672 137.91902251 -0.09336853 132.70863342 C-0.09025477 122.83468975 -0.08204078 112.96075709 -0.07201904 103.08681828 C-0.06085929 91.84879999 -0.0553478 80.61078119 -0.05032361 69.37275875 C-0.0398582 46.24849971 -0.02225789 23.12425047 0 0 Z " fill="#070707" transform="translate(344,195)"/>
<path d="M0 0 C55.44 0 110.88 0 168 0 C169.19015282 3.57045847 168.80847184 4.03006526 167.2265625 7.2890625 C166.61433838 8.56475098 166.61433838 8.56475098 165.98974609 9.86621094 C165.53937988 10.77661133 165.08901367 11.68701172 164.625 12.625 C164.16818848 13.56633789 163.71137695 14.50767578 163.24072266 15.47753906 C160.39644275 21.2958759 157.4300103 27.04018335 154.375 32.75 C149.98365553 41.030821 145.99105862 49.51900042 142 58 C95.14 58 48.28 58 0 58 C0 38.86 0 19.72 0 0 Z " fill="#040404" transform="translate(310,133)"/>
<path d="M0 0 C5.28 0 10.56 0 16 0 C17.63495668 24.23712814 16.42569862 47.95704453 0.1640625 67.5625 C-11.76448181 81.15576308 -26.38090564 91.30157484 -44 96 C-45.32 96 -46.64 96 -48 96 C-48 110.19 -48 124.38 -48 139 C-44.16375 139.12375 -40.3275 139.2475 -36.375 139.375 C-8.89842935 140.42926117 -8.89842935 140.42926117 -3 146 C-0.7490277 149.45461722 -0.73134476 152.43315781 -0.75 156.5 C-0.74226563 158.18609375 -0.74226563 158.18609375 -0.734375 159.90625 C-0.99050164 162.88937205 -1.35797953 164.53412842 -3 167 C-8.54227259 170.89456993 -15.432854 171.27689083 -22 172 C-22.79849365 172.08902588 -23.5969873 172.17805176 -24.41967773 172.26977539 C-35.39257634 173.30603782 -46.40464501 173.18606908 -57.41625977 173.18530273 C-60.89807626 173.1874754 -64.37956799 173.20564259 -67.86132812 173.22460938 C-78.6902254 173.25315478 -89.45859577 173.08166504 -100.25390625 172.17578125 C-101.14021225 172.10642868 -102.02651825 172.03707611 -102.93968201 171.96562195 C-108.9410142 171.38891309 -114.81612586 170.56716634 -118.9140625 165.75 C-120.2555441 162.35286674 -120.39858967 159.64853632 -120.375 156 C-120.38273438 154.80375 -120.39046875 153.6075 -120.3984375 152.375 C-119.96738097 148.72369761 -119.26588763 146.87080786 -117 144 C-106.67014729 136.7096836 -85.06668103 139.40121198 -73 139 C-73.01332367 138.44813522 -73.02664734 137.89627045 -73.04037476 137.3276825 C-73.17407177 131.53567028 -73.26400178 125.74410265 -73.32958984 119.95092773 C-73.35959177 117.79482186 -73.40040762 115.63883627 -73.45263672 113.4831543 C-73.98025482 91.13180297 -73.98025482 91.13180297 -68.85449219 83.7097168 C-65.6064595 80.71524959 -62.72559032 80.4954487 -58.4375 80.5625 C-56.83024219 80.48328853 -55.22342111 80.39467959 -53.6171875 80.296875 C-52.83182617 80.25755859 -52.04646484 80.21824219 -51.23730469 80.17773438 C-36.41035458 78.9998623 -23.85016155 69.49356246 -14 59 C-6.22626933 48.77444333 -0.89795671 37.26520333 -0.5859375 24.31640625 C-0.56657135 23.61603745 -0.5472052 22.91566864 -0.5272522 22.19407654 C-0.46805109 19.98367019 -0.42131275 17.77321005 -0.375 15.5625 C-0.33676524 14.05271319 -0.29771042 12.5429469 -0.2578125 11.03320312 C-0.16087358 7.355583 -0.08083845 3.67814927 0 0 Z " fill="#53774A" transform="translate(315,240)"/>
<path d="M0 0 C30.03 0 60.06 0 91 0 C91 38.28364333 91 38.28364333 79.21484375 52.828125 C69.63528839 62.22183361 58.23718777 66.53669812 45.125 66.4375 C44.19558594 66.45748047 43.26617187 66.47746094 42.30859375 66.49804688 C30.4544984 66.48978042 20.43427769 61.23762354 12 53 C-2.09827919 36.692289 0 23.05108004 0 0 Z " fill="#B2C04D" transform="translate(209,240)"/>
<path d="M0 0 C8.15856296 7.50308867 13.68062539 16.89362271 15 28 C15 29.98 15 31.96 15 34 C-15.03 34 -45.06 34 -76 34 C-76 20.29706157 -71.53456531 10.8462147 -62.375 0.8125 C-44.9246204 -15.93585284 -18.2750919 -14.42620359 0 0 Z " fill="#56774D" transform="translate(285,95)"/>
<path d="M0 0 C3.63 0 7.26 0 11 0 C9.68 0.33 8.36 0.66 7 1 C7 30.37 7 59.74 7 90 C15.25 90 23.5 90 32 90 C32 90.33 32 90.66 32 91 C24.85484986 91.05158742 17.70974932 91.08609633 10.56445312 91.10986328 C8.14418748 91.1197929 5.72393341 91.13334106 3.30371094 91.15087891 C-8.92871342 91.23716572 -21.10781212 91.20873611 -33.3046875 90.1796875 C-34.18778595 90.1100882 -35.0708844 90.04048889 -35.98074341 89.96878052 C-41.96509112 89.38853452 -47.82916522 88.55183844 -51.9140625 83.75 C-53.2555441 80.35286674 -53.39858967 77.64853632 -53.375 74 C-53.38273438 72.80375 -53.39046875 71.6075 -53.3984375 70.375 C-52.96738097 66.72369761 -52.26588763 64.87080786 -50 62 C-39.67014729 54.7096836 -18.06668103 57.40121198 -6 57 C-6.01332367 56.44813522 -6.02664734 55.89627045 -6.04037476 55.3276825 C-6.17407177 49.53567028 -6.26400178 43.74410265 -6.32958984 37.95092773 C-6.35959177 35.79482186 -6.40040762 33.63883627 -6.45263672 31.4831543 C-6.97352254 9.41700091 -6.97352254 9.41700091 0 0 Z " fill="#A4B148" transform="translate(248,322)"/>
<path d="M0 0 C8.58 0 17.16 0 26 0 C26.0825 3.91875 26.165 7.8375 26.25 11.875 C26.61844922 23.77374258 27.62410072 35.64786163 32.12890625 46.79296875 C33 49 33 49 33 52 C19.22978723 52.65077929 5.47431839 53.10324851 -8.3125 53.125 C-10.09865723 53.13176758 -10.09865723 53.13176758 -11.92089844 53.13867188 C-13.59394043 53.13577148 -13.59394043 53.13577148 -15.30078125 53.1328125 C-16.28216064 53.13168457 -17.26354004 53.13055664 -18.2746582 53.12939453 C-20.9468386 53.00252401 -23.3961276 52.59722116 -26 52 C-24.38598303 46.52830512 -21.94676544 41.62915352 -19.375 36.5625 C-18.71383179 35.2487439 -18.71383179 35.2487439 -18.03930664 33.90844727 C-14.926303 27.75027241 -11.73020164 21.63968035 -8.42529297 15.58227539 C-7.05973802 13.0675159 -5.90789632 10.72368896 -5 8 C-4.34 8 -3.68 8 -3 8 C-2.87625 7.4225 -2.7525 6.845 -2.625 6.25 C-2 4 -2 4 0 0 Z " fill="#0E0E0E" transform="translate(148,240)"/>
<path d="M0 0 C1.27875 0.00257813 2.5575 0.00515625 3.875 0.0078125 C5.15375 0.00523437 6.4325 0.00265625 7.75 0 C10.875 0.1328125 10.875 0.1328125 11.875 1.1328125 C11.91373699 2.80039289 11.88645513 4.4695766 11.83203125 6.13671875 C11.3266986 27.87945348 13.73487524 45.46227802 28.875 62.1328125 C38.5018806 71.89870943 49.03529839 76.95158402 61.875 81.1328125 C60.36025928 85.94996092 58.45917449 89.82585502 55.875 94.1328125 C42.25266736 94.1328125 29.38047711 85.21515231 19.875 76.1328125 C4.14181147 60.29828298 -4.92785752 41.06687302 -5.25 18.4453125 C-5.0536712 0.21478103 -5.0536712 0.21478103 0 0 Z " fill="#AFBC51" transform="translate(182.125,239.8671875)"/>
<path d="M0 0 C5.28 0 10.56 0 16 0 C17.63495668 24.23712814 16.42569862 47.95704453 0.1640625 67.5625 C-6.40300135 75.03786554 -13.8717019 82.7885352 -23 87 C-23 85.68 -23 84.36 -23 83 C-20.525 82.505 -20.525 82.505 -18 82 C-18.185625 81.443125 -18.37125 80.88625 -18.5625 80.3125 C-19 78 -19 78 -18.4375 75.375 C-18.293125 74.59125 -18.14875 73.8075 -18 73 C-20.35953094 70.64046906 -21.77895617 70.50858587 -25 70 C-24.360625 69.38125 -23.72125 68.7625 -23.0625 68.125 C-22.041343 67.08365063 -21.02056695 66.04192765 -20 65 C-19.32195312 64.34128906 -18.64390625 63.68257813 -17.9453125 63.00390625 C-7.84232665 52.63873218 -0.93746775 38.90491145 -0.5859375 24.31640625 C-0.56657135 23.61603745 -0.5472052 22.91566864 -0.5272522 22.19407654 C-0.46805109 19.98367019 -0.42131275 17.77321005 -0.375 15.5625 C-0.33676524 14.05271319 -0.29771042 12.5429469 -0.2578125 11.03320312 C-0.16087358 7.355583 -0.08083845 3.67814927 0 0 Z " fill="#587B4F" transform="translate(315,240)"/>
<path d="M0 0 C1.05904289 0.00636726 1.05904289 0.00636726 2.13948059 0.01286316 C4.39155428 0.02963841 6.64272867 0.06728632 8.89453125 0.10546875 C10.4225131 0.12051718 11.95050901 0.13420531 13.47851562 0.14648438 C17.22169997 0.17953786 20.96421321 0.23131043 24.70703125 0.29296875 C25.5559132 5.66922109 25.70946175 9.94667273 24.70703125 15.29296875 C20.16541875 15.35120604 15.62390285 15.3866455 11.08203125 15.41796875 C9.15423828 15.44310547 9.15423828 15.44310547 7.1875 15.46875 C5.94355469 15.47519531 4.69960938 15.48164063 3.41796875 15.48828125 C2.27634277 15.49875488 1.1347168 15.50922852 -0.04150391 15.52001953 C-3.48601099 15.27948855 -6.12824359 14.66771942 -9.29296875 13.29296875 C-11.29296875 10.29296875 -11.29296875 10.29296875 -11.10546875 6.79296875 C-9.53976085 0.04838089 -6.39091711 -0.14457174 0 0 Z " fill="#587950" transform="translate(275.29296875,155.70703125)"/>
<path d="M0 0 C0.65880661 0.00424484 1.31761322 0.00848969 1.99638367 0.01286316 C4.0852576 0.02955679 6.17314014 0.06718817 8.26171875 0.10546875 C9.68423078 0.12052778 11.10675805 0.13421406 12.52929688 0.14648438 C16.00328645 0.17686912 19.47515281 0.23559885 22.94921875 0.29296875 C22.94921875 5.24296875 22.94921875 10.19296875 22.94921875 15.29296875 C18.62421659 15.40806343 14.30456439 15.5074796 9.97924805 15.56762695 C8.5096635 15.59270519 7.04020288 15.62677731 5.57104492 15.67016602 C3.45330194 15.73112374 1.33721299 15.75924191 -0.78125 15.78125 C-2.05379639 15.80743408 -3.32634277 15.83361816 -4.63745117 15.8605957 C-8.96059503 15.14166934 -10.42539448 13.73990088 -13.05078125 10.29296875 C-13.17578125 6.66796875 -13.17578125 6.66796875 -12.05078125 3.29296875 C-8.09334252 0.14761478 -4.96383613 -0.06336812 0 0 Z " fill="#507149" transform="translate(277.05078125,134.70703125)"/>
<path d="M0 0 C0.99457718 0.00212242 0.99457718 0.00212242 2.00924683 0.00428772 C4.12860613 0.00988871 6.24786009 0.02244125 8.3671875 0.03515625 C9.80338389 0.04017113 11.23958194 0.04473406 12.67578125 0.04882812 C16.19798998 0.05900792 19.71997071 0.07858287 23.2421875 0.09765625 C23.2421875 5.04765625 23.2421875 9.99765625 23.2421875 15.09765625 C19.06065319 15.16670911 14.8811141 15.22638173 10.69946289 15.26245117 C9.27849609 15.27749385 7.85757537 15.29793329 6.43676758 15.32397461 C4.38871864 15.36055972 2.341286 15.37742722 0.29296875 15.390625 C-1.55300903 15.41419067 -1.55300903 15.41419067 -3.4362793 15.43823242 C-7.06268653 15.06639574 -8.92131861 14.36144355 -11.7578125 12.09765625 C-12.8203125 8.66015625 -12.8203125 8.66015625 -12.7578125 5.09765625 C-8.98209117 0.15015933 -5.98508696 -0.02514742 0 0 Z " fill="#B3BF4C" transform="translate(276.7578125,217.90234375)"/>
<path d="M0 0 C1.85915039 0.00773438 1.85915039 0.00773438 3.75585938 0.015625 C5.67688477 0.0465625 5.67688477 0.0465625 7.63671875 0.078125 C8.93673828 0.08328125 10.23675781 0.0884375 11.57617188 0.09375 C21.17008558 0.17399183 21.17008558 0.17399183 22.32421875 1.328125 C22.39693616 3.68126055 22.40792743 6.03646168 22.38671875 8.390625 C22.37769531 9.68097656 22.36867188 10.97132813 22.359375 12.30078125 C22.34777344 13.29980469 22.33617187 14.29882812 22.32421875 15.328125 C18.00099414 15.45212535 13.67872273 15.54264756 9.35424805 15.6027832 C7.8846635 15.62786144 6.41520288 15.66193356 4.94604492 15.70532227 C2.82830194 15.76627999 0.71221299 15.79439816 -1.40625 15.81640625 C-2.67879639 15.84259033 -3.95134277 15.86877441 -5.26245117 15.89575195 C-9.58588688 15.17677706 -11.0472887 13.77258248 -13.67578125 10.328125 C-13.86328125 6.703125 -13.86328125 6.703125 -12.67578125 3.328125 C-8.37382821 0.59112942 -5.04799227 -0.04155611 0 0 Z " fill="#B1BD4F" transform="translate(277.67578125,196.671875)"/>
<path d="M0 0 C0 0.99 0 1.98 0 3 C-5.25714286 7 -5.25714286 7 -8 7 C-8 7.66 -8 8.32 -8 9 C-9.68066386 10.23551506 -11.42364751 11.38646829 -13.1875 12.5 C-21.05613686 17.60902014 -28.55065444 23.20288072 -35.69140625 29.296875 C-38 31 -38 31 -41 31 C-39.93204565 26.49933525 -38.85961414 22.2505466 -37 18 C-37.556875 18.01160156 -38.11375 18.02320312 -38.6875 18.03515625 C-43.89297901 18.09670752 -48.86762096 17.91649626 -54 17 C-54.33 16.34 -54.66 15.68 -55 15 C-53.7625 14.64808594 -52.525 14.29617187 -51.25 13.93359375 C-40.21081478 10.78909203 -29.18325947 7.60843813 -18.17382812 4.36108398 C-3.31365168 0 -3.31365168 0 0 0 Z " fill="#56754F" transform="translate(368,96)"/>
<path d="M0 0 C4.1994942 -0.04597986 8.39811065 -0.08578332 12.59765625 -0.10986328 C14.02542078 -0.11990427 15.45316483 -0.13353981 16.88085938 -0.15087891 C18.93624941 -0.17521152 20.99136692 -0.18650202 23.046875 -0.1953125 C24.28276367 -0.20578613 25.51865234 -0.21625977 26.79199219 -0.22705078 C29.83637591 -0.0115807 31.50604124 0.29522135 34 2 C35.50934217 5.01868434 35.17510672 7.67297229 35 11 C33 14 33 14 30 15 C27.7161483 15.08378628 25.429899 15.10729915 23.14453125 15.09765625 C22.15207649 15.09553383 22.15207649 15.09553383 21.13957214 15.09336853 C19.03050172 15.08777996 16.92153823 15.07522965 14.8125 15.0625 C13.38086091 15.05748352 11.94922015 15.05292087 10.51757812 15.04882812 C7.01164461 15.038666 3.50594173 15.01908861 0 15 C0 10.05 0 5.1 0 0 Z " fill="#B3C04E" transform="translate(209,218)"/>
<path d="M0 0 C1.84948242 -0.01836914 1.84948242 -0.01836914 3.73632812 -0.03710938 C5.52780273 -0.04000977 5.52780273 -0.04000977 7.35546875 -0.04296875 C8.44883545 -0.04707764 9.54220215 -0.05118652 10.66870117 -0.05541992 C14.03144943 0.20441812 16.70409749 0.88916899 19.8125 2.1875 C21.36710305 5.29670609 21.53970693 8.81833028 20.8125 12.1875 C18.3838108 14.65713693 16.99566561 15.16859529 13.51269531 15.52807617 C12.23491211 15.51236572 10.95712891 15.49665527 9.640625 15.48046875 C8.6169986 15.47410149 8.6169986 15.47410149 7.57269287 15.46760559 C5.40221996 15.45086972 3.23269021 15.41322959 1.0625 15.375 C-0.41274697 15.35994646 -1.88800855 15.34625922 -3.36328125 15.33398438 C-6.97165844 15.30098377 -10.5794871 15.24923767 -14.1875 15.1875 C-14.21435412 12.87506208 -14.23382841 10.5625373 -14.25 8.25 C-14.26160156 6.96222656 -14.27320313 5.67445313 -14.28515625 4.34765625 C-14.06897049 -2.64811496 -5.48947013 0.00282525 0 0 Z " fill="#B0BD50" transform="translate(223.1875,196.8125)"/>
<path d="M0 0 C4.1994942 -0.04597986 8.39811065 -0.08578332 12.59765625 -0.10986328 C14.02542078 -0.11990427 15.45316483 -0.13353981 16.88085938 -0.15087891 C18.93624941 -0.17521152 20.99136692 -0.18650202 23.046875 -0.1953125 C24.28276367 -0.20578613 25.51865234 -0.21625977 26.79199219 -0.22705078 C29.83637591 -0.0115807 31.50604124 0.29522135 34 2 C35.52491998 5.04983996 35.23562548 7.6423369 35 11 C33.45737187 13.10358381 32.31891683 13.84054159 30 15 C27.74879258 15.08573394 25.49500697 15.10712188 23.2421875 15.09765625 C22.24761032 15.09553383 22.24761032 15.09553383 21.23294067 15.09336853 C19.11358137 15.08776754 16.99432741 15.075215 14.875 15.0625 C13.43880361 15.05748512 12.00260556 15.05292219 10.56640625 15.04882812 C7.04419752 15.03864833 3.52221679 15.01907338 0 15 C0 10.05 0 5.1 0 0 Z " fill="#627F5A" transform="translate(209,135)"/>
<path d="M0 0 C18.33627524 3.44420197 36.41699641 8.79591581 54 15 C54 15.66 54 16.32 54 17 C48.63904667 18.12862175 43.44693314 18.09688221 38 18 C38.2165625 18.60328125 38.433125 19.2065625 38.65625 19.828125 C38.9346875 20.62734375 39.213125 21.4265625 39.5 22.25 C39.7784375 23.03890625 40.056875 23.8278125 40.34375 24.640625 C41 27 41 27 41 31 C37.48680206 29.73206744 34.80045027 28.286858 31.890625 25.953125 C31.13523438 25.355 30.37984375 24.756875 29.6015625 24.140625 C28.82554687 23.51671875 28.04953125 22.8928125 27.25 22.25 C21.87143117 17.94714494 16.49544944 13.8975088 10.64355469 10.25292969 C10.10118164 9.83946289 9.55880859 9.42599609 9 9 C9 8.34 9 7.68 9 7 C8.2575 6.7525 7.515 6.505 6.75 6.25 C3.78592854 4.90269479 2.12500716 3.43982304 0 1 C0 0.67 0 0.34 0 0 Z " fill="#A3AE55" transform="translate(140,96)"/>
<path d="M0 0 C1.05904289 0.00636726 1.05904289 0.00636726 2.13948059 0.01286316 C4.39155428 0.02963841 6.64272867 0.06728632 8.89453125 0.10546875 C10.4225131 0.12051718 11.95050901 0.13420531 13.47851562 0.14648438 C17.22169997 0.17953786 20.96421321 0.23131043 24.70703125 0.29296875 C24.90450344 1.68742624 25.08951712 3.08365027 25.26953125 4.48046875 C25.42615234 5.64642578 25.42615234 5.64642578 25.5859375 6.8359375 C25.71684504 9.49209369 25.32510195 11.71538504 24.70703125 14.29296875 C20.06235486 14.41656818 15.41863499 14.50730274 10.77270508 14.56762695 C9.19245736 14.59277205 7.61232596 14.62689349 6.0324707 14.67016602 C3.76093893 14.73082583 1.49094381 14.75917553 -0.78125 14.78125 C-1.84077629 14.81995964 -1.84077629 14.81995964 -2.92170715 14.85945129 C-4.9230957 14.8605957 -4.9230957 14.8605957 -8.29296875 14.29296875 C-10.78131725 11.35420429 -11.32237375 10.02809368 -11.16796875 6.16796875 C-9.28110602 -0.03172306 -5.97106275 -0.13507403 0 0 Z " fill="#5F7F57" transform="translate(275.29296875,176.70703125)"/>
<path d="M0 0 C4.50232334 -0.07417023 9.00429091 -0.1286105 13.50708008 -0.16479492 C15.03871861 -0.17987936 16.57031398 -0.20034978 18.10180664 -0.22631836 C20.30365654 -0.26271847 22.50493533 -0.27972913 24.70703125 -0.29296875 C25.39150833 -0.30845261 26.07598541 -0.32393646 26.78120422 -0.33988953 C29.65156014 -0.34090509 31.53255874 -0.33777989 33.90112305 1.3737793 C35.45598988 3.6748164 35.87031496 5.21177156 36 8 C35.0471682 10.02289683 34.05085399 12.02624574 33 14 C28.46122739 14.16725986 23.92228756 14.32785453 19.38305664 14.48217773 C17.8377441 14.5356662 16.29249433 14.59100068 14.74731445 14.64819336 C12.53089949 14.72991433 10.31434616 14.8050717 8.09765625 14.87890625 C7.05545677 14.91945885 7.05545677 14.91945885 5.99220276 14.96083069 C4.32890224 15.01301108 2.66407661 15.01185107 1 15 C0 14 0 14 -0.09765625 10.83984375 C-0.08025391 8.90818359 -0.08025391 8.90818359 -0.0625 6.9375 C-0.05347656 5.64714844 -0.04445312 4.35679687 -0.03515625 3.02734375 C-0.02355469 2.02832031 -0.01195312 1.02929688 0 0 Z " fill="#ACB84A" transform="translate(209,156)"/>
<path d="M0 0 C4.3422329 -0.06896488 8.68255762 -0.12866492 13.02490234 -0.16479492 C14.50120491 -0.17985923 15.97746288 -0.20031482 17.45361328 -0.22631836 C19.57856258 -0.26280739 21.70291901 -0.27974933 23.828125 -0.29296875 C25.7447998 -0.31653442 25.7447998 -0.31653442 27.70019531 -0.34057617 C31.19940849 0.02058115 32.55715556 0.52715701 35 3 C35.9375 5.375 35.9375 5.375 36 8 C34.8584081 10.2831838 33.80987317 12.19012683 32 14 C29.6243148 14.0883967 27.27791326 14.11530305 24.90234375 14.09765625 C23.83905602 14.09553383 23.83905602 14.09553383 22.75428772 14.09336853 C20.48198288 14.08775443 18.20977525 14.07519963 15.9375 14.0625 C14.40039204 14.05748681 12.86328255 14.05292359 11.32617188 14.04882812 C7.55071333 14.0386297 3.77546596 14.01905732 0 14 C0 9.38 0 4.76 0 0 Z " fill="#AEBB4D" transform="translate(209,177)"/>
<path d="M0 0 C-0.99 0 -1.98 0 -3 0 C-3 1.32 -3 2.64 -3 4 C-3.47566406 4.45503906 -3.95132813 4.91007812 -4.44140625 5.37890625 C-6.69872018 7.72673903 -6.6488704 9.73885144 -6.9375 12.9375 C-7.04964844 13.97777344 -7.16179687 15.01804687 -7.27734375 16.08984375 C-7.24446514 19.09251418 -7.24446514 19.09251418 -5.26171875 21.33984375 C-2.88208238 23.08655439 -1.77043952 23.50389797 1.125 23.625 C5 24 5 24 7 26 C10.04117182 26.35696353 10.04117182 26.35696353 13.625 26.37890625 C14.28653076 26.39590073 14.94806152 26.4128952 15.62963867 26.43040466 C17.75299417 26.48357277 19.87633659 26.5237435 22 26.5625 C24.09498518 26.60684216 26.18983996 26.65406747 28.28466797 26.70530701 C30.20657777 26.75136771 32.12868112 26.7891339 34.05078125 26.82641602 C38.71244704 27.0313149 43.35699062 27.53569906 48 28 C48 19.42 48 10.84 48 2 C48.33 2 48.66 2 49 2 C49 10.91 49 19.82 49 29 C57.25 29 65.5 29 74 29 C74 29.33 74 29.66 74 30 C66.85484986 30.05158742 59.70974932 30.08609633 52.56445312 30.10986328 C50.14418748 30.1197929 47.72393341 30.13334106 45.30371094 30.15087891 C33.07128658 30.23716572 20.89218788 30.20873611 8.6953125 29.1796875 C7.37066483 29.07528854 7.37066483 29.07528854 6.01925659 28.96878052 C0.03490888 28.38853452 -5.82916522 27.55183844 -9.9140625 22.75 C-11.2555441 19.35286674 -11.39858967 16.64853632 -11.375 13 C-11.38273438 11.80375 -11.39046875 10.6075 -11.3984375 9.375 C-10.97263584 5.76820948 -10.14948627 3.8905072 -8 1 C-5.0438846 -1.09788835 -3.38915747 -1.21041338 0 0 Z " fill="#A6B077" transform="translate(206,383)"/>
<path d="M0 0 C30.03 0 60.06 0 91 0 C91 27 91 27 89 33 C85.83596601 23.50789802 88 13.00555401 88 3 C59.29 2.67 30.58 2.34 1 2 C1 9.26 1 16.52 1 24 C0.67 24 0.34 24 0 24 C0 16.08 0 8.16 0 0 Z " fill="#ACB370" transform="translate(209,240)"/>
<path d="M0 0 C0.99457718 0.00212242 0.99457718 0.00212242 2.00924683 0.00428772 C4.12860613 0.00988871 6.24786009 0.02244125 8.3671875 0.03515625 C9.80338389 0.04017113 11.23958194 0.04473406 12.67578125 0.04882812 C16.19798998 0.05900792 19.71997071 0.07858287 23.2421875 0.09765625 C23.2421875 5.04765625 23.2421875 9.99765625 23.2421875 15.09765625 C19.06065319 15.16670911 14.8811141 15.22638173 10.69946289 15.26245117 C9.27849609 15.27749385 7.85757537 15.29793329 6.43676758 15.32397461 C4.38871864 15.36055972 2.341286 15.37742722 0.29296875 15.390625 C-1.55300903 15.41419067 -1.55300903 15.41419067 -3.4362793 15.43823242 C-7.06268653 15.06639574 -8.92131861 14.36144355 -11.7578125 12.09765625 C-12.8203125 8.66015625 -12.8203125 8.66015625 -12.7578125 5.09765625 C-8.98209117 0.15015933 -5.98508696 -0.02514742 0 0 Z M-9.7578125 6.09765625 C-9.41336369 8.5703239 -9.41336369 8.5703239 -8.7578125 11.09765625 C-5.99163687 12.48074406 -3.7476325 12.20975821 -0.65625 12.1953125 C1.16132813 12.19047852 1.16132813 12.19047852 3.015625 12.18554688 C4.28664063 12.17716797 5.55765625 12.16878906 6.8671875 12.16015625 C8.7853125 12.15338867 8.7853125 12.15338867 10.7421875 12.14648438 C13.90890042 12.13466828 17.07552106 12.1181944 20.2421875 12.09765625 C20.2421875 9.12765625 20.2421875 6.15765625 20.2421875 3.09765625 C16.17982348 3.01036578 12.11770161 2.95716633 8.0546875 2.91015625 C6.90419922 2.88501953 5.75371094 2.85988281 4.56835938 2.83398438 C3.45654297 2.82431641 2.34472656 2.81464844 1.19921875 2.8046875 C0.17803955 2.78897705 -0.84313965 2.7732666 -1.89526367 2.75708008 C-5.1802274 3.14791372 -7.06632985 4.22334665 -9.7578125 6.09765625 Z " fill="#B8BF75" transform="translate(276.7578125,217.90234375)"/>
<path d="M0 0 C4.1994942 -0.04597986 8.39811065 -0.08578332 12.59765625 -0.10986328 C14.02542078 -0.11990427 15.45316483 -0.13353981 16.88085938 -0.15087891 C18.93624941 -0.17521152 20.99136692 -0.18650202 23.046875 -0.1953125 C24.28276367 -0.20578613 25.51865234 -0.21625977 26.79199219 -0.22705078 C29.83637591 -0.0115807 31.50604124 0.29522135 34 2 C35.50934217 5.01868434 35.17510672 7.67297229 35 11 C33 14 33 14 30 15 C27.7161483 15.08378628 25.429899 15.10729915 23.14453125 15.09765625 C22.15207649 15.09553383 22.15207649 15.09553383 21.13957214 15.09336853 C19.03050172 15.08777996 16.92153823 15.07522965 14.8125 15.0625 C13.38086091 15.05748352 11.94922015 15.05292087 10.51757812 15.04882812 C7.01164461 15.038666 3.50594173 15.01908861 0 15 C0 10.05 0 5.1 0 0 Z M3 3 C2.979375 4.27875 2.95875 5.5575 2.9375 6.875 C2.92589844 7.59429687 2.91429687 8.31359375 2.90234375 9.0546875 C2.87350758 11.08185404 2.87350758 11.08185404 4 13 C12.58 13 21.16 13 30 13 C30 12.34 30 11.68 30 11 C30.99 11 31.98 11 33 11 C33 8.69 33 6.38 33 4 C30.18175808 2.59087904 27.82748718 2.88816447 24.6796875 2.90234375 C22.79443359 2.90717773 22.79443359 2.90717773 20.87109375 2.91210938 C19.55238281 2.92048828 18.23367187 2.92886719 16.875 2.9375 C15.53515789 2.94251511 14.195314 2.94707799 12.85546875 2.95117188 C9.57026794 2.96298914 6.28515603 2.97946383 3 3 Z " fill="#B8BF7D" transform="translate(209,218)"/>
<path d="M0 0 C3.96930989 -0.02465881 7.93859034 -0.04284023 11.90795898 -0.05493164 C13.25920386 -0.05997057 14.61044326 -0.06680177 15.96166992 -0.07543945 C17.90020434 -0.08752419 19.838778 -0.09269828 21.77734375 -0.09765625 C23.52905884 -0.10551147 23.52905884 -0.10551147 25.31616211 -0.11352539 C28 0 28 0 29 1 C29.07271741 3.35313555 29.08370868 5.70833668 29.0625 8.0625 C29.05347656 9.35285156 29.04445313 10.64320313 29.03515625 11.97265625 C29.02355469 12.97167969 29.01195312 13.97070312 29 15 C24.67677539 15.12400035 20.35450398 15.21452256 16.0300293 15.2746582 C14.56044475 15.29973644 13.09098413 15.33380856 11.62182617 15.37719727 C9.50408319 15.43815499 7.38799424 15.46627316 5.26953125 15.48828125 C3.99698486 15.51446533 2.72443848 15.54064941 1.41333008 15.56762695 C-2.91244321 14.84826332 -4.39412861 13.46917772 -7 10 C-6.8125 6.1875 -6.8125 6.1875 -6 3 C-4.35 2.67 -2.7 2.34 -1 2 C-1.0721875 2.62648437 -1.144375 3.25296875 -1.21875 3.8984375 C-1.3115625 4.71570313 -1.404375 5.53296875 -1.5 6.375 C-1.5928125 7.18710938 -1.685625 7.99921875 -1.78125 8.8359375 C-2.03352351 10.96912825 -2.03352351 10.96912825 -2 13 C7.57 13 17.14 13 27 13 C26.505 8.545 26.505 8.545 26 4 C13.13 3.505 13.13 3.505 0 3 C0 2.01 0 1.02 0 0 Z " fill="#ADB577" transform="translate(271,197)"/>
<path d="M0 0 C-0.62644719 4.80587841 -2.62373221 8.62457978 -4.8125 12.875 C-5.15603516 13.55691406 -5.49957031 14.23882812 -5.85351562 14.94140625 C-8.10421203 19.37523595 -10.50236447 23.7006993 -13 28 C-13.66 28 -14.32 28 -15 28 C-15 25.36 -15 22.72 -15 20 C-19.455 21.485 -19.455 21.485 -24 23 C-23.67 21.68 -23.34 20.36 -23 19 C-22.34 19 -21.68 19 -21 19 C-21 18.34 -21 17.68 -21 17 C-19.63671875 15.625 -19.63671875 15.625 -17.6875 14 C-13.09976372 10.1180693 -8.70985957 6.04361528 -4.3203125 1.94140625 C-2 0 -2 0 0 0 Z " fill="#9DA756" transform="translate(314,61)"/>
<path d="M0 0 C4.00975799 1.336586 6.30636851 2.99189371 9.1875 6.0625 C11.80417081 8.92137806 11.80417081 8.92137806 15 11 C15 11.66 15 12.32 15 13 C15.53625 13.20625 16.0725 13.4125 16.625 13.625 C19.91978009 15.53250426 22.59363628 18.04819384 25 21 C25 21.66 25 22.32 25 23 C22.36 22.34 19.72 21.68 17 21 C16.34 23.31 15.68 25.62 15 28 C12.42892405 25.67981813 10.93702044 23.31407378 9.3359375 20.25390625 C8.85382813 19.33416016 8.37171875 18.41441406 7.875 17.46679688 C7.38 16.50837891 6.885 15.54996094 6.375 14.5625 C5.87226563 13.60794922 5.36953125 12.65339844 4.8515625 11.66992188 C0.80504242 3.8977751 0.80504242 3.8977751 0 0 Z " fill="#A3AA74" transform="translate(194,61)"/>
<path d="M0 0 C1.9375 0.6875 1.9375 0.6875 4 2 C4.75 4.625 4.75 4.625 5 7 C5.66 7 6.32 7 7 7 C7 7.66 7 8.32 7 9 C9.475 9.99 9.475 9.99 12 11 C11.67 11.99 11.34 12.98 11 14 C11.5775 14.12375 12.155 14.2475 12.75 14.375 C15.79619104 15.22116418 18.19773289 16.16670599 20.4140625 18.46875 C27.38464592 25.19896847 39.91649934 24.03061921 48.875 24.0625 C49.90625 24.041875 50.9375 24.02125 52 24 C52.66 22.68 53.32 21.36 54 20 C56.64 20 59.28 20 62 20 C62.495 18.515 62.495 18.515 63 17 C64.32 17 65.64 17 67 17 C67.66 15.68 68.32 14.36 69 13 C69.99 13 70.98 13 72 13 C72 12.01 72 11.02 72 10 C73.32 10.33 74.64 10.66 76 11 C68.39320016 19.34294176 58.04912055 25.90765831 46.5625 26.53125 C44.7083335 26.54169601 42.85393411 26.53115856 41 26.5 C39.61941406 26.52320313 39.61941406 26.52320313 38.2109375 26.546875 C26.43327986 26.480522 16.36682179 21.19431 8 13 C4.5861046 9.00086539 1.5866268 5.07720577 0 0 Z " fill="#AFB772" transform="translate(213,280)"/>
<path d="M0 0 C4.3422329 -0.06896488 8.68255762 -0.12866492 13.02490234 -0.16479492 C14.50120491 -0.17985923 15.97746288 -0.20031482 17.45361328 -0.22631836 C19.57856258 -0.26280739 21.70291901 -0.27974933 23.828125 -0.29296875 C25.7447998 -0.31653442 25.7447998 -0.31653442 27.70019531 -0.34057617 C31.19940849 0.02058115 32.55715556 0.52715701 35 3 C35.9375 5.375 35.9375 5.375 36 8 C34.8584081 10.2831838 33.80987317 12.19012683 32 14 C29.6243148 14.0883967 27.27791326 14.11530305 24.90234375 14.09765625 C23.83905602 14.09553383 23.83905602 14.09553383 22.75428772 14.09336853 C20.48198288 14.08775443 18.20977525 14.07519963 15.9375 14.0625 C14.40039204 14.05748681 12.86328255 14.05292359 11.32617188 14.04882812 C7.55071333 14.0386297 3.77546596 14.01905732 0 14 C0 9.38 0 4.76 0 0 Z M2 2 C2 5.3 2 8.6 2 12 C6.09333905 12.07408587 10.18641933 12.1285704 14.28027344 12.16479492 C15.67324622 12.17989358 17.06617138 12.20037444 18.45898438 12.22631836 C20.45942885 12.26265122 22.46021827 12.27811192 24.4609375 12.29296875 C25.66540527 12.3086792 26.86987305 12.32438965 28.11083984 12.34057617 C29.54097412 12.17199097 29.54097412 12.17199097 31 12 C33.1519437 8.77208445 33.20086443 7.71599191 33 4 C31.700625 3.855625 30.40125 3.71125 29.0625 3.5625 C25.125 3.125 25.125 3.125 24 2 C22.36527118 1.91299658 20.72685945 1.89298937 19.08984375 1.90234375 C17.60581055 1.90717773 17.60581055 1.90717773 16.09179688 1.91210938 C14.53041992 1.92467773 14.53041992 1.92467773 12.9375 1.9375 C11.37032227 1.94426758 11.37032227 1.94426758 9.77148438 1.95117188 C7.18096546 1.96300073 4.59047578 1.98093681 2 2 Z " fill="#A2A96A" transform="translate(209,177)"/>
<path d="M0 0 C18.33627524 3.44420197 36.41699641 8.79591581 54 15 C54 15.66 54 16.32 54 17 C50.37 17.33 46.74 17.66 43 18 C43.66 16.35 44.32 14.7 45 13 C43.2984375 13.0309375 43.2984375 13.0309375 41.5625 13.0625 C38 13 38 13 37 12 C35.31544579 11.84013018 33.62680656 11.72259405 31.9375 11.625 C26.7636411 11.21298252 22.74540076 10.05932486 18 8 C18 7.34 18 6.68 18 6 C16.05000871 6.19471111 16.05000871 6.19471111 14 7 C12.71563266 8.9837767 12.71563266 8.9837767 12 11 C11.01 10.34 10.02 9.68 9 9 C9 8.34 9 7.68 9 7 C8.2575 6.7525 7.515 6.505 6.75 6.25 C3.78592854 4.90269479 2.12500716 3.43982304 0 1 C0 0.67 0 0.34 0 0 Z " fill="#A5AC72" transform="translate(140,96)"/>
<path d="M0 0 C1.12591553 0.00523682 2.25183105 0.01047363 3.41186523 0.01586914 C4.62680664 0.0190918 5.84174805 0.02231445 7.09350586 0.02563477 C8.37290039 0.03401367 9.65229492 0.04239258 10.97045898 0.05102539 C12.2537207 0.05553711 13.53698242 0.06004883 14.85913086 0.06469727 C18.04211921 0.07652994 21.22501661 0.09301471 24.40795898 0.11352539 C24.40795898 0.44352539 24.40795898 0.77352539 24.40795898 1.11352539 C17.80795898 1.44352539 11.20795898 1.77352539 4.40795898 2.11352539 C4.40795898 2.44352539 4.40795898 2.77352539 4.40795898 3.11352539 C2.75795898 3.44352539 1.10795898 3.77352539 -0.59204102 4.11352539 C-0.59204102 6.75352539 -0.59204102 9.39352539 -0.59204102 12.11352539 C2.92877457 12.14280171 6.44955837 12.16041658 9.97045898 12.17602539 C10.96110352 12.1844043 11.95174805 12.1927832 12.97241211 12.20141602 C18.23344597 12.21889453 23.22560563 12.03660937 28.40795898 11.11352539 C28.73795898 9.13352539 29.06795898 7.15352539 29.40795898 5.11352539 C28.74795898 5.11352539 28.08795898 5.11352539 27.40795898 5.11352539 C27.40795898 4.45352539 27.40795898 3.79352539 27.40795898 3.11352539 C26.74795898 3.11352539 26.08795898 3.11352539 25.40795898 3.11352539 C25.40795898 2.45352539 25.40795898 1.79352539 25.40795898 1.11352539 C27.84545898 1.48852539 27.84545898 1.48852539 30.40795898 2.11352539 C31.96256203 5.22273149 32.13516591 8.74435567 31.40795898 12.11352539 C28.97926979 14.58316232 27.59112459 15.09462068 24.1081543 15.45410156 C22.83037109 15.43839111 21.55258789 15.42268066 20.23608398 15.40649414 C19.21245758 15.40012688 19.21245758 15.40012688 18.16815186 15.39363098 C15.99767894 15.37689511 13.82814919 15.33925498 11.65795898 15.30102539 C10.18271202 15.28597185 8.70745044 15.27228461 7.23217773 15.26000977 C3.62380054 15.22700916 0.01597188 15.17526306 -3.59204102 15.11352539 C-3.61889513 12.80108747 -3.63836943 10.48856269 -3.65454102 8.17602539 C-3.66614258 6.88825195 -3.67774414 5.60047852 -3.68969727 4.27368164 C-3.56245207 0.15602715 -3.56245207 0.15602715 0 0 Z " fill="#BFC592" transform="translate(212.592041015625,196.886474609375)"/>
<path d="M0 0 C0.98120464 3.05263664 0.98120464 4.94736336 0 8 C-0.66 8 -1.32 8 -2 8 C-1.9830307 8.54679413 -1.9660614 9.09358826 -1.94857788 9.6569519 C-1.77439785 15.33398265 -1.61445988 21.01128633 -1.46289062 26.68896484 C-1.40439277 28.80951217 -1.34223016 30.92996162 -1.27636719 33.05029297 C-1.18247531 36.09324324 -1.10165065 39.13629898 -1.0234375 42.1796875 C-0.99124115 43.13181122 -0.9590448 44.08393494 -0.9258728 45.06491089 C-0.89561508 46.38605392 -0.89561508 46.38605392 -0.86474609 47.73388672 C-0.84253998 48.51110077 -0.82033386 49.28831482 -0.79745483 50.08908081 C-1 52 -1 52 -3 54 C-5.50610352 54.30297852 -5.50610352 54.30297852 -8.62890625 54.37890625 C-9.74587891 54.41306641 -10.86285156 54.44722656 -12.01367188 54.48242188 C-13.18478516 54.50884766 -14.35589844 54.53527344 -15.5625 54.5625 C-17.87641268 54.62215655 -20.19022866 54.68573897 -22.50390625 54.75390625 C-23.53330322 54.77783447 -24.5627002 54.8017627 -25.62329102 54.82641602 C-27.95423223 54.736325 -27.95423223 54.736325 -29 56 C-30.51928038 56.07179964 -32.04167482 56.08392007 -33.5625 56.0625 C-34.38878906 56.05347656 -35.21507812 56.04445313 -36.06640625 56.03515625 C-36.70449219 56.02355469 -37.34257812 56.01195312 -38 56 C-37.34 55.01 -36.68 54.02 -36 53 C-33.28198242 52.47583008 -33.28198242 52.47583008 -29.85546875 52.26953125 C-28.62119141 52.18896484 -27.38691406 52.10839844 -26.11523438 52.02539062 C-24.81908203 51.95513672 -23.52292969 51.88488281 -22.1875 51.8125 C-20.26067383 51.6897168 -20.26067383 51.6897168 -18.29492188 51.56445312 C-13.19104029 51.24828347 -8.11510352 50.94923715 -3 51 C-3.00666183 50.43481155 -3.01332367 49.86962311 -3.02018738 49.28730774 C-3.08661724 43.39870905 -3.13183232 37.51021703 -3.16479492 31.62133789 C-3.17987052 29.42435379 -3.20033426 27.22739974 -3.22631836 25.03051758 C-3.26275502 21.87053 -3.27973884 18.71094076 -3.29296875 15.55078125 C-3.31619453 14.08020012 -3.31619453 14.08020012 -3.33988953 12.57991028 C-3.34112563 7.55802551 -3.29062171 4.08765811 0 0 Z " fill="#ACB279" transform="translate(245,328)"/>
<path d="M0 0 C1.27875 0.00257813 2.5575 0.00515625 3.875 0.0078125 C5.15375 0.00523437 6.4325 0.00265625 7.75 0 C10.875 0.1328125 10.875 0.1328125 11.875 1.1328125 C11.93819104 2.84651582 11.93424076 4.56277245 11.90234375 6.27734375 C11.88397461 7.88319336 11.88397461 7.88319336 11.86523438 9.52148438 C11.83073878 11.76114271 11.79185443 14.00073883 11.74804688 16.24023438 C11.67221086 23.74799942 12.39266903 30.77270253 13.875 38.1328125 C12.885 38.6278125 12.885 38.6278125 11.875 39.1328125 C8.04452346 27.25377514 8.59050753 15.47135628 8.875 3.1328125 C4.915 3.1328125 0.955 3.1328125 -3.125 3.1328125 C-3.125 6.1028125 -3.125 9.0728125 -3.125 12.1328125 C-3.455 12.1328125 -3.785 12.1328125 -4.125 12.1328125 C-4.15187279 10.32039198 -4.17133715 8.50786017 -4.1875 6.6953125 C-4.19910156 5.68597656 -4.21070313 4.67664063 -4.22265625 3.63671875 C-4.07736324 -0.08859415 -3.79904567 0.16145944 0 0 Z " fill="#B1B875" transform="translate(182.125,239.8671875)"/>
<path d="M0 0 C10.23 0 20.46 0 31 0 C31 0.33 31 0.66 31 1 C29.88757935 1.029729 29.88757935 1.029729 28.75268555 1.06005859 C25.39726166 1.15522928 22.04246714 1.26494094 18.6875 1.375 C16.93663086 1.42140625 16.93663086 1.42140625 15.15039062 1.46875 C13.47299805 1.52675781 13.47299805 1.52675781 11.76171875 1.5859375 C10.2142395 1.63306885 10.2142395 1.63306885 8.63549805 1.68115234 C5.77156764 1.82674629 5.77156764 1.82674629 3 4 C2.26393501 7.56769552 2.26393501 7.56769552 2 11 C2.60473145 10.9592334 3.20946289 10.9184668 3.83251953 10.87646484 C6.59604222 10.69709778 9.36034348 10.53590593 12.125 10.375 C13.07632813 10.31054688 14.02765625 10.24609375 15.0078125 10.1796875 C20.14919328 9.89405523 24.17848347 9.87333783 29 12 C29 12.33 29 12.66 29 13 C25.03092526 13.16729064 21.06164279 13.32788226 17.09204102 13.48217773 C15.74072921 13.53565802 14.38948948 13.59099194 13.03833008 13.64819336 C11.09997011 13.72993571 9.16131296 13.80453323 7.22265625 13.87890625 C6.05484619 13.9260376 4.88703613 13.97316895 3.68383789 14.02172852 C1 14 1 14 0 13 C0 8.71 0 4.42 0 0 Z " fill="#9EA75B" transform="translate(209,157)"/>
<path d="M0 0 C0.99 0.99 1.98 1.98 3 3 C2.67 3.9075 2.34 4.815 2 5.75 C0.80394277 9.07045807 0.80394277 9.07045807 1 13 C1.99 13.66 2.98 14.32 4 15 C3.64701919 17.9008605 3.11271704 18.89516676 0.93359375 20.921875 C0.10988281 21.52515625 -0.71382813 22.1284375 -1.5625 22.75 C-2.80193359 23.67039062 -2.80193359 23.67039062 -4.06640625 24.609375 C-4.70449219 25.06828125 -5.34257812 25.5271875 -6 26 C-6.33 24.68 -6.66 23.36 -7 22 C-5.35 21.67 -3.7 21.34 -2 21 C-2.185625 20.443125 -2.37125 19.88625 -2.5625 19.3125 C-3 17 -3 17 -2.4375 14.375 C-2.2209375 13.199375 -2.2209375 13.199375 -2 12 C-4.35953094 9.64046906 -5.77895617 9.50858587 -9 9 C-6 6 -3 3 0 0 Z " fill="#577C4D" transform="translate(299,301)"/>
<path d="M0 0 C9.9 0 19.8 0 30 0 C30 4.95 30 9.9 30 15 C19.77 15 9.54 15 -1 15 C-1 14.67 -1 14.34 -1 14 C-0.22285645 13.98541748 0.55428711 13.97083496 1.35498047 13.95581055 C4.86216688 13.88153022 8.3683801 13.78480411 11.875 13.6875 C13.09832031 13.66494141 14.32164062 13.64238281 15.58203125 13.61914062 C17.33193359 13.5659668 17.33193359 13.5659668 19.1171875 13.51171875 C20.19597168 13.48553467 21.27475586 13.45935059 22.38623047 13.43237305 C23.24877441 13.28968994 24.11131836 13.14700684 25 13 C27.29633824 9.55549263 27.54016485 7.06187717 28 3 C24.7 3 21.4 3 18 3 C18 2.67 18 2.34 18 2 C12.06 1.67 6.12 1.34 0 1 C0 0.67 0 0.34 0 0 Z " fill="#96A593" transform="translate(270,135)"/>
<path d="M0 0 C1.9375 0.6875 1.9375 0.6875 4 2 C4.75 4.625 4.75 4.625 5 7 C5.66 7 6.32 7 7 7 C7 7.66 7 8.32 7 9 C9.475 9.99 9.475 9.99 12 11 C11.67 11.99 11.34 12.98 11 14 C11.5775 14.12375 12.155 14.2475 12.75 14.375 C15.79025623 15.21951562 18.19706913 16.15433612 20.39453125 18.46875 C25.23060521 23.0812585 32.6480014 23.57359269 39 24 C39 24.33 39 24.66 39 25 C30.08848707 26.72480896 24.44392641 24.64926382 16.75 20.0625 C9.51799415 14.63849561 2.79805698 8.95378235 0 0 Z " fill="#B3B97E" transform="translate(213,280)"/>
<path d="M0 0 C7.75 0.875 7.75 0.875 10 2 C8.58707905 6.8274799 6.57025846 10.7162359 4 15 C-1.95507399 14.6083965 -6.62819824 13.62875405 -12 11 C-10.359375 9.8828125 -10.359375 9.8828125 -8 9 C-5.203125 9.6796875 -5.203125 9.6796875 -2.25 10.875 C-1.26515625 11.26429688 -0.2803125 11.65359375 0.734375 12.0546875 C1.48203125 12.36664063 2.2296875 12.67859375 3 13 C2.938125 12.21625 2.87625 11.4325 2.8125 10.625 C2.874375 9.75875 2.93625 8.8925 3 8 C3.99 7.34 4.98 6.68 6 6 C5.01 5.38125 4.02 4.7625 3 4.125 C2.01 3.42375 1.02 2.7225 0 2 C0 1.34 0 0.68 0 0 Z " fill="#AFB77B" transform="translate(234,319)"/>
<path d="M0 0 C9.24 0 18.48 0 28 0 C28.33 1.65 28.66 3.3 29 5 C28.01 4.67 27.02 4.34 26 4 C24.0093556 3.85013589 22.01464609 3.75171962 20.01953125 3.68359375 C18.85615234 3.64169922 17.69277344 3.59980469 16.49414062 3.55664062 C14.67172852 3.49766602 14.67172852 3.49766602 12.8125 3.4375 C11.58595703 3.39431641 10.35941406 3.35113281 9.09570312 3.30664062 C6.06391619 3.2004691 3.03204685 3.09842048 0 3 C0 2.01 0 1.02 0 0 Z " fill="#BEC491" transform="translate(271,197)"/>
<path d="M0 0 C1.98 0.66 3.96 1.32 6 2 C6 19.16 6 36.32 6 54 C5.67 54 5.34 54 5 54 C4.85528126 49.64419676 4.71297609 45.28832281 4.57275391 40.93237305 C4.52488889 39.45546422 4.47640349 37.97857536 4.42724609 36.50170898 C4.16883978 28.72578835 3.93428174 20.96139057 4.03125 13.1796875 C3.99120391 10.38647286 3.58966966 7.72722217 3 5 C1.68 5.99 0.36 6.98 -1 8 C-1.93065133 5.39417629 -2.14917407 4.35801776 -1.0625 1.75 C-0.711875 1.1725 -0.36125 0.595 0 0 Z " fill="#A6BD56" transform="translate(248,322)"/>
<path d="M0 0 C1.05904289 0.00636726 1.05904289 0.00636726 2.13948059 0.01286316 C4.39155428 0.02963841 6.64272867 0.06728632 8.89453125 0.10546875 C10.4225131 0.12051718 11.95050901 0.13420531 13.47851562 0.14648438 C17.22169997 0.17953786 20.96421321 0.23131043 24.70703125 0.29296875 C24.37703125 0.95296875 24.04703125 1.61296875 23.70703125 2.29296875 C8.85703125 1.79796875 8.85703125 1.79796875 -6.29296875 1.29296875 C-6.62296875 4.26296875 -6.95296875 7.23296875 -7.29296875 10.29296875 C-6.30296875 10.62296875 -5.31296875 10.95296875 -4.29296875 11.29296875 C-4.29296875 11.95296875 -4.29296875 12.61296875 -4.29296875 13.29296875 C-3.63296875 13.29296875 -2.97296875 13.29296875 -2.29296875 13.29296875 C-2.62296875 13.95296875 -2.95296875 14.61296875 -3.29296875 15.29296875 C-9.04296875 13.66796875 -9.04296875 13.66796875 -11.29296875 10.29296875 C-10.9746833 4.35164028 -10.9746833 4.35164028 -9.19799805 1.5925293 C-6.30183438 -0.38315687 -3.37888165 -0.07643516 0 0 Z " fill="#7A8C74" transform="translate(275.29296875,155.70703125)"/>
<path d="M0 0 C3.3 0 6.6 0 10 0 C10 0.33 10 0.66 10 1 C8.35 1 6.7 1 5 1 C5.33 2.32 5.66 3.64 6 5 C4.02 5.99 4.02 5.99 2 7 C2.01571045 8.02939697 2.01571045 8.02939697 2.03173828 9.07958984 C2.07321874 12.17802289 2.09930069 15.27639761 2.125 18.375 C2.14175781 19.45523437 2.15851563 20.53546875 2.17578125 21.6484375 C2.18222656 22.6796875 2.18867188 23.7109375 2.1953125 24.7734375 C2.20578613 25.72653809 2.21625977 26.67963867 2.22705078 27.66162109 C2 30 2 30 0 32 C-0.96012994 24.70541526 -0.98855619 17.71100191 -0.5625 10.375 C-0.51029297 9.37082031 -0.45808594 8.36664063 -0.40429688 7.33203125 C-0.27625834 4.88765918 -0.13909362 2.44376792 0 0 Z " fill="#B0BB58" transform="translate(210,242)"/>
<path d="M0 0 C1.32 0 2.64 0 4 0 C4.33 0.66 4.66 1.32 5 2 C7.52733235 2.65555119 7.52733235 2.65555119 10 3 C10 3.33 10 3.66 10 4 C8.35 4 6.7 4 5 4 C6.25541557 6.51083114 7.50063488 6.87125446 10 8 C10 8.99 10 9.98 10 11 C10.99 11.33 11.98 11.66 13 12 C13.99 12.66 14.98 13.32 16 14 C16 14.99 16 15.98 16 17 C12.28665602 15.31865539 9.10758918 13.07553662 5.8125 10.6875 C4.74644531 9.92824219 3.68039063 9.16898438 2.58203125 8.38671875 C0 6 0 6 -0.92578125 3.26953125 C-0.95027344 2.52058594 -0.97476563 1.77164063 -1 1 C-0.67 0.67 -0.34 0.34 0 0 Z " fill="#A0A94E" transform="translate(154,102)"/>
<path d="M0 0 C2.97 0.495 2.97 0.495 6 1 C6.33 2.65 6.66 4.3 7 6 C7.66 6 8.32 6 9 6 C8.88590407 7.45922693 8.75834456 8.91740598 8.625 10.375 C8.55539063 11.18710938 8.48578125 11.99921875 8.4140625 12.8359375 C8 15 8 15 6 17 C4.98422665 15.30099815 3.9880102 13.59029549 3 11.875 C2.1646875 10.44800781 2.1646875 10.44800781 1.3125 8.9921875 C-0.11630654 5.73484878 -0.25041309 3.5162171 0 0 Z " fill="#A0AB5C" transform="translate(202,72)"/>
<path d="M0 0 C-0.99 0.66 -1.98 1.32 -3 2 C-3 2.66 -3 3.32 -3 4 C-3.99 4.33 -4.98 4.66 -6 5 C-5.01 5.33 -4.02 5.66 -3 6 C-3 6.66 -3 7.32 -3 8 C-8.76082132 8.12001711 -14.31648386 8.0149136 -20 7 C-20.33 6.34 -20.66 5.68 -21 5 C-18.44013121 4.15774 -15.87760985 3.32601449 -13.3125 2.5 C-12.2306543 2.14228516 -12.2306543 2.14228516 -11.12695312 1.77734375 C-7.30592343 0.55601006 -4.06557944 -0.32075577 0 0 Z " fill="#738570" transform="translate(334,106)"/>
<path d="M0 0 C0.625 1.875 0.625 1.875 1 4 C0.34 4.66 -0.32 5.32 -1 6 C-0.34 6.33 0.32 6.66 1 7 C1 7.99 1 8.98 1 10 C1.33 9.01 1.66 8.02 2 7 C4.5625 5.8125 4.5625 5.8125 7 5 C5.78065514 9.03321763 4.44045073 12.54269479 2 16 C1.34 16 0.68 16 0 16 C0 13.36 0 10.72 0 8 C-4.455 9.485 -4.455 9.485 -9 11 C-8.67 9.68 -8.34 8.36 -8 7 C-7.34 7 -6.68 7 -6 7 C-6 6.34 -6 5.68 -6 5 C-4.04072937 3.2856382 -2.04119788 1.61594832 0 0 Z " fill="#B2B692" transform="translate(299,73)"/>
<path d="M0 0 C0.66 0 1.32 0 2 0 C2 3.63 2 7.26 2 11 C-7.9 11 -17.8 11 -28 11 C-28.33 10.34 -28.66 9.68 -29 9 C-19.43 9 -9.86 9 0 9 C0 6.03 0 3.06 0 0 Z " fill="#B4B97C" transform="translate(298,222)"/>
<path d="M0 0 C0 0.99 0 1.98 0 3 C-5.25714286 7 -5.25714286 7 -8 7 C-8 7.66 -8 8.32 -8 9 C-8.99 9.33 -9.98 9.66 -11 10 C-11.99 9.34 -12.98 8.68 -14 8 C-14 7.34 -14 6.68 -14 6 C-14.928125 6.309375 -14.928125 6.309375 -15.875 6.625 C-16.57625 6.74875 -17.2775 6.8725 -18 7 C-18.66 6.34 -19.32 5.68 -20 5 C-17.04283593 4.16247839 -14.084087 3.33069969 -11.125 2.5 C-10.28324219 2.26152344 -9.44148438 2.02304688 -8.57421875 1.77734375 C-7.76855469 1.55175781 -6.96289062 1.32617188 -6.1328125 1.09375 C-5.01737061 0.77954102 -5.01737061 0.77954102 -3.87939453 0.45898438 C-2 0 -2 0 0 0 Z " fill="#76896D" transform="translate(368,96)"/>
<path d="M0 0 C1.62418745 -0.08090971 3.24951745 -0.13914995 4.875 -0.1875 C5.77992188 -0.22230469 6.68484375 -0.25710938 7.6171875 -0.29296875 C8.79667969 -0.14794922 8.79667969 -0.14794922 10 0 C10.66 0.99 11.32 1.98 12 3 C1.58191786 4.38907762 -8.57361601 4.29176439 -19 3 C-18.67 2.34 -18.34 1.68 -18 1 C-15.56242587 0.97301578 -13.12515085 0.95316901 -10.6875 0.9375 C-9.99720703 0.92912109 -9.30691406 0.92074219 -8.59570312 0.91210938 C-5.4516975 0.89692094 -3.00579981 0.99806673 0 2 C0 1.34 0 0.68 0 0 Z " fill="#677B62" transform="translate(290,408)"/>
<path d="M0 0 C0.66 0 1.32 0 2 0 C2.33 6.27 2.66 12.54 3 19 C3.66 19 4.32 19 5 19 C5.38991022 20.93455454 5.76145349 22.87281828 6.125 24.8125 C6.33382812 25.89144531 6.54265625 26.97039062 6.7578125 28.08203125 C7 31 7 31 5 34 C4.35025795 31.31339217 3.70511582 28.62581326 3.0625 25.9375 C2.88009766 25.18533203 2.69769531 24.43316406 2.50976562 23.65820312 C0.99803732 17.30894423 -0.15230891 11.11855059 -0.0625 4.5625 C-0.05347656 3.69753906 -0.04445312 2.83257812 -0.03515625 1.94140625 C-0.02355469 1.30074219 -0.01195312 0.66007813 0 0 Z " fill="#BFC48D" transform="translate(177,253)"/>
<path d="M0 0 C5.19209404 -0.21192221 9.126739 0.4087311 14 2 C13.67 3.32 13.34 4.64 13 6 C10.36 6.33 7.72 6.66 5 7 C4.67 6.01 4.34 5.02 4 4 C1.99983534 2.79117904 1.99983534 2.79117904 0 2 C0 1.34 0 0.68 0 0 Z " fill="#A2AE45" transform="translate(159,106)"/>
<path d="M0 0 C1 3 1 3 -0.25 6.0625 C-1.90153706 8.43953369 -2.90271198 8.97022651 -5.71875 9.83203125 C-8.47765138 10.3262159 -11.21158935 10.72115893 -14 11 C-14.33 10.01 -14.66 9.02 -15 8 C-14.16855469 7.59007812 -13.33710938 7.18015625 -12.48046875 6.7578125 C-11.39378906 6.21898437 -10.30710937 5.68015625 -9.1875 5.125 C-8.10855469 4.59132813 -7.02960938 4.05765625 -5.91796875 3.5078125 C-2.92161735 2.02778861 -2.92161735 2.02778861 0 0 Z " fill="#5A7752" transform="translate(289,310)"/>
<path d="M0 0 C0.66 0 1.32 0 2 0 C2 0.99 2 1.98 2 3 C2.99 3 3.98 3 5 3 C5 2.34 5 1.68 5 1 C5.66 1 6.32 1 7 1 C7 1.66 7 2.32 7 3 C7.66 3.33 8.32 3.66 9 4 C7.56967163 5.17544805 6.13046758 6.34010262 4.6875 7.5 C3.88699219 8.1496875 3.08648437 8.799375 2.26171875 9.46875 C0 11 0 11 -3 11 C-1.125 3.375 -1.125 3.375 0 0 Z " fill="#6A7868" transform="translate(330,116)"/>
<path d="M0 0 C-0.57634139 4.75481646 -2.55068521 7.97048212 -5 12 C-5.33 11.34 -5.66 10.68 -6 10 C-8.64 10.66 -11.28 11.32 -14 12 C-12.85807217 10.85807217 -11.71550762 9.71677615 -10.5703125 8.578125 C-9.42984968 7.43198823 -8.30112694 6.27413185 -7.1796875 5.109375 C-6.56351562 4.47515625 -5.94734375 3.8409375 -5.3125 3.1875 C-4.73113281 2.58292969 -4.14976562 1.97835937 -3.55078125 1.35546875 C-2 0 -2 0 0 0 Z " fill="#A8AF78" transform="translate(314,61)"/>
<path d="M0 0 C1.16257324 0.01047363 2.32514648 0.02094727 3.52294922 0.03173828 C5.40820312 0.04140625 5.40820312 0.04140625 7.33154297 0.05126953 C9.30960937 0.07640625 9.30960937 0.07640625 11.32763672 0.10205078 C12.66747393 0.11208096 14.00731823 0.12120674 15.34716797 0.12939453 C18.63250244 0.15303003 21.91748137 0.18597844 25.20263672 0.22705078 C25.20263672 0.88705078 25.20263672 1.54705078 25.20263672 2.22705078 C21.84311316 3.34689197 19.53353215 3.25511679 16.00341797 3.10595703 C14.79492188 3.05761719 13.58642578 3.00927734 12.34130859 2.95947266 C11.07867187 2.90339844 9.81603516 2.84732422 8.51513672 2.78955078 C7.24089844 2.73734375 5.96666016 2.68513672 4.65380859 2.63134766 C1.50317633 2.50154633 -1.64714905 2.36657518 -4.79736328 2.22705078 C-2.79736328 0.22705078 -2.79736328 0.22705078 0 0 Z " fill="#55674F" transform="translate(273.79736328125,176.77294921875)"/>
<path d="M0 0 C-0.99 0 -1.98 0 -3 0 C-3 1.32 -3 2.64 -3 4 C-3.969375 4.680625 -4.93875 5.36125 -5.9375 6.0625 C-8.38347968 7.88115784 -8.93946914 8.73046634 -9.62109375 11.765625 C-9.85056023 14.51922274 -9.99032338 17.23732558 -10 20 C-10.33 20 -10.66 20 -11 20 C-11.0814222 17.77144426 -11.13938079 15.54202345 -11.1875 13.3125 C-11.22230469 12.07113281 -11.25710937 10.82976562 -11.29296875 9.55078125 C-10.98167016 5.7778424 -10.25889878 3.9881064 -8 1 C-5.0438846 -1.09788835 -3.38915747 -1.21041338 0 0 Z " fill="#BBBE99" transform="translate(206,383)"/>
<path d="M0 0 C7.49612516 1.52463563 14.71359134 3.68006154 22 6 C22 6.66 22 7.32 22 8 C18.37 8.33 14.74 8.66 11 9 C11.66 7.35 12.32 5.7 13 4 C11.453125 4.0928125 11.453125 4.0928125 9.875 4.1875 C5.76531027 3.98864405 3.51117504 3.05532197 0 1 C0 0.67 0 0.34 0 0 Z " fill="#B0B68A" transform="translate(172,105)"/>
<path d="M0 0 C0.99 0.99 1.98 1.98 3 3 C1.25 7.875 1.25 7.875 -1 9 C-3.6723621 9.13415472 -6.32250488 9.04318541 -9 9 C-6 6 -3 3 0 0 Z " fill="#6E8668" transform="translate(299,301)"/>
<path d="M0 0 C5.28 0 10.56 0 16 0 C16 5.28 16 10.56 16 16 C15.67 16 15.34 16 15 16 C15 11.05 15 6.1 15 1 C13.35 1.33 11.7 1.66 10 2 C9.67 2.99 9.34 3.98 9 5 C6.9375 5.6875 6.9375 5.6875 5 6 C4.87625 5.071875 4.87625 5.071875 4.75 4.125 C4.08785794 1.46510021 4.08785794 1.46510021 0 0 Z " fill="#879C81" transform="translate(315,240)"/>
<path d="M0 0 C2.97 0.495 2.97 0.495 6 1 C6.33 1.99 6.66 2.98 7 4 C10.00847418 5.22520264 10.00847418 5.22520264 13 6 C12.67 6.99 12.34 7.98 12 9 C12.763125 8.896875 13.52625 8.79375 14.3125 8.6875 C15.6428125 8.8421875 15.6428125 8.8421875 17 9 C18.8125 11.5 18.8125 11.5 20 14 C12.45033209 11.33541132 6.06184009 6.13235795 0 1 C0 0.67 0 0.34 0 0 Z " fill="#BCC28C" transform="translate(202,315)"/>
<path d="M0 0 C2.17303573 2.17303573 3.10961389 4.05330986 4.4375 6.8125 C6.150053 10.31360688 7.91201534 13.70318212 10 17 C7.27060596 16.63884374 6.20179591 16.22448023 4.33203125 14.14453125 C-0.87101517 6.15939317 -0.87101517 6.15939317 -1 1 C-0.67 0.67 -0.34 0.34 0 0 Z " fill="#B1B87D" transform="translate(196,280)"/>
<path d="M0 0 C-1.20540652 3.61621957 -2.2255028 4.06985695 -5.375 6.0625 C-6.16648437 6.56910156 -6.95796875 7.07570313 -7.7734375 7.59765625 C-8.50820313 8.06042969 -9.24296875 8.52320312 -10 9 C-10.99 9.66 -11.98 10.32 -13 11 C-12.16502628 6.65813664 -11.58009999 4.50275333 -8.1875 1.5625 C-5.05631654 0.02760614 -3.41261276 -0.40148385 0 0 Z " fill="#6D7F67" transform="translate(354,107)"/>
<path d="M0 0 C3.63 0.66 7.26 1.32 11 2 C10.01 2.33 9.02 2.66 8 3 C9.65 4.65 11.3 6.3 13 8 C12.67 8.99 12.34 9.98 12 11 C11.01 10.34 10.02 9.68 9 9 C9 8.34 9 7.68 9 7 C8.2575 6.7525 7.515 6.505 6.75 6.25 C3.78592854 4.90269479 2.12500716 3.43982304 0 1 C0 0.67 0 0.34 0 0 Z " fill="#ACAF8F" transform="translate(140,96)"/>
<path d="M0 0 C0.639375 0.66 1.27875 1.32 1.9375 2 C5.15849486 5.2302506 8.586669 8.21987881 12.01171875 11.23046875 C13.37818443 12.44659636 14.70651734 13.70651734 16 15 C15.01 15.33 14.02 15.66 13 16 C11.39490066 14.56354149 9.79095576 13.12579294 8.1875 11.6875 C7.29417969 10.88699219 6.40085938 10.08648437 5.48046875 9.26171875 C4.25263672 8.14216797 4.25263672 8.14216797 3 7 C2.39800781 6.49082031 1.79601562 5.98164063 1.17578125 5.45703125 C0 4 0 4 0 0 Z " fill="#AFB680" transform="translate(206,297)"/>
<path d="M0 0 C0.33 0 0.66 0 1 0 C2.0006709 5.96345767 2.0662997 10.28728907 0 16 C-0.33 15.34 -0.66 14.68 -1 14 C-3.02463255 13.34786708 -3.02463255 13.34786708 -5 13 C-4.2575 11.88625 -4.2575 11.88625 -3.5 10.75 C-1.68076525 7.93681812 -1.68076525 7.93681812 -2 4 C-1.34 4 -0.68 4 0 4 C0 2.68 0 1.36 0 0 Z " fill="#72866D" transform="translate(328,268)"/>
<path d="M0 0 C4.50232334 -0.07417023 9.00429091 -0.1286105 13.50708008 -0.16479492 C15.03871861 -0.17987936 16.57031398 -0.20034978 18.10180664 -0.22631836 C20.30365654 -0.26271847 22.50493533 -0.27972913 24.70703125 -0.29296875 C25.39150833 -0.30845261 26.07598541 -0.32393646 26.78120422 -0.33988953 C31.55999359 -0.34158031 31.55999359 -0.34158031 33.95581055 1.51831055 C34.30039307 2.00726807 34.64497559 2.49622559 35 3 C34.67 3.66 34.34 4.32 34 5 C31.525 4.505 31.525 4.505 29 4 C29.66 3.67 30.32 3.34 31 3 C31 2.34 31 1.68 31 1 C20.77 1 10.54 1 0 1 C0 0.67 0 0.34 0 0 Z " fill="#CACC9D" transform="translate(209,156)"/>
<path d="M0 0 C1.32 0.66 2.64 1.32 4 2 C1.03 5.3 -1.94 8.6 -5 12 C-6 9 -6 9 -5.0390625 6.9921875 C-4.57242187 6.29351562 -4.10578125 5.59484375 -3.625 4.875 C-3.16351563 4.17117188 -2.70203125 3.46734375 -2.2265625 2.7421875 C-1 1 -1 1 0 0 Z " fill="#778A6F" transform="translate(313,303)"/>
<path d="M0 0 C2.4375 0.375 2.4375 0.375 5 1 C6.10647808 3.21295616 6.19588368 4.54672699 6.25 7 C6.28867188 8.051875 6.28867188 8.051875 6.328125 9.125 C6.21984375 9.74375 6.1115625 10.3625 6 11 C2.1496895 13.56687367 0.41430237 12.83288724 -4 12 C-4 11.67 -4 11.34 -4 11 C-0.535 10.505 -0.535 10.505 3 10 C3.33 8.02 3.66 6.04 4 4 C3.34 4 2.68 4 2 4 C2 3.34 2 2.68 2 2 C1.34 2 0.68 2 0 2 C0 1.34 0 0.68 0 0 Z " fill="#BAC083" transform="translate(238,198)"/>
<path d="M0 0 C1.98 0.66 3.96 1.32 6 2 C6 4.31 6 6.62 6 9 C4 8 4 8 3 5 C1.68 5.99 0.36 6.98 -1 8 C-1.93065133 5.39417629 -2.14917407 4.35801776 -1.0625 1.75 C-0.711875 1.1725 -0.36125 0.595 0 0 Z " fill="#B1BF6B" transform="translate(248,322)"/>
<path d="M0 0 C1.65 0 3.3 0 5 0 C4.67 4.95 4.34 9.9 4 15 C3.67 15 3.34 15 3 15 C3 12.69 3 10.38 3 8 C2.34 7.67 1.68 7.34 1 7 C0.59270772 4.67843403 0.25561323 2.3431213 0 0 Z " fill="#718D6B" transform="translate(327,257)"/>
<path d="M0 0 C1.625 1.375 1.625 1.375 2.5 3.8125 C2.625 6.375 2.625 6.375 0.625 9.375 C-0.035 8.715 -0.695 8.055 -1.375 7.375 C-1 4.75 -1 4.75 -0.375 2.375 C-3.015 2.375 -5.655 2.375 -8.375 2.375 C-8.705 1.715 -9.035 1.055 -9.375 0.375 C-3.135 -0.825 -3.135 -0.825 0 0 Z " fill="#B3BB72" transform="translate(242.375,178.625)"/>
<path d="M0 0 C0.66 0.33 1.32 0.66 2 1 C1.835 1.70125 1.67 2.4025 1.5 3.125 C0.97584662 6.13888194 0.92900317 8.94713625 1 12 C0.01 11.67 -0.98 11.34 -2 11 C-3.35384615 4.6 -3.35384615 4.6 -1.5625 1.5625 C-1.046875 1.046875 -0.53125 0.53125 0 0 Z " fill="#788A74" transform="translate(267,136)"/>
<path d="M0 0 C0.66 0 1.32 0 2 0 C2 0.66 2 1.32 2 2 C3.32 1.67 4.64 1.34 6 1 C6.69965443 2.26418246 7.38434763 3.53665402 8.0625 4.8125 C8.44535156 5.52019531 8.82820312 6.22789062 9.22265625 6.95703125 C10 9 10 9 9 12 C7.68181446 10.56771184 6.37063296 9.12897516 5.0625 7.6875 C4.33160156 6.88699219 3.60070312 6.08648437 2.84765625 5.26171875 C1 3 1 3 0 0 Z " fill="#BCC57B" transform="translate(192,303)"/>
<path d="M0 0 C1.93166016 0.01740234 1.93166016 0.01740234 3.90234375 0.03515625 C5.19269531 0.04417969 6.48304688 0.05320313 7.8125 0.0625 C8.81152344 0.07410156 9.81054688 0.08570313 10.83984375 0.09765625 C10.83984375 0.42765625 10.83984375 0.75765625 10.83984375 1.09765625 C6.54984375 1.75765625 2.25984375 2.41765625 -2.16015625 3.09765625 C-2.49015625 6.06765625 -2.82015625 9.03765625 -3.16015625 12.09765625 C-3.49015625 12.09765625 -3.82015625 12.09765625 -4.16015625 12.09765625 C-4.18702904 10.28523573 -4.2064934 8.47270392 -4.22265625 6.66015625 C-4.23425781 5.65082031 -4.24585938 4.64148438 -4.2578125 3.6015625 C-4.11172173 -0.14420474 -3.82636297 0.1182436 0 0 Z " fill="#BEC592" transform="translate(182.16015625,239.90234375)"/>
<path d="M0 0 C0.66 0 1.32 0 2 0 C2 0.66 2 1.32 2 2 C2.66 2.33 3.32 2.66 4 3 C1.03 5.31 -1.94 7.62 -5 10 C-5.33 8.68 -5.66 7.36 -6 6 C-4.35 5.67 -2.7 5.34 -1 5 C-0.67 3.35 -0.34 1.7 0 0 Z " fill="#798C72" transform="translate(298,317)"/>
<path d="M0 0 C1.9375 0.375 1.9375 0.375 4 1 C5.50934217 4.01868434 5.17510672 6.67297229 5 10 C4.01 11.485 4.01 11.485 3 13 C2.01 12.67 1.02 12.34 0 12 C0 11.34 0 10.68 0 10 C0.99 10 1.98 10 3 10 C3 7.69 3 5.38 3 3 C2.01 2.67 1.02 2.34 0 2 C0 1.34 0 0.68 0 0 Z " fill="#B3BB80" transform="translate(239,219)"/>
<path d="M0 0 C2.0625 0.4375 2.0625 0.4375 4 1 C3.01 1.66 2.02 2.32 1 3 C0.42251197 4.96361864 0.42251197 4.96361864 0.3125 7.125 C0.209375 8.40375 0.10625 9.6825 0 11 C2.31 11 4.62 11 7 11 C3.77208445 13.1519437 2.71599191 13.20086443 -1 13 C-2.01936725 9.94189824 -2.00186825 8.50198793 -1.625 5.375 C-1.53476563 4.57835937 -1.44453125 3.78171875 -1.3515625 2.9609375 C-1 1 -1 1 0 0 Z " fill="#ACB26F" transform="translate(211,158)"/>
<path d="M0 0 C2.76223278 2.76223278 2.57856291 5.20706617 3 9 C-0.37503669 7.8141763 -2.64722731 6.72426311 -5 4 C-3.68 4 -2.36 4 -1 4 C-0.67 2.68 -0.34 1.36 0 0 Z " fill="#ABB08C" transform="translate(178,118)"/>
<path d="M0 0 C3.91402949 1.26941497 5.79072873 2.51167694 8 6 C7.01 6.495 7.01 6.495 6 7 C5.34786708 9.02463255 5.34786708 9.02463255 5 11 C4.16426177 9.35538655 3.33147118 7.70927487 2.5 6.0625 C2.0359375 5.14597656 1.571875 4.22945313 1.09375 3.28515625 C0 1 0 1 0 0 Z " fill="#B2B697" transform="translate(194,61)"/>
<path d="M0 0 C2.375 0.6875 2.375 0.6875 5 2 C6.3125 4.625 6.3125 4.625 7 7 C6.01 7.33 5.02 7.66 4 8 C1.10067643 5.60490662 0.49831724 3.68754757 0 0 Z " fill="#677F63" transform="translate(306,383)"/>
<path d="M0 0 C0.33 0 0.66 0 1 0 C1.06058594 1.18078125 1.12117188 2.3615625 1.18359375 3.578125 C1.26802582 5.1354277 1.35267249 6.69271879 1.4375 8.25 C1.47681641 9.02730469 1.51613281 9.80460937 1.55664062 10.60546875 C1.59853516 11.35957031 1.64042969 12.11367188 1.68359375 12.890625 C1.72025146 13.58188477 1.75690918 14.27314453 1.79467773 14.98535156 C2.00675524 17.06628329 2.44508677 18.98572422 3 21 C1.02 21.99 1.02 21.99 -1 23 C-0.67 15.41 -0.34 7.82 0 0 Z " fill="#96A692" transform="translate(315,251)"/>
<path d="M0 0 C0.33 0 0.66 0 1 0 C1.05383848 2.45862401 1.09359038 4.9160755 1.125 7.375 C1.14175781 8.07367188 1.15851563 8.77234375 1.17578125 9.4921875 C1.19344267 11.32897486 1.10303261 13.16601963 1 15 C0.34 15.66 -0.32 16.32 -1 17 C-1.33 13.7 -1.66 10.4 -2 7 C-1.34 7 -0.68 7 0 7 C0 4.69 0 2.38 0 0 Z " fill="#B6BE70" transform="translate(211,257)"/>
<path d="M0 0 C0.99 0.66 1.98 1.32 3 2 C2.34 4.31 1.68 6.62 1 9 C-0.65 9.33 -2.3 9.66 -4 10 C-4.33 9.34 -4.66 8.68 -5 8 C-3.35 7.34 -1.7 6.68 0 6 C0 4.02 0 2.04 0 0 Z " fill="#B2B87E" transform="translate(242,160)"/>
<path d="M0 0 C1.65 0 3.3 0 5 0 C5 0.66 5 1.32 5 2 C5.99 2.33 6.98 2.66 8 3 C8.99 3.66 9.98 4.32 11 5 C11 5.99 11 6.98 11 8 C6.99698968 6.23867546 3.3971023 3.73867517 0 1 C0 0.67 0 0.34 0 0 Z " fill="#AFB57E" transform="translate(159,111)"/>
<path d="M0 0 C0.66 0 1.32 0 2 0 C1.88610125 1.79240663 1.75852313 3.58394835 1.625 5.375 C1.52058594 6.87160156 1.52058594 6.87160156 1.4140625 8.3984375 C1 11 1 11 -1 13 C-1.02686553 11.02090602 -1.04633375 9.04171029 -1.0625 7.0625 C-1.07410156 5.96035156 -1.08570313 4.85820312 -1.09765625 3.72265625 C-1 1 -1 1 0 0 Z " fill="#9EA657" transform="translate(197,391)"/>
<path d="M0 0 C3 1 3 1 4 2 C5.32594105 2.36162029 6.65938457 2.69728039 8 3 C8 3.66 8 4.32 8 5 C5.03 5 2.06 5 -1 5 C-0.67 3.35 -0.34 1.7 0 0 Z " fill="#6B7B68" transform="translate(323,109)"/>
<path d="M0 0 C3.3 0.33 6.6 0.66 10 1 C10 1.66 10 2.32 10 3 C7.25 4.1875 7.25 4.1875 4 5 C1.625 3.75 1.625 3.75 0 2 C0 1.34 0 0.68 0 0 Z " fill="#A3AA6C" transform="translate(148,99)"/>
<path d="M0 0 C0.33 0.66 0.66 1.32 1 2 C0.22265625 3.9453125 0.22265625 3.9453125 -0.9375 6.125 C-1.31777344 6.84945312 -1.69804687 7.57390625 -2.08984375 8.3203125 C-2.39019531 8.87460938 -2.69054687 9.42890625 -3 10 C-3.66 10 -4.32 10 -5 10 C-5.08226668 6.95613276 -4.97608217 4.92824652 -4 2 C-1.9375 0.8125 -1.9375 0.8125 0 0 Z " fill="#AFB485" transform="translate(305,78)"/>
<path d="M0 0 C0.66 0 1.32 0 2 0 C2.75 1.75 2.75 1.75 3 4 C1.1875 6.25 1.1875 6.25 -1 8 C-1.66 8 -2.32 8 -3 8 C-1.125 2.25 -1.125 2.25 0 0 Z " fill="#677862" transform="translate(310,401)"/>
<path d="M0 0 C0.598125 0.226875 1.19625 0.45375 1.8125 0.6875 C0.8225 0.6875 -0.1675 0.6875 -1.1875 0.6875 C-1.1875 2.0075 -1.1875 3.3275 -1.1875 4.6875 C-3.6875 6.9375 -3.6875 6.9375 -6.1875 8.6875 C-5.58623418 3.27610759 -5.58623418 3.27610759 -3.875 0.75 C-2.1875 -0.3125 -2.1875 -0.3125 0 0 Z " fill="#AFB677" transform="translate(204.1875,382.3125)"/>
<path d="M0 0 C-0.49831724 3.68754757 -1.10067643 5.60490662 -4 8 C-4 7.34 -4 6.68 -4 6 C-4.99 5.67 -5.98 5.34 -7 5 C-2.25 0 -2.25 0 0 0 Z " fill="#A6AC8F" transform="translate(314,61)"/>
<path d="M0 0 C2.97 0.99 5.94 1.98 9 3 C8.67 3.66 8.34 4.32 8 5 C4.44219804 4.39009109 1.3171411 3.4216319 -2 2 C-1.34 1.34 -0.68 0.68 0 0 Z " fill="#BDC486" transform="translate(224,328)"/>
<path d="M0 0 C-0.33 0.99 -0.66 1.98 -1 3 C-3.64 3 -6.28 3 -9 3 C-9.33 2.34 -9.66 1.68 -10 1 C-6.78548731 -0.60725635 -3.56387464 -0.05748185 0 0 Z " fill="#7B837A" transform="translate(323,110)"/>
<path d="M0 0 C1.98 0.66 3.96 1.32 6 2 C6 2.99 6 3.98 6 5 C4.02 5.99 4.02 5.99 2 7 C0.5393715 4.35261084 0 3.10551666 0 0 Z " fill="#6A7D63" transform="translate(272,88)"/>
<path d="M0 0 C0.33 0.99 0.66 1.98 1 3 C1.66 3.33 2.32 3.66 3 4 C-1.455 5.485 -1.455 5.485 -6 7 C-6 6.01 -6 5.02 -6 4 C-5.01 4 -4.02 4 -3 4 C-1.29467677 2.05990478 -1.29467677 2.05990478 0 0 Z " fill="#80947B" transform="translate(286,325)"/>
<path d="M0 0 C0.66 0 1.32 0 2 0 C2.0825 0.78375 2.165 1.5675 2.25 2.375 C2.72806339 5.14749104 2.72806339 5.14749104 5.0625 6.3125 C5.701875 6.539375 6.34125 6.76625 7 7 C5.02 7.99 5.02 7.99 3 9 C0.90250005 6.64031256 0.03094296 5.45383006 -0.1875 2.25 C-0.125625 1.5075 -0.06375 0.765 0 0 Z " fill="#BBBF90" transform="translate(264,223)"/>
<path d="M0 0 C0.99 1.32 1.98 2.64 3 4 C2.34 4 1.68 4 1 4 C0.67 4.99 0.34 5.98 0 7 C-2.0625 7.6875 -2.0625 7.6875 -4 8 C-2.87548273 5.0280615 -1.77706209 2.66559313 0 0 Z " fill="#798A75" transform="translate(218,101)"/>
<path d="M0 0 C2.04119788 1.61594832 4.04072937 3.2856382 6 5 C6 5.66 6 6.32 6 7 C3.36 6.34 0.72 5.68 -2 5 C-1.34 4.67 -0.68 4.34 0 4 C0 2.68 0 1.36 0 0 Z " fill="#B0B497" transform="translate(213,77)"/>
<path d="M0 0 C0.66 0.33 1.32 0.66 2 1 C1.67 1.33 1.34 1.66 1 2 C1.66 2.66 2.32 3.32 3 4 C0.69 4.66 -1.62 5.32 -4 6 C-4.66 5.01 -5.32 4.02 -6 3 C-4.03533587 1.93224776 -2.03144641 0.93446535 0 0 Z " fill="#718B69" transform="translate(280,315)"/>
<path d="M0 0 C0.99 0 1.98 0 3 0 C2.125 3.875 2.125 3.875 1 5 C-0.99958364 5.04080783 -3.00045254 5.04254356 -5 5 C-5 4.34 -5 3.68 -5 3 C-4.360625 2.87625 -3.72125 2.7525 -3.0625 2.625 C-2.0415625 2.315625 -2.0415625 2.315625 -1 2 C-0.67 1.34 -0.34 0.68 0 0 Z " fill="#99A35C" transform="translate(182,109)"/>
<path d="M0 0 C1.9453125 0.77734375 1.9453125 0.77734375 4.125 1.9375 C5.21167969 2.50791016 5.21167969 2.50791016 6.3203125 3.08984375 C6.87460938 3.39019531 7.42890625 3.69054687 8 4 C8 4.33 8 4.66 8 5 C5.25 5.25 5.25 5.25 2 5 C-0.375 3 -0.375 3 -2 1 C-1.34 0.67 -0.68 0.34 0 0 Z " fill="#A7AC68" transform="translate(156,106)"/>
<path d="M0 0 C0 0.99 0 1.98 0 3 C-1.65 3.66 -3.3 4.32 -5 5 C-5 4.34 -5 3.68 -5 3 C-6.65 3 -8.3 3 -10 3 C-6.71687741 1.24118433 -3.76143005 0 0 0 Z " fill="#8A8E87" transform="translate(368,96)"/>
<path d="M0 0 C1.9453125 -0.29296875 1.9453125 -0.29296875 4.125 -0.1875 C5.40375 -0.125625 6.6825 -0.06375 8 0 C7.67 0.99 7.34 1.98 7 3 C4.03 3 1.06 3 -2 3 C-1.34 2.01 -0.68 1.02 0 0 Z " fill="#B2B875" transform="translate(209,381)"/>
<path d="M0 0 C0 0.66 0 1.32 0 2 C-0.99 2 -1.98 2 -3 2 C-3.33 2.66 -3.66 3.32 -4 4 C-4.66 4 -5.32 4 -6 4 C-6 3.01 -6 2.02 -6 1 C-6.99 0.67 -7.98 0.34 -9 0 C-5.62182575 -0.84454356 -3.32534757 -1.10844919 0 0 Z " fill="#7A9071" transform="translate(270,321)"/>
<path d="M0 0 C1.65 0 3.3 0 5 0 C4.6875 1.9375 4.6875 1.9375 4 4 C3.01 4.33 2.02 4.66 1 5 C0.34 4.67 -0.32 4.34 -1 4 C-0.67 2.68 -0.34 1.36 0 0 Z " fill="#5B6A57" transform="translate(358,99)"/>
<path d="M0 0 C-0.66 1.65 -1.32 3.3 -2 5 C-2.99 5 -3.98 5 -5 5 C-4.67 3.68 -4.34 2.36 -4 1 C-4.66 0.67 -5.32 0.34 -6 0 C-3.50907189 -1.24546405 -2.58919267 -0.7767578 0 0 Z " fill="#688362" transform="translate(240,88)"/>
<path d="M0 0 C0.99 0.33 1.98 0.66 3 1 C3.8125 2.9375 3.8125 2.9375 4 5 C3.34 5.66 2.68 6.32 2 7 C0.4375 5.75 0.4375 5.75 -1 4 C-0.6875 1.8125 -0.6875 1.8125 0 0 Z " fill="#A4B57E" transform="translate(197,402)"/>
<path d="M0 0 C2.31 0.66 4.62 1.32 7 2 C5.68 3.32 4.36 4.64 3 6 C3 5.01 3 4.02 3 3 C1.68 2.67 0.36 2.34 -1 2 C-0.67 1.34 -0.34 0.68 0 0 Z " fill="#799071" transform="translate(300,313)"/>
<path d="M0 0 C1.32 0.99 2.64 1.98 4 3 C3.360625 3.268125 2.72125 3.53625 2.0625 3.8125 C-0.33131686 4.88667752 -0.33131686 4.88667752 -1 8 C-2.2077558 4.37673261 -1.54311128 3.35853631 0 0 Z " fill="#70866B" transform="translate(312,279)"/>
<path d="M0 0 C2.97 0 5.94 0 9 0 C5.71299843 1.64350079 3.52069985 2.41321669 0 3 C0 2.01 0 1.02 0 0 Z " fill="#738870" transform="translate(291,381)"/>
<path d="M0 0 C0.33 0.66 0.66 1.32 1 2 C1.66 2.33 2.32 2.66 3 3 C0.03 3.66 -2.94 4.32 -6 5 C-6.33 4.34 -6.66 3.68 -7 3 C-3.535 2.505 -3.535 2.505 0 2 C0 1.34 0 0.68 0 0 Z " fill="#788874" transform="translate(277,330)"/>
<path d="M0 0 C1.0625 1.8125 1.0625 1.8125 2 4 C1.67 4.99 1.34 5.98 1 7 C-0.32 6.67 -1.64 6.34 -3 6 C-2.01 4.02 -1.02 2.04 0 0 Z " fill="#70896E" transform="translate(309,286)"/>
<path d="M0 0 C0.66 0.33 1.32 0.66 2 1 C0.35 2.98 -1.3 4.96 -3 7 C-4.32 6.34 -5.64 5.68 -7 5 C-4.69 3.35 -2.38 1.7 0 0 Z " fill="#6B6B6B" transform="translate(78,151)"/>
<path d="M0 0 C2.31 0.33 4.62 0.66 7 1 C6.67 1.99 6.34 2.98 6 4 C4.35 4 2.7 4 1 4 C0.67 2.68 0.34 1.36 0 0 Z " fill="#ADB37A" transform="translate(158,101)"/>
<path d="M0 0 C0.99 0 1.98 0 3 0 C3 0.66 3 1.32 3 2 C3.99 2.33 4.98 2.66 6 3 C6 3.66 6 4.32 6 5 C5.01 5.33 4.02 5.66 3 6 C0 1.125 0 1.125 0 0 Z " fill="#5E7658" transform="translate(351,102)"/>
<path d="M0 0 C0.66 0 1.32 0 2 0 C1.67 2.31 1.34 4.62 1 7 C0.01 6.01 -0.98 5.02 -2 4 C-1.34 2.68 -0.68 1.36 0 0 Z " fill="#9FA686" transform="translate(208,82)"/>
<path d="M0 0 C1.32 0.66 2.64 1.32 4 2 C3.01 2.99 2.02 3.98 1 5 C0.01 4.67 -0.98 4.34 -2 4 C-1.34 2.68 -0.68 1.36 0 0 Z " fill="#6D8367" transform="translate(313,303)"/>
<path d="M0 0 C1.9375 0.625 1.9375 0.625 4 2 C4.75 5.125 4.75 5.125 5 8 C2.27573689 5.64722731 1.1858237 3.37503669 0 0 Z " fill="#BABD8D" transform="translate(213,280)"/>
<path d="M0 0 C0.66 0 1.32 0 2 0 C2 0.66 2 1.32 2 2 C2.66 2.33 3.32 2.66 4 3 C0.25 6 0.25 6 -2 6 C-1.34 4.02 -0.68 2.04 0 0 Z " fill="#6E816B" transform="translate(335,117)"/>
<path d="M0 0 C2.97 0.495 2.97 0.495 6 1 C6.33 2.65 6.66 4.3 7 6 C1.125 2.25 1.125 2.25 0 0 Z " fill="#C1C696" transform="translate(202,315)"/>
<path d="M0 0 C0.33 0.99 0.66 1.98 1 3 C0.01 4.485 0.01 4.485 -1 6 C-1.66 6 -2.32 6 -3 6 C-3 5.34 -3 4.68 -3 4 C-3.66 3.67 -4.32 3.34 -5 3 C-3.35 2.01 -1.7 1.02 0 0 Z " fill="#71866E" transform="translate(289,310)"/>
<path d="M0 0 C0.66 0 1.32 0 2 0 C2 0.66 2 1.32 2 2 C2.99 2 3.98 2 5 2 C5.33 3.98 5.66 5.96 6 8 C1.125 3.375 1.125 3.375 0 0 Z " fill="#C1C793" transform="translate(192,303)"/>
<path d="M0 0 C0.33 0.66 0.66 1.32 1 2 C1.99 2 2.98 2 4 2 C3.34 3.32 2.68 4.64 2 6 C1.01 6 0.02 6 -1 6 C-0.67 4.02 -0.34 2.04 0 0 Z " fill="#9CA09B" transform="translate(328,121)"/>
<path d="" fill="#FFFFFF" transform="translate(0,0)"/>
<path d="" fill="#FFFFFF" transform="translate(0,0)"/>
<path d="" fill="#FFFFFF" transform="translate(0,0)"/>
<path d="" fill="#FFFFFF" transform="translate(0,0)"/>
<path d="" fill="#FFFFFF" transform="translate(0,0)"/>
<path d="" fill="#FFFFFF" transform="translate(0,0)"/>
<path d="" fill="#FFFFFF" transform="translate(0,0)"/>
<path d="" fill="#FFFFFF" transform="translate(0,0)"/>
<path d="" fill="#FFFFFF" transform="translate(0,0)"/>
<path d="" fill="#FFFFFF" transform="translate(0,0)"/>
<path d="" fill="#FFFFFF" transform="translate(0,0)"/>
<path d="" fill="#FFFFFF" transform="translate(0,0)"/>
<path d="" fill="#FFFFFF" transform="translate(0,0)"/>
<path d="" fill="#FFFFFF" transform="translate(0,0)"/>
<path d="" fill="#FFFFFF" transform="translate(0,0)"/>
<path d="" fill="#FFFFFF" transform="translate(0,0)"/>
<path d="" fill="#FFFFFF" transform="translate(0,0)"/>
<path d="" fill="#FFFFFF" transform="translate(0,0)"/>
<path d="" fill="#FFFFFF" transform="translate(0,0)"/>
<path d="" fill="#FFFFFF" transform="translate(0,0)"/>
<path d="" fill="#FFFFFF" transform="translate(0,0)"/>
<path d="" fill="#FFFFFF" transform="translate(0,0)"/>
<path d="" fill="#FFFFFF" transform="translate(0,0)"/>
<path d="" fill="#FFFFFF" transform="translate(0,0)"/>
<path d="" fill="#FFFFFF" transform="translate(0,0)"/>
<path d="" fill="#FFFFFF" transform="translate(0,0)"/>
<path d="" fill="#FFFFFF" transform="translate(0,0)"/>
<path d="" fill="#FFFFFF" transform="translate(0,0)"/>
<path d="" fill="#FFFFFF" transform="translate(0,0)"/>
<path d="" fill="#FFFFFF" transform="translate(0,0)"/>
<path d="" fill="#FFFFFF" transform="translate(0,0)"/>
<path d="" fill="#FFFFFF" transform="translate(0,0)"/>
<path d="" fill="#FFFFFF" transform="translate(0,0)"/>
<path d="" fill="#FFFFFF" transform="translate(0,0)"/>
<path d="" fill="#FFFFFF" transform="translate(0,0)"/>
<path d="" fill="#FFFFFF" transform="translate(0,0)"/>
<path d="" fill="#FFFFFF" transform="translate(0,0)"/>
<path d="" fill="#FFFFFF" transform="translate(0,0)"/>
<path d="" fill="#FFFFFF" transform="translate(0,0)"/>
<path d="" fill="#FFFFFF" transform="translate(0,0)"/>
<path d="" fill="#FFFFFF" transform="translate(0,0)"/>
<path d="" fill="#FFFFFF" transform="translate(0,0)"/>
<path d="" fill="#FFFFFF" transform="translate(0,0)"/>
<path d="" fill="#FFFFFF" transform="translate(0,0)"/>
<path d="" fill="#FFFFFF" transform="translate(0,0)"/>
<path d="" fill="#FFFFFF" transform="translate(0,0)"/>
<path d="" fill="#FFFFFF" transform="translate(0,0)"/>
<path d="" fill="#FFFFFF" transform="translate(0,0)"/>
<path d="" fill="#FFFFFF" transform="translate(0,0)"/>
<path d="" fill="#FFFFFF" transform="translate(0,0)"/>
<path d="" fill="#FFFFFF" transform="translate(0,0)"/>
<path d="" fill="#FFFFFF" transform="translate(0,0)"/>
<path d="" fill="#FFFFFF" transform="translate(0,0)"/>
<path d="" fill="#FFFFFF" transform="translate(0,0)"/>
<path d="" fill="#FFFFFF" transform="translate(0,0)"/>
<path d="" fill="#FFFFFF" transform="translate(0,0)"/>
<path d="" fill="#FFFFFF" transform="translate(0,0)"/>
<path d="" fill="#FFFFFF" transform="translate(0,0)"/>
<path d="" fill="#FFFFFF" transform="translate(0,0)"/>
<path d="" fill="#FFFFFF" transform="translate(0,0)"/>
<path d="" fill="#FFFFFF" transform="translate(0,0)"/>
<path d="" fill="#FFFFFF" transform="translate(0,0)"/>
<path d="" fill="#FFFFFF" transform="translate(0,0)"/>
<path d="" fill="#FFFFFF" transform="translate(0,0)"/>
<path d="" fill="#FFFFFF" transform="translate(0,0)"/>
</svg>
